<svg xmlns="http://www.w3.org/2000/svg" viewBox="0 0 2000 1000"><title>clouds front</title><g id="foreground"><g id="cloud" style="opacity:0.42"><path d="M1164.63,299.36h97.22s46,1.18,26.28-24.37-45.33-11.11-45.33-11.11-24.37-22.33-50.58-4.07c-19.71-13-44-7.78-48,15.55S1164.63,299.36,1164.63,299.36Z" style="fill:#fff"/><path d="M1164.63,299.36h97.22s46,1.18,26.28-24.37c-29.54-16.86-44.43,1-44.43,1s-21.69-21.89-47.91-3.63c-19.71-13-48.77-8.2-51.53,3C1140.11,299.37,1164.63,299.36,1164.63,299.36Z" style="fill:#f2f2f2"/><path d="M1164.63,299.36s90.13,0,97.22,0,13.06-.33,16.12-4.18c4.2-5.32-9-5.42-27.47-4.24s-23.88,3.56-42.58,2.37-43.35-6.07-49.27,0C1153.2,299.37,1164.63,299.36,1164.63,299.36Z" style="fill:#e6e6e6"/></g><g id="cloud-2" data-name="cloud" style="opacity:0.42"><path d="M540.17,299.78h97.22s46,1.18,26.28-24.37-45.33-11.1-45.33-11.1S594,242,567.76,260.23c-19.71-13-44-7.78-48,15.56S540.17,299.78,540.17,299.78Z" style="fill:#fff"/><path d="M540.17,299.78h97.22s46,1.18,26.28-24.37c-29.54-16.86-44.43,1-44.43,1s-21.69-21.89-47.91-3.63c-19.71-13-48.78-8.2-51.53,3C515.65,299.79,540.17,299.78,540.17,299.78Z" style="fill:#f2f2f2"/><path d="M540.17,299.78s90.13,0,97.22,0,13.06-.33,16.12-4.18c4.2-5.32-9-5.42-27.47-4.24s-23.88,3.56-42.58,2.37-43.36-6.07-49.27,0C528.74,299.79,540.17,299.78,540.17,299.78Z" style="fill:#e6e6e6"/></g></g><g id="Layer_22" data-name="Layer 22"><rect width="2000" height="1000" style="fill:none"/></g></svg>