<svg xmlns="http://www.w3.org/2000/svg" viewBox="0 0 2000 1000"><title>clouds back</title><g id="background"><g id="clouds"><g id="cloud" style="opacity:0.42"><path d="M744.35,223h97.22s46,1.18,26.28-24.37-45.33-11.11-45.33-11.11-24.36-22.33-50.58-4.07c-19.71-13-44-7.78-48,15.55S744.35,223,744.35,223Z" style="fill:#fff"/><path d="M744.35,223h97.22s46,1.18,26.28-24.37c-29.53-16.86-44.42,1-44.42,1s-21.7-21.89-47.91-3.63c-19.71-13-48.78-8.2-51.53,3C719.83,223,744.35,223,744.35,223Z" style="fill:#f2f2f2"/><path d="M744.35,223s90.14,0,97.22,0,13.06-.33,16.13-4.18c4.2-5.32-9.05-5.42-27.47-4.24s-23.89,3.56-42.58,2.37-43.36-6.07-49.28,0C732.92,223,744.35,223,744.35,223Z" style="fill:#e6e6e6"/></g><g id="cloud-2" data-name="cloud" style="opacity:0.42"><path d="M1707,93h97.22s46,1.18,26.28-24.38-45.33-11.1-45.33-11.1-24.36-22.33-50.58-4.07c-19.71-13-44-7.78-48,15.55S1707,93,1707,93Z" style="fill:#fff"/><path d="M1707,93h97.22s46,1.18,26.28-24.38c-29.53-16.85-44.42,1-44.42,1s-21.7-21.89-47.91-3.63c-19.71-13-48.78-8.2-51.53,3C1682.43,93,1707,93,1707,93Z" style="fill:#f2f2f2"/><path d="M1707,93s90.14,0,97.22,0,13.06-.33,16.13-4.18c4.2-5.32-9-5.42-27.47-4.24s-23.89,3.55-42.58,2.37-43.36-6.08-49.28,0C1695.52,93,1707,93,1707,93Z" style="fill:#e6e6e6"/></g><g id="cloud-3" data-name="cloud" style="opacity:0.42"><path d="M1275.37,201.62h97.22s46,1.18,26.28-24.37-45.33-11.1-45.33-11.1-24.37-22.34-50.58-4.08c-19.71-13-44-7.78-48,15.56S1275.37,201.62,1275.37,201.62Z" style="fill:#fff"/><path d="M1275.37,201.62h97.22s46,1.18,26.28-24.37c-29.54-16.86-44.43,1-44.43,1s-21.69-21.89-47.91-3.62c-19.71-13-48.77-8.21-51.53,3C1250.85,201.63,1275.37,201.62,1275.37,201.62Z" style="fill:#f2f2f2"/><path d="M1275.37,201.62s90.13,0,97.22,0,13.06-.33,16.12-4.18c4.2-5.32-9-5.42-27.47-4.23s-23.88,3.55-42.58,2.36-43.36-6.07-49.27,0C1263.94,201.63,1275.37,201.62,1275.37,201.62Z" style="fill:#e6e6e6"/></g><g id="cloud-4" data-name="cloud" style="opacity:0.42"><path d="M1599.13,343.57h97.22s46,1.18,26.27-24.37-45.32-11.1-45.32-11.1-24.37-22.34-50.58-4.08c-19.71-13-44-7.78-48,15.56S1599.13,343.57,1599.13,343.57Z" style="fill:#fff"/><path d="M1599.13,343.57h97.22s46,1.18,26.27-24.37c-29.53-16.86-44.42,1-44.42,1s-21.69-21.89-47.91-3.63c-19.71-13-48.78-8.2-51.53,3C1574.61,343.58,1599.13,343.57,1599.13,343.57Z" style="fill:#f2f2f2"/><path d="M1599.13,343.57s90.13,0,97.22,0,13.06-.33,16.12-4.18c4.2-5.32-9-5.42-27.47-4.24s-23.88,3.56-42.58,2.37-43.36-6.07-49.28,0C1587.7,343.58,1599.13,343.57,1599.13,343.57Z" style="fill:#e6e6e6"/></g><g id="cloud-5" data-name="cloud" style="opacity:0.42"><path d="M591.22,135.21h97.23s46,1.18,26.27-24.37-45.32-11.1-45.32-11.1S645,77.4,618.81,95.67c-19.7-13-44-7.79-47.95,15.55S591.22,135.21,591.22,135.21Z" style="fill:#fff"/><path d="M591.22,135.21h97.23s46,1.18,26.27-24.37c-29.53-16.86-44.42,1-44.42,1S648.6,90,622.39,108.23c-19.71-13-48.78-8.21-51.53,3C566.71,135.22,591.22,135.21,591.22,135.21Z" style="fill:#f2f2f2"/><path d="M591.22,135.21s90.14,0,97.23,0,13-.33,16.12-4.18c4.2-5.32-9-5.42-27.47-4.23s-23.89,3.55-42.58,2.36-43.36-6.07-49.28,0C579.8,135.22,591.22,135.21,591.22,135.21Z" style="fill:#e6e6e6"/></g><g id="cloud-6" data-name="cloud" style="opacity:0.42"><path d="M24,375.39h97.22s46,1.18,26.28-24.37-45.33-11.1-45.33-11.1-24.36-22.34-50.58-4.07c-19.71-13-44-7.79-47.95,15.55S24,375.39,24,375.39Z" style="fill:#fff"/><path d="M24,375.39h97.22s46,1.18,26.28-24.37c-29.53-16.86-44.42,1-44.42,1s-21.7-21.89-47.92-3.62c-19.7-13-48.77-8.2-51.52,3C-.52,375.4,24,375.39,24,375.39Z" style="fill:#f2f2f2"/><path d="M24,375.39s90.14,0,97.22,0,13.06-.33,16.13-4.17c4.19-5.33-9-5.42-27.47-4.24S86,370.53,67.3,369.34s-43.36-6.07-49.28.05C12.57,375.4,24,375.39,24,375.39Z" style="fill:#e6e6e6"/></g></g></g><g id="Layer_22" data-name="Layer 22"><rect width="2000" height="1000" style="fill:none"/></g></svg>