<svg xmlns="http://www.w3.org/2000/svg" xmlns:xlink="http://www.w3.org/1999/xlink" viewBox="0 0 4378.66 2189.33"><defs><style>.cls-1{fill:#fff;}.cls-2{opacity:0.26;}.cls-3{fill:url(#linear-gradient);}.cls-4{fill:url(#linear-gradient-2);}.cls-5{fill:url(#linear-gradient-3);}.cls-6{fill:url(#linear-gradient-4);}.cls-7{fill:url(#linear-gradient-5);}.cls-8{fill:url(#linear-gradient-6);}.cls-9{fill:url(#linear-gradient-7);}.cls-10{fill:url(#linear-gradient-8);}.cls-11{fill:url(#linear-gradient-9);}.cls-12{fill:url(#linear-gradient-10);}.cls-13{fill:url(#linear-gradient-11);}.cls-14{fill:url(#linear-gradient-12);}.cls-15{fill:url(#linear-gradient-13);}.cls-16{fill:url(#linear-gradient-14);}.cls-17{fill:url(#linear-gradient-15);}.cls-18{fill:url(#linear-gradient-16);}.cls-19{fill:url(#linear-gradient-17);}.cls-20{fill:url(#linear-gradient-18);}.cls-21{fill:url(#linear-gradient-19);}.cls-22{opacity:0.56;fill:url(#linear-gradient-20);}.cls-23{fill:url(#radial-gradient);}.cls-24{fill:url(#radial-gradient-2);}.cls-25{fill:#004070;}.cls-26{opacity:0.11;}.cls-27{fill:#ff1d25;}.cls-28{fill:#e6e6e6;opacity:0.71;}.cls-29{fill:#f2f2f2;}.cls-30{fill:none;}</style><linearGradient id="linear-gradient" x1="1017.18" y1="7.49" x2="1041.44" y2="-902.32" gradientTransform="matrix(1, 0, 0, -0.88, 0, 1131.14)" gradientUnits="userSpaceOnUse"><stop offset="0" stop-color="#fff"/><stop offset="0.13" stop-color="#ecf2f9"/><stop offset="0.39" stop-color="#bcd1e9"/><stop offset="0.75" stop-color="#6f9ccf"/><stop offset="1" stop-color="#3775bc"/></linearGradient><linearGradient id="linear-gradient-2" x1="1271.41" y1="14.26" x2="1295.67" y2="-895.54" xlink:href="#linear-gradient"/><linearGradient id="linear-gradient-3" x1="1181.86" y1="11.88" x2="1206.13" y2="-897.93" xlink:href="#linear-gradient"/><linearGradient id="linear-gradient-4" x1="1141.39" y1="10.8" x2="1165.66" y2="-899.01" xlink:href="#linear-gradient"/><linearGradient id="linear-gradient-5" x1="1396.74" y1="17.61" x2="1421" y2="-892.2" xlink:href="#linear-gradient"/><linearGradient id="linear-gradient-6" x1="1436.04" y1="18.65" x2="1460.3" y2="-891.15" xlink:href="#linear-gradient"/><linearGradient id="linear-gradient-7" x1="1457.34" y1="19.22" x2="1481.6" y2="-890.58" xlink:href="#linear-gradient"/><linearGradient id="linear-gradient-8" x1="1438.02" y1="18.71" x2="1462.28" y2="-891.1" xlink:href="#linear-gradient"/><linearGradient id="linear-gradient-9" x1="1411.72" y1="18.01" x2="1435.98" y2="-891.8" xlink:href="#linear-gradient"/><linearGradient id="linear-gradient-10" x1="1582.89" y1="22.57" x2="1607.15" y2="-887.23" xlink:href="#linear-gradient"/><linearGradient id="linear-gradient-11" x1="1770.8" y1="27.58" x2="1795.06" y2="-882.22" xlink:href="#linear-gradient"/><linearGradient id="linear-gradient-12" x1="1766.79" y1="27.47" x2="1791.05" y2="-882.33" xlink:href="#linear-gradient"/><linearGradient id="linear-gradient-13" x1="1701.39" y1="25.84" x2="1725.65" y2="-883.96" xlink:href="#linear-gradient"/><linearGradient id="linear-gradient-14" x1="1682.26" y1="25.22" x2="1706.52" y2="-884.58" xlink:href="#linear-gradient"/><linearGradient id="linear-gradient-15" x1="2102.27" y1="36.42" x2="2126.53" y2="-873.38" xlink:href="#linear-gradient"/><linearGradient id="linear-gradient-16" x1="2154.83" y1="37.82" x2="2179.09" y2="-871.98" xlink:href="#linear-gradient"/><linearGradient id="linear-gradient-17" x1="2203.23" y1="39.11" x2="2227.49" y2="-870.69" xlink:href="#linear-gradient"/><linearGradient id="linear-gradient-18" x1="2454.3" y1="45.81" x2="2478.56" y2="-863.99" xlink:href="#linear-gradient"/><linearGradient id="linear-gradient-19" x1="3247.24" y1="65.33" x2="3271.51" y2="-844.48" xlink:href="#linear-gradient"/><linearGradient id="linear-gradient-20" x1="2189.33" y1="1286.9" x2="2189.33" y2="2189.33" gradientUnits="userSpaceOnUse"><stop offset="0" stop-color="#f5f5f5"/><stop offset="0.21" stop-color="#fff"/><stop offset="0.28" stop-color="#f9f9f9"/><stop offset="0.38" stop-color="#e7e7e7"/><stop offset="0.5" stop-color="#cbcbcb"/><stop offset="0.62" stop-color="#a3a3a3"/><stop offset="0.76" stop-color="#6f6f6f"/><stop offset="0.9" stop-color="#313131"/><stop offset="1"/></linearGradient><radialGradient id="radial-gradient" cx="3486.22" cy="1081.84" fx="2660.299595865648" fy="853.6474293692057" r="1146.77" gradientTransform="matrix(0.89, 0.46, -0.39, 0.76, 802.75, -1325.8)" gradientUnits="userSpaceOnUse"><stop offset="0.33" stop-color="#c4f0ff"/><stop offset="1" stop-color="#2186a8"/></radialGradient><radialGradient id="radial-gradient-2" cx="5903.99" cy="1081.84" fx="5078.069348061154" fy="853.6474288894282" r="1146.77" gradientTransform="matrix(-0.98, 0.46, 0.43, 0.76, 6292.34, -2428.53)" xlink:href="#radial-gradient"/></defs><title>foreground</title><g id="reflection"><rect class="cls-1" x="2.76" y="1319.46" width="4374.46" height="824.75"/><polygon class="cls-1" points="4378.66 1288.76 0 1302.99 0 1569.98 876.43 1658.04 988.22 1714.54 1034.8 1716.39 1079.83 1743.25 1148.14 1744.18 1196.28 1736.77 1255.28 1784.01 1342.22 1821.98 1363.96 1860.88 1446.25 1905.34 1483.51 1898.52 1621.7 1953.51 1688.46 1922.94 1752.12 1921.09 1862.36 1865.52 1955.52 1799.53 2002.1 1795.12 2075.07 1849.77 2106.12 1849.77 2146.49 1884.97 2185.38 1883.12 2197.73 1898.52 2234.99 1898.52 2354.55 2011.86 2480.31 2059.1 2618.5 2006.3 2696.13 1997.97 2752.02 1980.37 2828.1 1909.98 2902.63 1891.45 2932.13 1843.29 2983.37 1830.32 3022.18 1812.72 3070.32 1813.65 3196.08 1759 3253.53 1727.51 3324.95 1727.51 3373.08 1679.34 3467.79 1634.88 3520.58 1635.81 3605.11 1589.24 4097.45 1524.84 4378.66 1502.64 4378.66 1288.76"/><g class="cls-2"><polygon class="cls-3" points="1009.31 1553.24 1018.98 1532.01 1036.7 1515.03 1050.39 1530.6 1034.8 1554.51 1009.31 1553.24"/><polygon class="cls-4" points="1358.13 1425.88 1342.02 1459.84 1324.29 1495.22 1278.37 1524.94 1248.57 1568.1 1193.79 1586.5 1148.14 1595.42 1180.9 1540.5 1217.15 1481.07 1304.15 1416.68 1320.26 1394.04 1376.65 1394.04 1399.21 1365.02 1416.93 1374.93 1387.93 1425.88 1358.13 1425.88"/><polygon class="cls-5" points="1208.29 1435.78 1208.29 1459.84 1193.79 1469.04 1208.29 1481.07 1178.48 1529.89 1155.93 1529.89 1152.7 1519.28 1167.2 1506.32 1155.93 1493.8 1179.29 1487.44 1168.01 1477.53 1155.93 1459.13 1174.45 1451.35 1188.15 1451.35 1190.57 1437.9 1216.34 1415.97 1232.46 1428 1232.46 1447.1 1219.57 1435.78 1208.29 1435.78"/><polygon class="cls-6" points="1147.07 1442.15 1134.98 1449.23 1134.98 1438.97 1152.7 1432.95 1159.95 1428.71 1167.2 1432.95 1155.93 1442.15 1147.07 1442.15"/><polygon class="cls-7" points="1433.85 1664.33 1403.24 1658.67 1388.74 1686.27 1362.15 1709.62 1350.95 1732.97 1342.22 1709.98 1325.58 1699.27 1342.82 1676.91 1373.43 1623.29 1393.57 1619.75 1393.57 1590.04 1380.68 1590.04 1380.68 1575.88 1398.4 1567.39 1434.66 1567.39 1454.8 1559.61 1463.66 1569.52 1447.55 1573.05 1441.1 1590.04 1463.66 1577.3 1453.99 1602.77 1474.93 1597.11 1462.05 1616.92 1500.71 1612.68 1500.71 1626.12 1463.66 1640.27 1433.85 1664.33"/><polygon class="cls-8" points="1449.16 1732.97 1473.32 1732.97 1473.32 1745.7 1455.2 1745.7 1437.07 1758.44 1449.16 1732.97"/><polygon class="cls-9" points="1483.51 1822.67 1446.25 1832.71 1449.96 1816.46 1473.32 1803.02 1473.32 1775.7 1479.77 1758.44 1491.85 1728.72 1509.58 1751.36 1491.85 1783.91 1483.51 1822.67"/><polygon class="cls-10" points="1466.88 1789.57 1449.96 1783.91 1455.2 1764.81 1466.88 1789.57"/><polygon class="cls-11" points="1441.1 1789.57 1441.1 1810.09 1423.38 1793.11 1437.07 1782.5 1441.1 1789.57"/><polygon class="cls-12" points="1599.8 1805.85 1597.38 1782.5 1578.86 1777.19 1569.99 1767.28 1578.86 1764.81 1598.19 1758.44 1606.24 1737.21 1613.49 1728.72 1634.44 1728.72 1623.16 1746.76 1634.44 1745.7 1634.44 1764.81 1619.94 1782.5 1599.8 1805.85"/><polygon class="cls-13" points="1862.36 1774.07 1752.12 1855.9 1688.46 1858.63 1621.7 1903.63 1628.8 1880.85 1643.3 1870.24 1643.3 1858.21 1634.44 1851.13 1643.3 1840.52 1649.75 1829.9 1667.47 1810.09 1667.47 1777.19 1689.22 1793.11 1689.22 1814.34 1708.55 1789.57 1725.47 1782.5 1737.55 1740.75 1752.86 1713.86 1781.86 1701.83 1840.67 1672.82 1852.75 1672.82 1835.03 1695.46 1852.75 1708.2 1890.61 1701.13 1920.27 1672.41 1960.89 1660.59 1955.52 1676.91 1862.36 1774.07"/><polygon class="cls-14" points="1853.56 1602.77 1828.58 1637.44 1825.36 1667.87 1758.5 1704.66 1706.94 1704.66 1727.89 1681.31 1764.94 1676.91 1753.66 1661.5 1797.17 1628.24 1774.61 1594.28 1802.4 1559.61 1824.56 1559.61 1824.56 1590.04 1839.06 1555.36 1858.39 1555.36 1848.72 1573.05 1853.56 1602.77"/><polygon class="cls-15" points="1742.39 1662.91 1725.47 1667.87 1690.83 1704.66 1690.83 1676.91 1706.94 1647.35 1706.94 1615.51 1718.62 1614.8 1718.62 1594.99 1737.55 1584.37 1737.55 1630.01 1721.44 1647.35 1746.41 1647.35 1742.39 1662.91"/><polygon class="cls-16" points="1670.69 1753.49 1702.11 1718.81 1731.91 1718.81 1690.83 1749.24 1690.83 1786.39 1670.69 1753.49"/><polygon class="cls-17" points="2106.12 1750.89 2086.09 1750.89 2111.8 1695.18 2075.07 1750.89 2056.97 1731.3 2085.97 1698.42 2047.33 1720.3 2038.16 1710.19 2093.87 1667.87 2112.32 1674.81 2123.39 1664.62 2115.49 1658.14 2137.1 1622.49 2151.86 1625.26 2138.68 1652.12 2172.42 1625.26 2200.88 1624.34 2146.06 1665.55 2106.12 1750.89"/><polygon class="cls-18" points="2185.38 1799.98 2146.49 1802.71 2150.28 1755.84 2171.36 1742.87 2182.96 1742.87 2170.31 1765.56 2173.47 1783.16 2177.69 1763.01 2188.47 1753.52 2204.57 1757.23 2188.47 1771.58 2185.38 1799.98"/><polygon class="cls-19" points="2197.73 1822.67 2208.26 1794.73 2217.75 1802.6 2252.02 1797.05 2234.99 1822.67 2197.73 1822.67"/><polygon class="cls-20" points="2505.51 1886.35 2473.22 1892.97 2466.77 1851.37 2488.29 1802.6 2490.45 1733.2 2466.77 1725.63 2463.54 1652.84 2444.16 1655.68 2461.38 1752.11 2438.78 1718.07 2419.41 1742.87 2406.49 1722.8 2362.36 1777.63 2370.97 1737.32 2352.68 1723.74 2429.09 1622.49 2429.09 1597.06 2473.22 1544.12 2513.05 1531.83 2513.05 1463.76 2538.88 1493.07 2565.79 1534.67 2552.87 1593.75 2527.04 1641.49 2557.18 1704.66 2593.77 1704.66 2593.77 1723.74 2536.73 1808.7 2505.51 1886.35"/><path class="cls-21" d="M3605.11,1367.3l-86.54,70-52.79-1.36-94.71,65.46-48.13,70.92h-71.42l-57.45,46.37-125.77,80.46-48.13-1.37-38.81,25.92-51.24,19.09-29.5,70.91L2826.09,1841,2750,1944.66l-55.89,25.91-78.68,12.74L2490.59,2058l13.52-37-13.52-91.57,86.26-119.3,53.34-36V1729.3l77.58-85.18,70.31-55.37-84.86,33.38-58.19,73.1,14.55-138.39,9.7,42.56,55.76-42.56,41.22-40.49,29.09-68.15,36.37-23.42V1346l-19.4,42.59-58.18,46.85-48.49-93.7,63,6.39-2.42-85.18,48.49-31.94v34.07l12.12,49,31.52-70.28,63-10.64-21.83,36.2,19.4,23.42,70.31-55.36-4.85,42.59,94.56-21.3,65.46-72.4v53.23l-89.71,110.74-24.24,100.09L3127.2,1346l53.34-17,82.43-55.37,29.1,25.55,38.79-40.46,75.16-38.33,26.67,21.29,36.37-42.59,50.91-12.77,14.55,21.29,46.06-2.13,23.9-5.31,435.67,83.39Zm-894.92,371.49-63.49,30.48-12.82,34.86-17.1,20,25-2.86,14.05-29.5,54.33-38.61Zm64.11,10.64-46.4,50.94v51l46.4-72.4Z" transform="translate(0)"/></g><rect class="cls-22" y="1286.9" width="4378.66" height="902.43"/></g><g id="trees"><path class="cls-23" d="M4198.1,919.3s-100.49-78.64-261.89-27-233.15,145.39-233.15,145.39-141.29-90.51-270.37-50.79-167.32,173.32-167.32,173.32-103.87-110.29-216.84-60.33-102.43,118.84-102.43,118.84-94.48-77.88-195-45.6S2593.77,1303,2593.77,1303l1784.89-14.23V876.11C4230.39,824.41,4198.1,919.3,4198.1,919.3Z" transform="translate(0)"/><path class="cls-24" d="M198.37,919.3s110.39-78.64,287.71-27,256.14,145.39,256.14,145.39,155.22-90.51,297-50.79,183.82,173.32,183.82,173.32,114.11-110.29,238.22-60.33,112.53,118.84,112.53,118.84,103.79-77.88,214.23-45.6S1960.89,1303,1960.89,1303L0,1288.76V876.11C162.89,824.41,198.37,919.3,198.37,919.3Z" transform="translate(0)"/><g id="front_trees" data-name="front trees"><polygon id="tree3" class="cls-25" points="1489.6 1313.03 1504.33 1313.03 1504.33 1294.47 1523.75 1301.79 1515.15 1287.15 1526.3 1289.69 1523.43 1279.19 1554.63 1287.78 1549.54 1279.19 1589.66 1283.01 1558.78 1257.85 1582.34 1266.13 1577.88 1257.85 1607.17 1266.13 1595.71 1250.21 1565.14 1231.11 1615.77 1238.75 1599.21 1220.28 1570.87 1196.08 1592.21 1193.22 1582.34 1182.07 1558.78 1167.74 1584.88 1170.61 1572.15 1154.37 1546.36 1142.27 1567.05 1142.27 1562.91 1136.54 1554.95 1130.45 1575.97 1136.54 1566.1 1122.85 1542.85 1102.79 1569.6 1102.79 1547.95 1082.09 1525.98 1066.49 1536.17 1066.49 1539.67 1062.67 1550.18 1063.94 1539.67 1053.12 1518.65 1042.93 1546.67 1046.43 1512.92 1016.18 1537.44 1018.09 1525.66 1007.26 1505.92 996.76 1529.16 1001.53 1502.73 965.55 1518.71 959.5 1501.87 953.39 1499.69 925.98 1491.27 915.25 1491.27 934.03 1484.59 942.95 1494.28 947.8 1479.81 959.82 1490.32 961.41 1473.44 979.88 1488.09 980.52 1471.53 1002.17 1488.09 1000.9 1465.48 1020.64 1459.11 1028.92 1474.71 1028.28 1451.79 1044.52 1462.62 1047.07 1482.67 1036.56 1453.7 1062.35 1468.66 1066.17 1442.56 1080.18 1433.64 1091.64 1462.62 1088.78 1454.65 1096.1 1433.64 1103.11 1431.09 1113.3 1455.29 1110.11 1443.51 1120.3 1424.41 1128.26 1458.16 1132.08 1413.26 1152.14 1422.18 1154.37 1441.6 1150.87 1418.67 1172.84 1395.75 1194.81 1430.46 1186.53 1404.03 1204.36 1415.17 1207.23 1398.3 1222.83 1431.41 1223.78 1388.11 1245.43 1424.09 1243.21 1380.78 1280.78 1403.07 1278.87 1434.28 1272.18 1426.63 1296.38 1468.98 1276.64 1466.12 1297.34 1489.04 1283.96 1489.6 1313.03"/><polygon id="tree3-2" data-name="tree3" class="cls-25" points="3177.2 1297.51 3191.93 1297.51 3191.93 1278.95 3211.36 1286.27 3202.76 1271.62 3213.9 1274.17 3211.04 1263.66 3242.24 1272.26 3237.15 1263.66 3277.27 1267.48 3246.38 1242.33 3269.94 1250.61 3265.49 1242.33 3294.78 1250.61 3283.32 1234.69 3252.75 1215.58 3303.38 1223.22 3286.82 1204.76 3258.48 1180.56 3279.81 1177.69 3269.94 1166.55 3246.38 1152.22 3272.49 1155.09 3259.75 1138.85 3233.96 1126.75 3254.66 1126.75 3250.52 1121.02 3242.56 1114.93 3263.57 1121.02 3253.7 1107.32 3230.46 1087.26 3257.21 1087.26 3235.55 1066.57 3213.59 1050.96 3223.77 1050.96 3227.28 1047.14 3237.78 1048.42 3227.28 1037.59 3206.26 1027.4 3234.28 1030.9 3200.53 1000.66 3225.05 1002.57 3213.27 991.74 3193.53 981.23 3216.77 986.01 3190.34 950.03 3206.31 943.98 3189.48 937.87 3187.29 910.45 3178.88 899.72 3178.88 918.51 3172.19 927.42 3181.89 932.28 3167.41 944.3 3177.92 945.89 3161.05 964.36 3175.69 964.99 3159.14 986.65 3175.69 985.37 3153.09 1005.11 3146.72 1013.39 3162.32 1012.76 3139.39 1028.99 3150.22 1031.54 3170.28 1021.03 3141.31 1046.83 3156.27 1050.65 3130.16 1064.66 3121.25 1076.12 3150.22 1073.25 3142.26 1080.58 3121.25 1087.58 3118.7 1097.77 3142.9 1094.59 3131.12 1104.78 3112.01 1112.74 3145.76 1116.56 3100.87 1136.62 3109.78 1138.85 3129.21 1135.34 3106.28 1157.31 3083.36 1179.28 3118.06 1171.01 3091.63 1188.84 3102.78 1191.7 3085.9 1207.3 3119.02 1208.26 3075.71 1229.91 3111.69 1227.68 3068.39 1265.25 3090.68 1263.34 3121.88 1256.66 3114.24 1280.86 3156.59 1261.12 3153.72 1281.81 3176.65 1268.44 3177.2 1297.51"/><polygon id="tree2" class="cls-25" points="2997.95 1298.35 3007.62 1298.35 3007.62 1276.59 3010.28 1279.49 3014.88 1271.27 3031.32 1288.43 3033.98 1282.39 3050.91 1284.81 3035.19 1266.43 3054.05 1277.31 3054.05 1267.88 3075.09 1266.43 3049.46 1252.4 3039.3 1244.67 3055.5 1250.71 3055.02 1244.67 3067.35 1247.33 3056.47 1232.82 3025.03 1215.41 3058.4 1217.82 3046.55 1204.52 3019.71 1185.66 3044.62 1193.64 3038.82 1185.66 3056.23 1187.36 3043.17 1178.65 3021.16 1167.53 3045.59 1167.53 3038.33 1159.3 3015.36 1150.12 3035.43 1150.12 3029.14 1143.1 3014.64 1133.43 3028.66 1133.43 3011.97 1116.26 3023.34 1116.26 3011.01 1103.44 3023.82 1102.23 3006.66 1088.21 3014.39 1086.03 3003.03 1068.86 3000.37 1044.92 2997.95 1063.3 2988.52 1078.54 2994.56 1079.02 2990.21 1085.31 2997.95 1085.07 2977.15 1105.86 2995.53 1104.89 2979.09 1121.34 2988.03 1121.34 2970.38 1134.88 2976.67 1136.33 2988.28 1131.74 2984.17 1139.96 2970.38 1145.76 2961.19 1154.23 2981.99 1151.81 2959.26 1167.28 2950.8 1174.78 2981.99 1171.64 2966.27 1181.55 2961.43 1187.11 2986.1 1187.11 2943.3 1207.91 2933.63 1219.03 2977.88 1212.75 2947.17 1233.3 2941.12 1241.04 2955.15 1238.38 2953.21 1242.49 2975.46 1233.54 2966.27 1244.18 2940.88 1255.06 2930.72 1264.49 2953.7 1257.72 2947.89 1265.7 2974.25 1257.24 2958.53 1269.09 2945.96 1279.97 2973.77 1270.78 2964.82 1286.74 2987.07 1276.34 2992.15 1277.8 2988.52 1288.68 2999.16 1277.07 2997.95 1298.35"/><polygon id="tree2-2" data-name="tree2" class="cls-25" points="1703.08 1309.92 1712.76 1309.92 1712.76 1288.15 1715.41 1291.06 1720.01 1282.83 1736.45 1300 1739.11 1293.96 1756.04 1296.38 1740.32 1278 1759.18 1288.88 1759.18 1279.45 1780.22 1278 1754.59 1263.97 1744.43 1256.23 1760.64 1262.28 1760.15 1256.23 1772.48 1258.89 1761.6 1244.38 1730.17 1226.97 1763.54 1229.39 1751.69 1216.09 1724.85 1197.23 1749.75 1205.21 1743.95 1197.23 1761.36 1198.92 1748.3 1190.22 1726.3 1179.09 1750.72 1179.09 1743.47 1170.87 1720.49 1161.68 1740.57 1161.68 1734.28 1154.67 1719.77 1145 1733.79 1145 1717.11 1127.83 1728.47 1127.83 1716.14 1115.01 1728.96 1113.8 1711.79 1099.78 1719.53 1097.6 1708.16 1080.43 1705.5 1056.49 1703.08 1074.87 1693.65 1090.1 1699.7 1090.59 1695.34 1096.87 1703.08 1096.63 1682.29 1117.43 1700.66 1116.46 1684.22 1132.9 1693.17 1132.9 1675.52 1146.45 1681.8 1147.9 1693.41 1143.3 1689.3 1151.53 1675.52 1157.33 1666.33 1165.79 1687.12 1163.37 1664.39 1178.85 1655.93 1186.35 1687.12 1183.2 1671.4 1193.12 1666.57 1198.68 1691.23 1198.68 1648.43 1219.48 1638.76 1230.6 1683.01 1224.31 1652.3 1244.87 1646.26 1252.61 1660.28 1249.94 1658.35 1254.06 1680.59 1245.11 1671.4 1255.75 1646.01 1266.63 1635.86 1276.06 1658.83 1269.29 1653.03 1277.27 1679.38 1268.81 1663.67 1280.66 1651.09 1291.54 1678.9 1282.35 1669.95 1298.31 1692.2 1287.91 1697.28 1289.36 1693.65 1300.24 1704.29 1288.64 1703.08 1309.92"/><polygon id="tree3-3" data-name="tree3" class="cls-25" points="841.25 1304.59 864.72 1304.59 864.72 1275.02 895.67 1286.69 881.97 1263.35 899.73 1267.41 895.16 1250.67 944.88 1264.37 936.76 1250.67 1000.68 1256.76 951.47 1216.68 989.01 1229.87 981.91 1216.68 1028.59 1229.87 1010.32 1204.5 961.62 1174.06 1042.28 1186.24 1015.9 1156.82 970.75 1118.26 1004.74 1113.69 989.01 1095.94 951.47 1073.11 993.07 1077.67 972.78 1051.8 931.69 1032.52 964.66 1032.52 958.07 1023.39 945.38 1013.69 978.87 1023.39 963.14 1001.58 926.11 969.61 968.72 969.61 934.22 936.64 899.22 911.78 915.45 911.78 921.03 905.69 937.77 907.72 921.03 890.47 887.55 874.24 932.2 879.82 878.42 831.62 917.48 834.67 898.71 817.42 867.26 800.67 904.29 808.28 862.18 750.96 887.63 741.32 860.81 731.58 857.33 687.9 843.92 670.8 843.92 700.73 833.27 714.94 848.72 722.67 825.66 741.83 842.4 744.36 815.51 773.79 838.85 774.8 812.47 809.3 838.85 807.27 802.83 838.72 792.68 851.91 817.54 850.9 781.01 876.77 798.26 880.83 830.22 864.09 784.06 905.18 807.9 911.27 766.3 933.59 752.1 951.86 798.26 947.29 785.58 958.96 752.1 970.12 748.04 986.36 786.59 981.28 767.82 997.52 737.38 1010.2 791.16 1016.29 719.63 1048.25 733.83 1051.8 764.78 1046.22 728.25 1081.22 691.72 1116.23 747.02 1103.04 704.91 1131.45 722.67 1136.02 695.78 1160.87 748.54 1162.4 679.55 1196.89 736.88 1193.34 667.88 1253.21 703.39 1250.16 753.11 1239.51 740.93 1278.07 808.41 1246.61 803.84 1279.59 840.37 1258.28 841.25 1304.59"/><polygon id="tree2-3" data-name="tree2" class="cls-25" points="3954.6 1291.96 3976.08 1291.96 3976.08 1243.63 3981.98 1250.08 3992.19 1231.82 4028.7 1269.94 4034.61 1256.52 4072.2 1261.89 4037.29 1221.08 4079.18 1245.24 4079.18 1224.3 4125.9 1221.08 4068.97 1189.93 4046.42 1172.75 4082.4 1186.17 4081.33 1172.75 4108.71 1178.66 4084.55 1146.44 4014.74 1107.78 4088.84 1113.14 4062.53 1083.61 4002.93 1041.72 4058.24 1059.45 4045.35 1041.72 4084.01 1045.48 4055.01 1026.15 4006.15 1001.45 4060.38 1001.45 4044.27 983.19 3993.26 962.79 4037.83 962.79 4023.87 947.22 3991.65 925.74 4022.8 925.74 3985.74 887.61 4010.98 887.61 3983.59 859.15 4012.05 856.47 3973.93 825.32 3991.11 820.49 3965.87 782.36 3959.97 729.2 3954.6 770.01 3933.66 803.84 3947.08 804.91 3937.41 818.88 3954.6 818.34 3908.42 864.52 3949.23 862.37 3912.71 898.89 3932.58 898.89 3893.38 928.96 3907.34 932.18 3933.12 921.98 3923.99 940.24 3893.38 953.12 3872.98 971.92 3919.16 966.55 3868.68 1000.91 3849.89 1017.56 3919.16 1010.58 3884.25 1032.6 3873.51 1044.95 3928.28 1044.95 3833.24 1091.13 3811.76 1115.83 3910.03 1101.87 3841.83 1147.51 3828.41 1164.69 3859.55 1158.79 3855.26 1167.92 3904.66 1148.05 3884.25 1171.68 3827.87 1195.84 3805.32 1216.78 3856.33 1201.75 3843.44 1219.47 3901.97 1200.67 3867.07 1226.98 3839.15 1251.15 3900.9 1230.74 3881.03 1266.18 3930.43 1243.1 3941.71 1246.32 3933.66 1270.48 3957.28 1244.71 3954.6 1291.96"/></g><g id="net"><g class="cls-26"><path class="cls-27" d="M2206,1323s3-2,7.48,0c0,2.72-.75,51.77-.75,51.77s-3,12.85,24.65,12.85h137.48s23.91,1.55,23.91-12.46-.74-51.38-.74-51.38,3-2,7.47,0v54.1s0,13.63-29.14,13.63H2232.88s-27.64-.39-27.64-15.57S2206,1323,2206,1323Z" transform="translate(0)"/></g><polygon class="cls-28" points="2402.33 1348.91 2402.49 1245.8 2394.27 1230.86 2377.83 1224.88 2232.88 1224.88 2215.7 1233.1 2208.22 1250.28 2209.36 1345.97 2230.64 1333.97 2376.34 1333.22 2390.53 1335.46 2402.33 1348.91"/><path class="cls-29" d="M2213.44,1349.65s-1.48-13.44,29.9-13.44h131.5s21-2.26,23.19,13.44c7.45,0,3-8.21,3-8.21s-1.5-14.2-29.14-12c-11.63,1-37.65,1.1-63.91,1-.9,0-.35-102.56-.35-102.56h-6s.44,102.53-.54,102.52c-33.81-.25-66-.91-66-.91s-18.68-1.49-24.65,14.2c-6.73,17.18,3,6,3,6" transform="translate(0)"/><path class="cls-27" d="M2206,1353.39s3,3.74,7.48,0c0-5.23-.75-99.37-.75-99.37s-3-24.66,24.65-24.66h137.48s23.91-3,23.91,23.91-.74,98.63-.74,98.63,3,3.73,7.47,0V1248s0-26.15-29.14-26.15H2232.88s-27.64.75-27.64,29.89S2206,1353.39,2206,1353.39Z" transform="translate(0)"/></g></g><g id="Layer_10" data-name="Layer 10"><rect class="cls-30" width="4378.66" height="2189.33"/></g></svg>