<svg xmlns="http://www.w3.org/2000/svg" viewBox="0 0 4378.66 2189.33"><title>front</title><g id="front"><path id="BACK" d="M4378.66,2065.42l-11.76-15.94-14.27,18.85v-13.25l-16.92,15.21-14.24-18.94-5.52,10.36v-20.89l-24.22,7.54-2.27-17.22L4277.74,2049l-8.66-6.63-27.52,32.07-18.85-20.35,8.66-36.17-24.45,19.87-14.27-11.46v33.88l-19.36-1-19.13-20.89-6.35,7.63v-10.69L4136.6,2053l-8.15-14.26-3.73,13-19.2.81-17.83-7.73-16.3,1.09-5.61-19.6-10.7,14.52-9-9.75L4025,2049.46l-19.87-15.78-12.23,31.83,9.09,22.34c-4.24,4.32-12.62,12.05-13.38,6.33-1-7.68,8.66-15.25,8.66-15.25l-18.34,6.35-12.23-16-14.26,18.85v-13.25l-16.93,15.21-14.24-18.94-5.52,10.36v-20.89l-24.22,7.54-2.27-17.22-11.72,17.83-8.66-6.62-27.52,32.06-18.85-20.34,8.66-36.18-24.45,19.87-14.27-11.46V2080l-19.36-1L3754,2058l-6.35,7.64V2055l-11.21,17.84-8.15-14.27-3.73,12.95-19.2.81-17.83-7.72-16.3,1.09-5.61-19.61-10.7,14.52-9-9.75-21,18.39L3605,2053.46l-12.23,31.82,1.44,3.54c-4.43,4.38-11.7,10.67-12.41,5.36-1-7.68,8.66-15.25,8.66-15.25l-18.34,6.35-12.23-16-14.26,18.85v-13.25l-16.93,15.21-14.24-18.94-5.52,10.36v-20.89l-24.22,7.54-2.27-17.22-11.72,17.83-8.66-6.62-27.52,32.06-18.85-20.34,8.66-36.18-24.45,19.87-14.27-11.46V2080l-19.36-1L3347.12,2058l-6.35,7.64V2055l-11.21,17.84-8.15-14.27-3.73,12.95-19.2.81-17.83-7.72-16.3,1.09-5.61-19.61-10.7,14.52-9-9.75L3218,2069.23l-19.87-15.77-9.13,23.76-16.84,5.82-12.23-16-14.26,18.85v-13.25l-16.93,15.2-14.24-18.93-5.52,10.35v-20.89l-24.22,7.55-2.27-17.23-11.72,17.84-8.66-6.63L3034.57,2092l-18.85-20.35,8.66-36.17-24.45,19.87-14.27-11.46v33.88l-19.36-1-19.13-20.89-6.35,7.63v-10.69l-11.2,17.83-8.16-14.26-3.73,12.95-19.19.8-17.84-7.72-16.3,1.09-5.61-19.6-10.7,14.51-9-9.74L2818,2067l-19.87-15.77-4.53,11.79-11.81,4.09-12.23-16-14.26,18.85v-13.25l-16.93,15.21-14.24-18.94-5.52,10.36v-20.89l-24.22,7.54-2.27-17.22-11.72,17.83-8.66-6.62L2644.25,2076l-18.85-20.35,8.66-36.17-24.45,19.87-14.27-11.46v33.88l-19.36-1-19.13-20.89-6.35,7.63V2036.8l-11.2,17.84-8.16-14.27-3.73,13-19.19.81-17.84-7.72-16.3,1.08-5.61-19.6-10.7,14.52-9-9.75-21.05,18.39-19.87-15.78-12.23,31.83,6.84,16.81c-2.68,2.91-14.34,15.09-15.24,8.3-1-7.68,8.66-15.25,8.66-15.25l-18.34,6.34-12.23-16L2351,2086.13v-13.25l-16.93,15.2-14.23-18.93-5.53,10.35v-20.89l-24.21,7.55-2.28-17.23-11.72,17.84-8.66-6.63L2240,2092.21l-18.85-20.35,8.66-36.17-24.45,19.87-14.27-11.46V2078l-19.36-1-19.13-20.89-6.34,7.63V2053L2135,2070.84l-8.16-14.26-3.73,13-19.19.8-17.84-7.72-16.3,1.09-5.61-19.6-10.69,14.51-9-9.74-21,18.38-19.87-15.77-11.66,30.36L1980.58,2067l-14.27,18.85v-13.25l-16.93,15.2-14.23-18.93-5.52,10.35v-20.89l-24.22,7.55-2.28-17.23-11.72,17.84-8.66-6.63L1855.24,2092l-18.85-20.35,8.66-36.17-24.46,19.87-14.26-11.46v33.88l-19.36-1-19.14-20.89-6.34,7.63v-10.69l-11.21,17.83-8.15-14.26-3.73,12.95-19.2.8-17.83-7.72-16.31,1.09-5.6-19.6-10.7,14.51-9-9.74-21,18.38-19.87-15.77-71.27,53.09c-.45-4.95-.9-8.53-.9-8.53s-14.77,16.58-15.79,8.9,8.66-15.25,8.66-15.25l-18.34,6.35-12.23-16-14.27,18.85v-13.25l-16.93,15.21-14.23-18.94L1458,2092v-20.89l-24.22,7.54-2.28-17.22-11.71,17.83-8.67-6.62-27.51,32.06-18.85-20.34,8.66-36.18L1349,2068l-14.26-11.46v33.88l-19.36-1-19.13-20.89-6.35,7.64v-10.7l-11.21,17.84-8.15-14.27-3.73,12.95-19.2.81-17.83-7.72-16.3,1.09-5.61-19.61-10.7,14.52-9-9.75-21.05,18.39L1147.21,2064l-10.58,27.52-8.94-11.73-14.27,18.85v-13.25l-16.93,15.21-14.23-18.94-5.52,10.36v-20.89l-24.22,7.54-2.28-17.22-11.72,17.83-8.66-6.62-27.51,32.06-18.85-20.34,8.66-36.18L967.7,2068l-14.26-11.46v33.88l-19.36-1L915,2068.54l-6.35,7.64v-10.7l-11.21,17.84-8.15-14.27L885.51,2082l-19.2.81-17.83-7.72-16.31,1.09-5.6-19.61-10.7,14.52-9-9.75-21.05,18.39L765.94,2064l-4.72,12.28c-.37-3.79-.7-6.35-.7-6.35s-14.77,16.58-15.79,8.9,8.66-15.25,8.66-15.25l-18.34,6.35-12.23-16-14.27,18.85v-13.25l-16.93,15.2-14.23-18.93-5.52,10.36V2045.2l-24.22,7.54-2.28-17.22-11.71,17.83-8.67-6.63-27.51,32.07-18.85-20.35,8.66-36.17-24.46,19.87-14.26-11.46v33.88l-19.36-1-19.13-20.89-6.35,7.63v-10.69l-11.21,17.83-8.15-14.26-3.73,13-19.2.8-17.83-7.72-16.3,1.09-5.61-19.6L411,2045.2l-9-9.75-21.05,18.39-19.87-15.78-7.29,19-10.86,14.35v-13.24L326,2073.35l-14.24-18.94-5.52,10.36v-20.89L282,2051.42l-2.27-17.22L268,2052l-8.66-6.62-27.52,32.06L213,2057.13l8.66-36.18-24.45,19.87-14.27-11.46v33.88l-19.36-1-19.13-20.89-6.35,7.64v-10.69l-11.2,17.83-8.16-14.27-3.73,13-19.19.81L78,2047.88,61.67,2049l-5.61-19.61-10.7,14.52-9-9.75-21,18.39L0,2042.58l1.55,71.1s270.63-1.77,362.94-5.31l2.69,6.63s362-2.37,391.46-7.11l13.41,33s307.69-2,378.82-6l2.45,6s389.27-2.55,393.34-7.64c.81-1,1.3-3.12,1.56-5.82l76.72.73s317.75-2.08,382.08-6.24l2.65,6.5s389.26-2.55,393.34-7.65c3.35-4.18,1.19-26.77.32-34.7l10.63,26.14s315.27-2.06,381.32-6.19l9,22.14s389.26-2.55,393.34-7.65a8.06,8.06,0,0,0,1.22-3.37l5.39,13.25s389.26-2.55,393.34-7.64c2.14-2.69,2-13,1.44-22.07l12.08,29.71s389.26-2.55,393.34-7.64c2.47-3.1,1.94-16.29,1.14-26.15l5.69,14s363.32.31,367.4-4.79m-1190.18-14.17c-3.25,2.41-6.22,3.58-6.66.29-.72-5.43,3.91-10.81,6.68-13.49l-2.62,6.82Z" style="fill:#04457a"/><path id="MID" d="M4280.28,2114.21l2-52-14.26,11.2-5.61-28.53-10.19,67.26L4237,2123.38s-.51-16.31,1-37.2,30.06-65.21,30.06-65.21c-36.18,12.22-49.93,74.38-49.93,74.38l-26.5,20.38-3.05-40.76c-10.07-25.4,9.68-79,9.68-79-30.06,17.83-30.57,74.39-30.57,74.39l-7.65-29.8-6.11,18.59-8.15-41.78-8.16,58.59-22.41-21.91,11.72,44.33-14.78,9.17-6.11-18.89-7.19,4.63v-28.64l-16.34,15.11-7.05-39.2-7.64,61.39-35.15,9.68v-23l12.73-8.9s-.77-8.37,25-41.5,2.55-18.34,2.55-18.34c-37.71,16.81-49.43,87.12-49.43,87.12l-17.32,2.55-6.11-44.33c-6.12-22.93,11.21-76.42,11.21-76.42-43.31,33.62-22.42,94.76-22.42,94.76l-9.68,28-12.23-23,12.23-48.1-22.42,31.84-2.55-66.24L3945,2076.5l-25-25.47,5.67,31.15c-35.72,10.82-47,57-47,57l2-52-14.26,11.21-5.61-28.53-10.19,67.25-15.28,11.21s-.51-16.3,1-37.19,30.07-65.22,30.07-65.22c-36.18,12.23-49.94,74.39-49.94,74.39L3790,2140.66,3787,2099.9c-10.06-25.41,9.68-79,9.68-79-30.06,17.84-30.57,74.39-30.57,74.39l-7.64-29.8-6.11,18.59-8.16-41.78-8.15,58.6L3713.61,2079l11.72,44.33-14.77,9.17-6.12-18.89-7.19,4.62v-28.63l-16.33,15.11-7.05-39.21-7.64,61.39-35.16,9.68v-23l12.74-8.9s-.77-8.38,25-41.51,2.54-18.34,2.54-18.34c-37.7,16.82-49.42,87.13-49.42,87.13l-17.32,2.55-6.12-44.33c-6.11-22.93,11.21-76.43,11.21-76.43-43.3,33.63-22.42,94.77-22.42,94.77l-9.68,28-12.22-23,12.22-48.11-22.41,31.84-2.55-66.24-4.19,32.12c-11.06,2.66-19.9,8.67-26.89,15.85l-3.06-3.13,1,5.36c-15.41,17.25-20.9,39.64-20.9,39.64l2-52-14.26,11.21-5.61-28.53-10.19,67.25-15.28,11.21s-.51-16.3,1-37.19,30.07-65.22,30.07-65.22c-36.18,12.23-49.94,74.39-49.94,74.39l-26.49,20.38-3.06-40.76c-10.06-25.41,9.68-79,9.68-79-30.06,17.84-30.57,74.39-30.57,74.39l-7.64-29.8-6.11,18.59-8.16-41.78-8.15,58.6-22.42-21.91,11.72,44.33-14.77,9.17-6.12-18.89-7.19,4.62v-28.63l-16.33,15.11-7.05-39.21-7.64,61.39-35.16,9.68v-23l12.74-8.9s-.77-8.38,25-41.51,2.54-18.34,2.54-18.34c-37.7,16.81-49.42,87.13-49.42,87.13l-17.32,2.54-6.12-44.32c-6.11-22.93,11.21-76.43,11.21-76.43-43.3,33.63-22.41,94.77-22.41,94.77l-9.69,28-12.22-23,6.91-27.2a72.16,72.16,0,0,1,6.15-5.37,51.35,51.35,0,0,0-5.13,1.34l4.29-16.88-15.46,22a57.5,57.5,0,0,0-7.14,5.09l-2.36-61.46-9.17,70.32-25-25.48,3.1,17-6.85,5.38-5.61-28.53-10.19,67.25-15.28,11.21s-.51-16.3,1-37.19,30.06-65.22,30.06-65.22c-36.18,12.23-49.93,74.39-49.93,74.39l-26.5,20.38-3.06-40.76c-10.06-25.41,9.68-79,9.68-79-30.06,17.84-30.57,74.39-30.57,74.39l-7.64-29.8-6.11,18.59-8.15-41.78-8.16,58.6-22.42-21.91,11.72,44.33-14.77,9.17-6.12-18.89-7.18,4.62v-28.63L2949,2086.54l-7.05-39.21-7.64,61.39-35.16,9.68v-23l12.74-8.9s-.77-8.38,25-41.51,2.55-18.34,2.55-18.34c-37.71,16.81-49.43,87.13-49.43,87.13l-17.32,2.54-6.11-44.32c-6.12-22.93,11.21-76.43,11.21-76.43-43.31,33.63-22.42,94.77-22.42,94.77l-9.68,28-12.23-23,12.23-48.11-22.42,31.84-2.55-66.24-9.17,70.32-29.79-24.11c2.87-2.66,4.82-4.12,4.82-4.12-39.23,8.15-51.46,58.08-51.46,58.08l2-52-14.27,11.21-5.6-28.53-10.19,67.25-15.29,11.21s-.5-16.3,1-37.19,30.06-65.22,30.06-65.22c-36.17,12.23-49.93,74.39-49.93,74.39l-26.49,20.38-3.06-40.76c-10.06-25.4,9.68-79,9.68-79-30.06,17.83-30.57,74.38-30.57,74.38l-7.64-29.8-6.12,18.6-8.15-41.78-8.15,58.59L2570,2053l11.72,44.33-14.77,9.17-6.12-18.89-7.19,4.62v-28.63l-16.34,15.11-7-39.21-7.64,61.39-35.16,9.68v-23l12.74-8.9s-.77-8.37,25-41.5,2.54-18.35,2.54-18.35c-37.7,16.82-49.42,87.13-49.42,87.13l-17.32,2.55-6.12-44.33c-6.11-22.93,11.21-76.43,11.21-76.43-43.31,33.63-22.42,94.77-22.42,94.77l-9.68,28-12.22-23,12.22-48.11-22.41,31.84-2.55-66.23-9.17,70.31-25-25.48,1.94,10.68c-38.76,8.53-50.87,58-50.87,58l2-52-14.27,11.21-5.61-28.53-10.19,67.26-15.28,11.21s-.51-16.31,1-37.2,30.06-65.22,30.06-65.22c-36.18,12.23-49.93,74.39-49.93,74.39l-26.5,20.38-3-40.76c-10.07-25.4,9.68-79,9.68-79-30.06,17.83-30.57,74.39-30.57,74.39l-7.65-29.8-6.11,18.59-8.15-41.78-8.15,58.59-22.42-21.91,11.72,44.33-14.78,9.17-6.11-18.89-7.19,4.62V2069l-16.34,15.11-7-39.2-7.65,61.39-35.15,9.68v-23l12.73-8.9s-.77-8.37,25-41.5,2.55-18.34,2.55-18.34c-37.71,16.81-49.42,87.12-49.42,87.12l-17.33,2.55-6.11-44.33c-6.12-22.93,11.21-76.42,11.21-76.42-43.31,33.62-22.42,94.76-22.42,94.76l-9.68,28-12.23-23,12.23-48.1-22.42,31.83-2.55-66.23-9.17,70.31-51.77-3.11c2-1.79,3.31-2.75,3.31-2.75a50.55,50.55,0,0,0-8.24,2.45l-16.62-1,9.93,4.18c-27.49,15.52-36.53,52.45-36.53,52.45l2-52-14.26,11.21-5.61-28.53L1862.76,2131l-15.28,11.21s-.51-16.3,1-37.19,30.06-65.22,30.06-65.22c-36.18,12.23-49.93,74.39-49.93,74.39l-26.5,20.38-3.05-40.76c-10.07-25.4,9.68-79,9.68-79-30.06,17.83-30.57,74.38-30.57,74.38l-7.65-29.8-6.11,18.6-8.15-41.78-8.16,58.59L1725.71,2073l11.71,44.33-14.77,9.17-6.11-18.89-7.19,4.62v-28.63L1693,2098.66l-7-39.21-7.64,61.39-35.15,9.68v-23l12.73-8.9s-.77-8.37,25-41.5,2.55-18.35,2.55-18.35c-37.71,16.82-49.43,87.13-49.43,87.13l-17.32,2.55-6.11-44.33c-6.12-22.93,11.21-76.43,11.21-76.43-43.31,33.63-22.42,94.77-22.42,94.77l-9.68,28-12.23-23,12.23-48.11-22.42,31.84-2.55-66.23-9.17,70.31-25-25.48.94,5.17c-38.43,8.79-50.46,57.86-50.46,57.86l2-52-14.27,11.21-5.6-28.53L1453,2130.88l-15.29,11.21s-.51-16.3,1-37.19,30.06-65.22,30.06-65.22c-36.17,12.23-49.93,74.39-49.93,74.39l-26.49,20.38-3.06-40.76c-10.06-25.4,9.68-79,9.68-79-30.06,17.83-30.57,74.38-30.57,74.38l-7.64-29.8-6.12,18.6-8.15-41.78-8.15,58.59L1316,2072.8l11.72,44.33-14.78,9.17-6.11-18.89-7.19,4.62V2083.4l-16.34,15.11-7-39.21-7.64,61.39-35.16,9.69v-23l12.74-8.9s-.77-8.37,25-41.5,2.55-18.35,2.55-18.35c-37.7,16.82-49.42,87.13-49.42,87.13l-17.32,2.55-6.12-44.33c-6.11-22.93,11.21-76.43,11.21-76.43-43.31,33.63-22.42,94.77-22.42,94.77l-9.68,28-12.23-23,12.23-48.11-22.42,31.84-2.54-66.23-9.17,70.31-25-25.48,8.15,44.84,1.86,2.91a107.74,107.74,0,0,0-14,30.73l2-52-14.27,11.21-5.6-28.53-10.19,67.25-15.29,11.21s-.51-16.3,1-37.19S1104.6,2055,1104.6,2055c-36.17,12.23-49.93,74.39-49.93,74.39l-26.5,20.38-3.05-40.76c-10.06-25.41,9.68-79,9.68-79-30.06,17.84-30.57,74.39-30.57,74.39l-7.65-29.8-6.11,18.59-8.15-41.78-8.15,58.6-22.42-21.91,11.72,44.32-14.78,9.18-6.11-18.89-7.19,4.62V2098.7l-16.34,15.11-7-39.21L904.36,2136l-35.15,9.68v-23l12.74-8.9s-.78-8.38,25-41.51,2.55-18.34,2.55-18.34c-37.7,16.81-49.42,87.13-49.42,87.13l-17.33,2.54-6.11-44.32c-6.11-22.93,11.21-76.43,11.21-76.43-43.31,33.63-22.42,94.77-22.42,94.77l-9.68,28-12.23-23,12.23-48.11-4.61,6.54a52.27,52.27,0,0,0-18.46,8.31l-1.9-49.25-7.48,57.37a78.34,78.34,0,0,0-6.6,7.93l-14.06-14.34.16-4.15-2.38,1.88-3.77-3.85,1.08,6-9.19,7.22-5.61-28.53-10.19,67.25-15.28,11.21s-.51-16.3,1-37.19,30.07-65.22,30.07-65.22c-36.18,12.23-49.94,74.39-49.94,74.39l-26.49,20.38L669,2099.75c-10.06-25.41,9.68-79,9.68-79-30.06,17.83-30.57,74.38-30.57,74.38l-7.64-29.8L634.37,2084l-8.16-41.78-8.15,58.6-22.42-21.91,11.72,44.33-14.77,9.17-6.12-18.89-7.19,4.62v-28.63L563,2104.57l-7.05-39.21-7.64,61.39-35.16,9.68v-23l12.74-8.9s-.77-8.38,25-41.51,2.54-18.34,2.54-18.34c-37.7,16.82-49.42,87.13-49.42,87.13l-17.32,2.55-6.12-44.33c-6.11-22.93,11.21-76.43,11.21-76.43-43.3,33.63-22.41,94.77-22.41,94.77l-9.69,28-12.22-23,12.22-48.11-19.53,27.74c1.62-27.19,27.95-46.82,27.95-46.82-13.8,2.86-24.26,10.9-32,20.12L434.64,2031l-5.94,45.56a109.43,109.43,0,0,0-9.17,18.69l-2.51-2.57,1.58-40.26-14.27,11.21-5.6-28.53-10.19,67.25-15.29,11.21s-.51-16.3,1-37.19,30.06-65.22,30.06-65.22c-36.17,12.23-49.93,74.39-49.93,74.39l-26.5,20.38-3-40.76c-10.06-25.41,9.68-79,9.68-79C304.47,2004,304,2060.54,304,2060.54l-7.65-29.8-6.11,18.59-8.15-41.78-8.15,58.6-22.42-21.91,11.72,44.32-14.78,9.18-6.11-18.89-7.19,4.62v-28.63L218.78,2070l-7-39.21-7.65,61.39-35.15,9.68v-23l12.74-8.9s-.78-8.38,25-41.51,2.55-18.34,2.55-18.34c-37.7,16.81-49.42,87.13-49.42,87.13l-17.33,2.54-6.11-44.32c-6.11-22.93,11.21-76.43,11.21-76.43-43.31,33.63-22.42,94.77-22.42,94.77l-9.68,28-12.23-23,12.23-48.11L93,2062.58l-2.55-66.24-9.17,70.32-25-25.48L64.49,2086l21.4,33.47,322.49-.33.27,1.48,21.4,33.47,342.9-.35a5.65,5.65,0,0,0,6.13-1.49l7.08,11.08,342.9-.35s11.21,5.09,11.21-23.44a43.82,43.82,0,0,1,.5-6.53l9.6,15,342.9-.35s11.21,5.09,11.21-23.44c0-25.48,22.33-44.85,27.11-48.71l7.13,39.18,21.4,33.47,342.89-.35s11.21,5.09,11.21-23.44c0-17.8,10.91-32.62,19.12-41.26l40.56,17.06,21.4,33.47,342.9-.35s11.2,5.1,11.2-23.44c0-26.23,23.71-43.83,27.53-46.85l6.12,31.72,21.4,33.47,342.9-.35s11.21,5.09,11.21-23.44c0-20.33,14.22-36.77,22.4-44.55l13.78,42.72,21.39,33.47,342.9-.35s3.83,1.73,7-2.53l1.83,2.88,342.9-.35s11.21,5.09,11.21-23.44a45.43,45.43,0,0,1,1.21-10.33l3.42,18.83,21.4,33.47,342.9-.35s11.21,5.09,11.21-23.44c0-21.74,16.25-39,24-46l2.08,11.42,21.4,33.47,342.89-.35s11.21,5.1,11.21-23.44,28-49.42,28-49.42C4292.5,2064.27,4280.28,2114.21,4280.28,2114.21ZM760.72,2139l1-25.74,2.69,14.76A91.79,91.79,0,0,0,760.72,2139Zm32.4-37a88,88,0,0,1,17-19.39l-16.78,23.83ZM3146.81,2121l.65-16.81,3.3,5.16A93.61,93.61,0,0,0,3146.81,2121Zm396.63-19.52-14.23-14.53a86.52,86.52,0,0,1,19.08-22.65Z" style="fill:#003761"/><path id="FRONT_" data-name="FRONT\" d="M4378.66,2066.87l-2.07-1.4-1.74-17.09c.76,7.52-18.84,18.5-18.84,18.5,6.13-14.44-2.16-21.19-2.16-21.19-12,17.8-47.62,20.75-47.62,20.75-5.56-7,2.76-20.32,2.76-20.32-15.59,3-28,23.58-28,23.58-10-3.13-7-46.91-7-46.91-24,1.76-38,46.66-38,46.66-4.67-12-7.34-61.72-7.34-61.72-24.13,7.3-27,56.93-27,56.93-1.74-17.09-28.36-27.5-28.36-27.5,5.9,10.45,3.9,38.29,3.9,38.29-6.53-16.61-78.37-55.9-78.37-55.9l41,54.31-26.87,22,14.51-27.05L4096,2084.43l12.63-26.43-34,19.63,22.65-28.56c-21.2,2.16-49.37,37.51-49.37,37.51-8.86-19.13,9.18-59,9.18-59-37.35,26.61-44.73,62.59-44.73,62.59.92-18-6.89-58.78-6.89-58.78,3.85,10.66-16.83,63.28-16.83,63.28-2.86-28-61.71-49.66-61.71-49.66,8.26,6.54,15.93,16.92,22.64,28.29-23.18,2.07-47.71,32.87-47.71,32.87-3.43-12.37,5.07-61.12,5.07-61.12-24.74,4.82-38.74,52.87-38.74,52.87,0-17.18-5.49-56.82-5.49-56.82,4.81,11-19.94,65.07-19.94,65.07-4.81-17.19-54.29-59.79-54.29-59.79l33,58.41-44.68,15.12,35.93-22.35-51.73,9.29,26.91-32.31L3740.29,2098l5.1-35.6c-21.31,0-32.59,41.78-32.59,41.78-6.87-19.93,15.12-57.72,15.12-57.72-39.86,22.67-50.86,57.72-50.86,57.72,2.75-17.86-23-61.2-23-61.2,2.75,11-1,63.27-1,63.27,0-28.18-40.34-32.69-40.34-32.69,13.55,13.19,8,15.48,14.75,36.23a90,90,0,0,1-11.37,6.08c7.56-13.75,0-21.31,0-21.31-13.74,16.5-27.08,24-27.08,24-4.81-7.56-17.59-28.17-17.59-28.17-15.81,1.37-30.24,20.62-30.24,20.62-9.62-4.13,6.19-37.8,6.19-37.8-24.06-.69-50.86,33-50.86,33-3.44-12.37,22-59.79,22-59.79-24.74,4.81-55.67,51.54-55.67,51.54,0-17.18-25.42-30.24-25.42-30.24,4.81,11,0,38.49,0,38.49-4.81-17.19-54.3-59.79-54.3-59.79l33,58.41-44.67,15.12,17.18-25.43-33,12.37,4.81-15.8L3335,2098l25.42-26.12c-21.3,0-52.91,32.3-52.91,32.3-6.88-19.93,15.12-57.72,15.12-57.72-39.87,22.67-50.86,57.72-50.86,57.72,2.75-17.86-24.06-35.73-24.06-35.73,2.75,11,0,37.8,0,37.8,0-28.18-56.35-55.67-56.35-55.67,8.85,8.61,16.36,22.37,22.4,36.66-6,5.44-16.75,10.11-16.75,10.11,7.56-13.74,0-21.3,0-21.3-13.74,16.49-49.48,15.81-49.48,15.81-4.81-7.56,4.81-19.93,4.81-19.93-15.8,1.37-30.24,20.61-30.24,20.61-9.62-4.12,6.19-37.8,6.19-37.8-24.05-.68-50.86,33-50.86,33-3.43-12.37,22-59.79,22-59.79-24.75,4.81-55.67,51.55-55.67,51.55,0-17.19-25.43-30.24-25.43-30.24,4.81,11,0,38.48,0,38.48-4.81-17.18-54.29-59.79-54.29-59.79l33,58.42-44.67,15.12L2969.5,2076l-33,12.37,4.81-15.81-25.43,6.88,25.43-26.12c-21.31,0-52.92,32.3-52.92,32.3-6.87-19.93,15.12-57.73,15.12-57.73-39.86,22.68-50.86,57.73-50.86,57.73,2.75-17.87-24.05-35.74-24.05-35.74,2.75,11,0,37.8,0,37.8,0-28.17-56.36-55.66-56.36-55.66,12.39,12,22.17,34.22,28.94,53.79-5.48,6-18.13,11.49-18.13,11.49,7.56-13.74,0-21.3,0-21.3-13.75,16.49-49.48,15.81-49.48,15.81-4.81-7.56,4.81-19.93,4.81-19.93-15.81,1.37-30.24,20.61-30.24,20.61-9.62-4.12,6.18-37.8,6.18-37.8-24.05-.68-50.85,33-50.85,33-3.44-12.37,22-59.79,22-59.79-24.74,4.81-55.67,51.55-55.67,51.55,0-17.19-25.43-30.24-25.43-30.24,4.81,11,0,38.48,0,38.48-4.81-17.18-54.29-59.79-54.29-59.79l33,58.42-44.67,15.12,17.18-25.43-33,12.37,4.81-15.81-25.43,6.88,25.43-26.12c-21.3,0-52.92,32.3-52.92,32.3-6.87-19.93,15.12-57.73,15.12-57.73-39.86,22.68-50.85,57.73-50.85,57.73,2.75-17.87-24.06-35.74-24.06-35.74,2.75,11,0,37.8,0,37.8,0-28.17-56.35-55.66-56.35-55.66,13.25,12.89,23.52,37.36,30.31,57.84a86.22,86.22,0,0,1-13.39,7.44c7.56-13.74,0-21.3,0-21.3-13.75,16.49-49.48,15.81-49.48,15.81-4.81-7.56,4.81-19.93,4.81-19.93-15.81,1.37-30.24,20.61-30.24,20.61-9.62-4.12,6.18-37.8,6.18-37.8-24.05-.68-50.85,33-50.85,33-3.44-12.37,22-59.79,22-59.79-24.74,4.81-55.67,51.55-55.67,51.55,0-17.19-25.43-30.24-25.43-30.24,4.81,11,0,38.48,0,38.48-4.81-17.18-54.29-59.79-54.29-59.79l33,58.42-44.67,15.12,17.18-25.43-33,12.37,4.81-15.81-25.43,6.88,25.43-26.12c-21.3,0-52.92,32.3-52.92,32.3-6.87-19.93,15.12-57.73,15.12-57.73-39.86,22.68-50.85,57.73-50.85,57.73,2.74-17.87-7.31-46.21-7.31-46.21,2.75,11-16.75,48.27-16.75,48.27,0-28.17-24.13-66.85-24.13-66.85,17.15,16.68-2.93,63.92,3.16,85.63-6.09,5.12-15.87,9.36-15.87,9.36,7.56-13.75-9.17-31.79-9.17-31.79-13.74,16.49-40.32,26.29-40.32,26.29-4.81-7.56,4.81-19.93,4.81-19.93-15.8,1.37-30.23,20.62-30.23,20.62-9.63-4.13-13.46-61.19-13.46-61.19-24.06-.69-31.22,56.38-31.22,56.38-3.43-12.37-9.66-73.48-9.66-73.48-19.33,6-24,65.23-24,65.23,0-17.18-25.51-46.64-25.51-46.64,4.82,11,.08,54.89.08,54.89-4.81-17.19-30.84-68.27-30.84-68.27l-3.71,63.18-31.42,18.83,17.18-25.43-33,12.37,4.81-15.8L1689,2098l7.64-38.85c-21.3,0-35.13,45-35.13,45-6.87-19.93,9.21-65.46,9.21-65.46-39.86,22.68-45,65.46-45,65.46,2.75-17.86-24-35.73-24-35.73,2.75,11,0,37.8,0,37.8,0-28.18-31.7-59.79-31.7-59.79,13.54,13.17-.7,42.54,6.09,63.27a11.87,11.87,0,0,0-2.19-3.58c-13.75,16.5-49.48,15.81-49.48,15.81-4.81-7.56,4.81-19.93,4.81-19.93-15.81,1.38-30.24,20.62-30.24,20.62-9.62-4.12,6.18-37.8,6.18-37.8-24.05-.69-50.85,33-50.85,33-3.44-12.37,22-59.79,22-59.79-24.74,4.81-55.67,51.54-55.67,51.54,0-17.18-25.43-30.24-25.43-30.24,4.81,11,0,38.49,0,38.49-4.81-17.18-54.29-59.79-54.29-59.79l33,58.41-44.67,15.12,17.18-25.43-33,12.38,4.81-15.81-25.43,6.87,25.43-26.11c-21.3,0-52.92,32.3-52.92,32.3-6.87-19.93,15.12-57.73,15.12-57.73-39.86,22.68-50.85,57.73-50.85,57.73,2.74-17.87-24.06-35.74-24.06-35.74,2.75,11,0,37.8,0,37.8,0-28.18-49.27-68-49.27-68,12.13,11.81-12,46.14-5.2,65.41C1136,2129.15,1130.6,2128,1130.6,2128c-4.81-7.56,4.81-19.93,4.81-19.93-15.81,1.37-30.24,20.61-30.24,20.61-9.62-4.12,6.19-37.79,6.19-37.79-24.06-.69-50.86,33-50.86,33-3.44-12.37,22-59.79,22-59.79-24.74,4.81-55.66,51.55-55.66,51.55,0-17.19-25.43-30.24-25.43-30.24,4.81,11,0,38.48,0,38.48-4.81-17.18-54.3-59.79-54.3-59.79l33,58.42-44.67,15.12,17.18-25.43-33,12.37,4.82-15.81L899,2115.65l25.43-26.12c-21.31,0-52.92,32.3-52.92,32.3-6.88-19.93,15.12-57.73,15.12-57.73-39.86,22.68-50.86,57.73-50.86,57.73,2.75-17.87-24-35.74-24-35.74,2.75,11,0,37.8,0,37.8,0-28.17-56.36-55.66-56.36-55.66,11.83,11.5,21.27,32.22,28,51.1l-9.68-2.83v-17.18c0,7.56-20.62,16.5-20.62,16.5,7.56-13.75,0-21.31,0-21.31-13.74,16.5-49.48,15.81-49.48,15.81-4.81-7.56,4.81-19.93,4.81-19.93-15.81,1.37-30.24,20.62-30.24,20.62-9.62-4.13,6.19-37.8,6.19-37.8-24.06-.69-50.86,33-50.86,33-3.44-12.37,22-59.79,22-59.79-24.74,4.81-55.66,51.54-55.66,51.54,0-17.18-25.43-30.24-25.43-30.24,4.81,11,0,38.49,0,38.49-4.81-17.19-54.3-59.79-54.3-59.79l33,58.41-44.67,15.12,17.18-25.43-33,12.37,4.82-15.8L472,2098l25.43-26.12c-21.31,0-52.92,32.3-52.92,32.3-6.88-19.93,15.12-57.72,15.12-57.72a118.43,118.43,0,0,0-43,41.46l-6.1-1.78v-17.18c0,4.11-6.08,8.62-11.64,11.88a76.85,76.85,0,0,0-5.68-5.63c.55-7.2-3.3-11.06-3.3-11.06a28.74,28.74,0,0,1-4.86,4.54l-.35-.24c0,.13.06.28.09.42-5,3.67-11.27,6.13-17.5,7.77a158.52,158.52,0,0,0-22.13-16.52l.08-.09-.19,0c-9.38-5.89-16.71-9.47-16.71-9.47A70.46,70.46,0,0,1,337.6,2062c-12.53,5.23-22.6,18.65-22.6,18.65-9.62-4.13,6.18-37.8,6.18-37.8-24.05-.69-50.85,33-50.85,33-3.44-12.37,22-59.8,22-59.8-24.74,4.82-55.67,51.55-55.67,51.55,0-17.18-25.43-30.24-25.43-30.24,4.81,11,0,38.49,0,38.49-4.81-17.19-54.29-59.8-54.29-59.8l33,58.42-44.67,15.12,17.18-25.43-33,12.37,4.81-15.8-25.43,6.87,25.43-26.12c-21.3,0-52.92,32.3-52.92,32.3C74.46,2053.79,96.45,2016,96.45,2016c-39.86,22.68-50.85,57.73-50.85,57.73,2.74-17.86-24.06-35.73-24.06-35.73,2.75,11,0,37.8,0,37.8,0-28.18-21.54-33.21-21.54-33.21v70.73l359.9-1.1c5.43,17,8.3,30.41,8.3,30.41H773.68l12.24-15.81c6.08,18.47,9.3,33.51,9.3,33.51H1200.7l4.73-6.11h389.08l9-11.59h387.19l14.34-18.51h390.88l1.79-2.33c.35,1.5.53,2.33.53,2.33h405.48l6.45-8.33c1.31,5.18,2,8.33,2,8.33H3217.6l6.42-8.29c4.7,15.27,7.17,26.8,7.17,26.8H4042l14.09-18.2,322.58-32.91Zm-4038.23,13c-2.37-3.72-1.25-8.59.51-12.59,2.29,3.9,4.44,8.07,6.46,12.37C343.16,2080,340.43,2079.91,340.43,2079.91Zm841.81,48.77c.35,1.14.69,2.26,1,3.35-1.9.94-3.17,1.48-3.17,1.48A30,30,0,0,0,1182.24,2128.68Zm394.55-16.81c1.4,4.38,2.63,8.53,3.69,12.27-3.65,2-6.59,3.27-6.59,3.27C1577.58,2120.7,1577.66,2115.47,1576.79,2111.87ZM2803.69,2098v-4.73q.86,2.67,1.62,5.21Zm413.91,0v-1.07l.45,1.2Zm728.87,13c-7.82-3.35,1.14-26.2,4.78-34.66,3.79,6.68,7.25,13.59,10.29,20.2A74,74,0,0,0,3946.47,2111Z" style="fill:#002038"/><polygon id="FRONT_FRONT" data-name="FRONT FRONT" points="0 2189.33 0 2058 993.45 2125.46 2663.49 2087.68 3672.13 2125.46 4378.66 2059.1 4378.66 2189.33 0 2189.33" style="fill:#002038"/></g><g id="Layer_10" data-name="Layer 10"><rect width="4378.66" height="2189.33" style="fill:none"/></g></svg>