<svg xmlns="http://www.w3.org/2000/svg" viewBox="0 0 4378.66 2189.33"><title>hockey player</title><g id="player"><path id="stick" d="M2102,1303.27s14-3.81,18.46-6.13,7.4-4.4,19-18.35,15.24-26.66,19-33.72,11.06-1.74,11.06-1.74,4.57,3.33,5.31,8.07-3.67,12.71-8.75,21.6-18.22,23.08-26.7,30.89-19.79,8-19.79,8l-418.35,9.82-1.49-9.47Z" transform="translate(0)" style="fill:#333"/><polygon id="grip" points="1700.31 1311.29 1755.9 1309.84 1756.06 1321.14 1701.81 1322.17 1700.31 1311.29" style="fill:#e3e3e3"/><path id="blade" d="M2122.8,1295.8c3.47-2.15,7.14-5.63,16.57-17,10.27-12.39,14.32-23.79,17.72-31.13l17.26,8c-1.19,4.64-4.6,10.75-8.38,17.37-5.07,8.89-18.22,23.08-26.7,30.89a27.86,27.86,0,0,1-4.88,3.57Z" transform="translate(0)" style="fill:#e3e3e3"/><g id="grip-2" data-name="grip"><polygon points="1728.57 1310.55 1737.17 1310.33 1744.24 1321.37 1735.31 1321.54 1728.57 1310.55" style="fill:#c9c9c9"/><polygon points="1756.06 1321.14 1753.96 1321.18 1746.34 1310.09 1755.9 1309.84 1756.06 1321.14" style="fill:#c9c9c9"/><polygon points="1712.55 1310.97 1721.25 1310.74 1727.96 1321.67 1719.52 1321.83 1712.55 1310.97" style="fill:#c9c9c9"/><polygon points="1700.87 1311.27 1705.71 1311.14 1712.65 1321.96 1706.46 1322.08 1700.87 1311.27" style="fill:#c9c9c9"/></g><g id="tape"><path d="M2157.09,1247.66l17.26,8c-.21.83-.52,1.72-.86,2.65l-19.54-3.56C2155.13,1252.1,2156.13,1249.71,2157.09,1247.66Z" transform="translate(0)" style="fill:#efefef"/><path d="M2147.48,1267.34c1.31-2.19,2.46-4.3,3.48-6.32l19.52,3.82c-1,1.86-2,3.81-3.18,5.82Z" transform="translate(0)" style="fill:#efefef"/><path d="M2130.89,1288.61c1.33-1.44,2.86-3.17,4.63-5.24l18.58,5.25c-1.49,1.69-3,3.37-4.56,5Z" transform="translate(0)" style="fill:#efefef"/><path d="M2123.55,1295.31a29.7,29.7,0,0,0,3.64-2.94l17.33,6.46c-1.62,1.62-3.16,3.11-4.6,4.45Z" transform="translate(0)" style="fill:#efefef"/><path d="M2159,1282.78l-19.49-4.19q2.27-2.76,4.15-5.45l19.48,4.19C2161.94,1279.06,2160.55,1280.89,2159,1282.78Z" transform="translate(0)" style="fill:#efefef"/></g><g id="yntR8N.tif"><path d="M1687.32,1217.64l3.74-7.53c.59-1.17,1.21-2.33,1.81-3.5l7.42-5.26,0,0,2.49-.82,1.85-.48.07,0c4.37-3.06,8.85-5.72,14.52-3.79,4.44-1.69,8.87-3.41,13.32-5a6.15,6.15,0,0,1,3.19-.61c3.47.75,6.69,0,10.12-.53,9.47-1.42,19.06-2,28.59-3a6.11,6.11,0,0,0,3.44-1.72,20.41,20.41,0,0,1,18.43-6.25c2.49.38,4.79,2,7.18,3l6.48,4.1v-1.25c4.5,1.55,9.32,2.51,13.39,4.82,3.77,2.13,6.73,5.7,10,8.63q1.21,3.4,2.44,6.82c-.17,6.76.52,7.56,6.73,7.94.21,0,4.91-.15,8.3-.15a46.63,46.63,0,0,1,7,4.28l1.84.9,2.29,2,5.18,3.73a12,12,0,0,0,1.25,2.45c3,3.68,6.26,7.17,9.11,11,2.58,3.45,3.21,3.5,5.36-.63l4,.14-2.54,5,2.13,1.59a1.85,1.85,0,0,1,.4.24l1.79,1.3.8.67.75.2c4.16,4,9.23,4.41,14.59,3.69l.74.83a.78.78,0,0,0,0,.74c4,2.62,4.8,7,6.1,11.14a9.75,9.75,0,0,0,2.27,4c3.48,3.45,3.16,6.06,2.66,11-.42,4.06,1.64,8.5,3.14,12.57,1.27,3.44,3.31,6.59,5,9.88q2.17,1.18,4.33,2.39c6,7.63,6.52,16.5,5.79,25.65l-.19.27.15-.31c3.09-5.35,1.9-17.33-2.41-22.81a19.1,19.1,0,0,0-3.38-2.76c1.5-.26,3.32-1.18,4.44-.64a72.82,72.82,0,0,1,8.07,5.2c-2,1.28-2.61,2.63-2.11,5.34.63,3.47-.15,7.19-.32,10.8l-.93,4.48-7.61,7.66-2.92,1c-3.16-.38-4.5,1.11-4.31,4.18h0c-3.94,1.3-7.94,2.46-11.77,4-.82.34-1,2.26-1.44,3.45v0l-1.72.89.09,0-1.76.87.09-.06-4.43-.91c-6.48-3.41-12.74-7.11-17.15-13.2,4.43-3,4.51-7.74,5-12.35.09-.92.54-1.81.62-2.73a17.17,17.17,0,0,0-.2-2.76c-1.11.22-2.56.09-3.25.75a20,20,0,0,0-2.65,3.91l-7.82-4.44c-2-6.88-5.11-12.9-12.44-15.53l-12.42-2.82c-.58,2.54-.26,5.42-3.64,3.44-.33-.19-1.27.24-1.66.64-1.77,1.83-3.45,3.76-5.16,5.65l-12.35,5.68-1,.78h.05c-13.36,4.11-26.93,1.32-40.43,1.09,12.72,3.74,25.57,5.26,38.71,3-.05,1.11-.11,2.22-.16,3.32-2.34,3.24-4.8,5.46-9.53,4.42-3.18-.7-7.28-.66-10,.8-7.58,4-14.67,9-22,13.62-2,1.19-4,2.23-5.88,3.59-7.89,5.85-9.6,6-17.62.55-1.79-1.21-3.45-2.62-5.17-3.94,2.59-3.39-1-4.64-2.37-6.57a85.43,85.43,0,0,0-6-7.52c-2.71-2.94-5.67-5.65-8.52-8.47l-1.12,1.07,4.88,8.24c2.83,8.5,7.61,15.23,15.75,19.71s17.07,8.35,20.47,18.26a3.77,3.77,0,0,0,1,1.26l10.55,10.44c-.1.56,0,1.35-.32,1.65-2,1.84-4.16,3.56-6.25,5.33l-1.64,1.13h0c-2.94,1.87-5.17,1.33-6.6-1.93l-3.85-4.2c-.35-1.33-1-2.67-1-4,.29-6.18-3.49-10-7.51-13.81l-6.65-6.59-.89-.81v0L1744,1336.78h0l-2.79-3.44-2.19,1.8-11.22-18.09c8.14-.19,1.79-4.92,2.23-9l13.18,11.19.5-.44-2.5-5.63c1.82,1.21,2.61,1.63,3.28,2.2,2.64,2.27,5,5.13,7.93,6.77,5.16,2.83,10.86,4.71,14.36,9.91.08.11.49,0,1.71-.07-1.06-2.54-1.61-5.12-3-7.06-3.53-4.78-7.79-9-11.16-13.92-4.28-6.22-7.08-13-5-21.3l5,2.28,1.06-.57a24.13,24.13,0,0,0-1.17-3.32,15.28,15.28,0,0,0-2-2.78c-3-3.54-2.68-9.47-8-11.37l-1.89-2.38.11-.11,5.31,1.53,2.81-.91,7.16,12.9c.94-2.43,1.72-4.43,2.56-6.59,1.21,1.52,47.66-49.54,57.83-41.63,13.57,13.57-14.69,57.65-26,74.6a20.86,20.86,0,0,0-10.12-1.77l-6.92.79c3.67,3.83,21,4.33,28.42.48l-12.46-1.35c4.83-3.77,33.65-66.5,26.59-72-1.23-1-2.32-2.5-3.72-2.89-9.58-2.71-19.18-5.4-28.89-7.61-3.94-.9-8.15-.7-12.25-.79-1.16,0-2.33.67-3.49,1l.17,1.31c1.82,0,3.65,0,5.48,0,2.74.06,5.59-.28,8.19.38,6.46,1.64,12.79,3.77,19.19,5.67,3.42,1,6.86,2,10.29,3-4.42,3.93-19.46,17.55-21.37,20l-26.78-.66c.2.17.38.44.61.5,6.4,1.71,12.83,3.31,19.18,5.16,1.36.4,2.47,1.67,3.69,2.54a.89.89,0,0,1-.68,0l-5.17.42-9.12,4.35-4-.82-21.62-9.07a12.94,12.94,0,0,1,3.36.1c3.67,1.13,7.25,2.58,10.95,3.64,3,.86,6.07,1.35,9.11,2l.47-1.75-27.64-9.07c-1.39-4.8.13-6.59,4.9-6.32a4.93,4.93,0,0,0,3.69-1.91,41.76,41.76,0,0,0,3.59-7.32c.16-.36-.61-1.11-1-1.69,1.55-4.61,2.71-9.43,6.76-12.72l-2-1.78c11.89-2.77,23.13-.64,34.5-.58a17.28,17.28,0,0,0-5.44-3c-6.13-1.58-12.24-2.21-18.56-.22-4.38,1.39-9.07,1.82-13.62,2.64a19.78,19.78,0,0,1-4,.5c-5.15-.08-10.46-1.46-14.91,2.73-1.92,1.82-3.45.71-5.16-1a43.57,43.57,0,0,0-8.19-6.57c-2.17-1.33-4.46-.83-5.2,1,1.43,3.09,2.49,5.36,3.55,7.63l-1.63,1.67c-.8-5.81-4.69-4.49-7.84-4.73a9.11,9.11,0,0,0-2.8.77,15.52,15.52,0,0,0,1.6,2.92c1.62,1.9,3.41,3.67,5.13,5.49l-1.2,1.33-11.48-8.92c-1.74,2-2.72,3.58-4.12,4.58-1.61,1.16-3.6,1.8-6,3-.44-1.65-1.15-4.3-1.89-7.11l-3.46,3.79-1.57-6.09c.09-.86.17-1.72.26-2.58Zm68.58,90.09c4.11,5.47,8.17,9.22,13.37,11.76,5.62,2.75,11.14,5.72,16.83,8.31,1.2.54,3-.14,4.45-.26-.92-1.09-1.61-2.63-2.78-3.2-9.82-4.75-20.22-8.41-28.67-15.7C1758.6,1308.21,1757.72,1308.22,1755.9,1307.73Zm23.29,9.06c10.54,6.6,22.27,8.56,34.3,9.25l.35-1.37Zm145.74-3.18-1.22,5.28,1.12.44,4-8-1-.49-25.32,10c4.21.31,8.3.29,11.93-1S1921,1316,1924.93,1313.61Zm-3.46,22-7.42,2.82C1919.08,1339.4,1920.26,1339,1921.47,1335.65Zm-12.21,4.42.31.92,2.61-.69-.21-.84Zm-172.08-22.76c-.09.21-.3.46-.24.6s.38.2.58.29c.09-.2.29-.45.24-.6S1737.38,1317.4,1737.18,1317.31Z" transform="translate(0)" style="fill:#a70201"/><path d="M1937.33,1335.64l-2.43.1-.84-1.08-.86,1.07-2.59-.8,7.61-7.66,6.66-4.38.8-.94h0c3-3.56,4.09-7.51,2.59-12.06-1.13-3.44-4.08-2.94-6.69-3.25a72.82,72.82,0,0,0-8.07-5.2c-1.12-.54-2.94.38-4.44.64l0,0q-2.16-1.2-4.33-2.39c5.15-1.69,10.64-1.71,15.38-5.44,4-3.12,9.09-2,13.43.85h0a.83.83,0,0,1,.6.36c1,1,2,2,3.16,2.84s2.06,1.39,3.1,2.07c0,.57,0,1.15,0,1.72l-.16.31.16-.31.89,0,.63,1.66-3.75,1.82c5.79,3.11,1.67,5.06.63,7.39a14.8,14.8,0,0,1,0,5.59c-.21,1.46-.55,2.9-.84,4.36l-1.75,2.23a3,3,0,0,0-.74.14c-5.06-.17-7.91,4-11.85,6.07A61.41,61.41,0,0,0,1937.33,1335.64Z" transform="translate(0)" style="fill:#111110"/><path d="M1862,1220.23l-2.29-2c-.31-1.65-.61-3.3-.92-4.94l.87.36,1.56-3.08.3-.35,1.49-.66,17.65-.59a9.1,9.1,0,0,0-.21,1.62c0,1.12.18,2.23.28,3.34.64-.1,1.64,0,1.84-.35a12.15,12.15,0,0,0,1.25-3.46,5.63,5.63,0,0,0-.37-2l3.59-1c-1.17,5.14-2.72,10.23-3.34,15.43-.28,2.44,1.22,5.09,1.92,7.65-.15.8-.29,1.6-.44,2.41l-2.28,4.18c-2.15,4.13-2.78,4.08-5.36.63-2.85-3.81-6.1-7.3-9.11-11a11.84,11.84,0,0,1-1.25-2.46l1.83-1.1c1.4,1.92,2.79,3.85,4.19,5.78l1.92-.33q.84-4.52,1.7-9l-4.86-.74,3-3.55-3.1-2.79-2.93,2.33-.93.81.12,0c-.92.69-2.63,1.38-2.63,2.06C1865.46,1220.07,1863.51,1219.8,1862,1220.23Z" transform="translate(0)" style="fill:#423c30"/><path d="M1892.79,1184.64a12.76,12.76,0,0,1,.88,2.66c.44,4.79,2.24,8.52,7.3,9.87-.6,1.27-1.2,2.54-2.13,4.48,1.67-.12,2.87-.21,4.07-.28.83,0,1.66,0,2.5-.07-1.25,3.71,3.41,4,3.89,6.65l0-.06-.84,1,.12-.11-1,.65a1.23,1.23,0,0,1-.68.14c-3.62-1.57-7.21-3.24-10.9-4.62-.91-.34-2.16.24-3.24.4l-.15.1a9.85,9.85,0,0,0-1.45-9.17,5.6,5.6,0,0,1-.63-3c-.09-2.25,0-4.5,0-6.74l2.59,2.64C1893,1187.68,1892.9,1186.16,1892.79,1184.64Z" transform="translate(0)" style="fill:#423c30"/><path d="M1885.57,1230.17c-.7-2.56-2.2-5.21-1.92-7.65.62-5.2,2.17-10.29,3.34-15.43h0l1-.76,3.62,1c-.27,2.18.85,2.55,2.65,2a15.53,15.53,0,0,0-3.67,12.26C1890.86,1224.28,1887.36,1227.31,1885.57,1230.17Z" transform="translate(0)" style="fill:#ad887d"/><path d="M1962,1303.7l-.63-1.66a.92.92,0,0,1,.1-.79l5.25,3.06c.06-1.23.11-2.43.17-3.64q4.08,4.88,8.17,9.73c.17.2.61.39.58.51-1.62,7.92,4.33,4.19,7.66,4.89l.29,2.66a.67.67,0,0,0-.18.46c-.25,0-6.86,6-7.1,6-1.06-.34-2.26-2.26-2.26-2.26l-1.13-2.26v-2.26s0-1.13.82-1.31c-.58-1.85-1.15-3.7-1.84-5.93l-3.11-.53-1.4-2.71-2.77,4.32a2.21,2.21,0,0,0-.81.06l-.75-.85v-1.68l0-3.3C1962.71,1305.36,1962.36,1304.53,1962,1303.7Z" transform="translate(0)" style="fill:#e2e0d3"/><path d="M1889.47,1245.68l-.8-.67-1.79-1.3a1.85,1.85,0,0,0-.4-.24l5.41-2.65,3.21,1.25,9.71,7.51c-5.36.71-10.43.33-14.58-3.7A1,1,0,0,0,1889.47,1245.68Z" transform="translate(0)" style="fill:#1c1e28"/><path d="M1966.9,1300.67c-.06,1.21-.11,2.41-.17,3.64l-5.25-3.06-1-.9c-1-.68-2.13-1.3-3.1-2.07s-2.12-1.89-3.16-2.84l7.32.2,5.35,5Z" transform="translate(0)" style="fill:#860102"/><path d="M1909.3,1208c-.48-2.7-5.14-2.94-3.89-6.65-.84,0-1.67,0-2.5.07-1.2.07-2.4.16-4.07.28.93-1.94,1.53-3.21,2.13-4.48l1.59.22C1908.52,1199.4,1911,1203.34,1909.3,1208Z" transform="translate(0)" style="fill:#1c1e28"/><path d="M1892.8,1205.34c1.08-.16,2.33-.74,3.24-.4,3.69,1.38,7.28,3,10.9,4.62-2.83,1.67-5.61,1.22-8.37-.2Z" transform="translate(0)" style="fill:#1c1e28"/><path d="M1892.8,1205.34l5.77,4-4.31,0c-1.8.53-2.92.16-2.65-2,.34-.64.69-1.28,1-1.92Z" transform="translate(0)" style="fill:#423c30"/><path d="M1496.58,1362.37l.26-1.62,0-.84.21-1.61c.23-1.15,2.69-9.18,3.35-10s.82-1.27,1.91-1.79c-.62,4.48-2.52,15.72-3.26,21l6.75-10.13c1.57-2,4.56-3.11,4-6.43a.54.54,0,0,0,.38-.61l5.88-9.45,3.31,2.84,7.23,1.12c-3,1.41-4.61,3-3.85,6.16.64,2.65,2.53,4.22,4.8,5.51s5.27,2.26,4.89,5.88h0c-.57,1.64-1.13,3.29-1.92,5.59l6.27,4.37-.16.91-1.88.63,1.72,1.8-1.8,4.78c-.82-2.66-2-4.89-5.39-4.26a11.79,11.79,0,0,0-3.08-.59c-5.29.4-10.56.94-15.83,1.43l-.15,1.21,10.09,1.61c-2.24,3.31-5.61,5.6-9.31,4.6-5.22-1.42-8.63-5.48-10.47-10.68-1-2.8-2.08-5.55-3.13-8.32l-.45-1.4-.33-1.64Zm18.41-10.76-2.25.12a3.14,3.14,0,0,1-.13.68l2.45.18Zm13,19.49-6.53-2.87-2.86,3C1521.23,1374.8,1524.23,1374.77,1527.94,1371.1Z" transform="translate(0)" style="fill:#423c30"/><path d="M1631.59,1455.85l-12.29-4.32c-2.52-3-5-6-7.63-8.88-.38-.42-1.49-.18-2.26-.24-.76-.79-1.38-2-2.29-2.31-4.44-1.41-5.37-5.33-6.79-8.95a1.25,1.25,0,0,0,.71-.15l.72-1-.15-.09c4.59-.52,4.63-3.73,4.25-7.19l.24-.21,1.33-1.64,1-1.89c.26.28.57.84.79.81,5.41-.76,5.27-.73,6.76,4.78.77,2.86,2.39,5.22,6.44,4.23.27,2.34.51,4.41.79,6.86l3.55-.63c5,6.07,8.32,13.52,15,18.24.34.23.28,1,.41,1.54-.83,0-2-.3-2.44.12C1637.18,1457.22,1634.42,1456.64,1631.59,1455.85Z" transform="translate(0)" style="fill:#a70201"/><path d="M1534.67,1380.48l1.8-4.78c0-.81.11-1.62.16-2.43,0-.31.11-.61.16-.91,1.59-1.6,3.23-3,5.72-1.77l3.21,2.41c-1.56,6.49-.45,12.21,4.91,16.66l8.34,7.59a23,23,0,0,1-18.72,6.45,5.89,5.89,0,0,1-5.59-4.47A27.88,27.88,0,0,1,1534.67,1380.48Z" transform="translate(0)" style="fill:#111110"/><path d="M1559,1397.25l-8.34-7.59c2-1.56,3.31-.68,4.87.92.82.85,2.52.86,3.85,1.17.61.14,1.46-.16,1.87.16,2,1.51,3.87,3.09,5.68,4.78,4.23,3.93,8.37,8,12.59,11.89,2.42,2.25,7.69,1.79,9.15-.72l1.69,1.79c-.85,3.79-.47,12.18-5,13.09-1.66-1.71-3.36-3.89-3.6-4l-14.53-12.63,0,0-.79-1.9Z" transform="translate(0)" style="fill:#a70201"/><path d="M1587.79,1421q1.28-5.68,2.54-11.36l1.5-2.69c2.12,2.33,4.6,4.43,6.24,7.06,1.52,2.4,2.13,5.37,3.15,8.09-.64,2.69-1.27,5.37-1.91,8.05-3.71-1.75-7.44-3.46-11.11-5.29a19.91,19.91,0,0,1-2.87-2.13Z" transform="translate(0)" style="fill:#4d4d4d"/><path d="M1503.43,1332.64c2.28-7.29,4.48-14.62,7-21.85.33-1,2.36-2.27,3.12-2,1,.35,1.6,2.07,2.37,3.2-.89,1-2.13,1.78-2.59,2.92-2.26,5.59-4.31,11.27-6.43,16.92-1.58,5.46-3.06,11-4.81,16.36-.34,1-1.73,1.73-2.63,2.59q1.78-8.08,3.58-16.17C1503.14,1334,1503.29,1333.3,1503.43,1332.64Z" transform="translate(0)" style="fill:#423c30"/><path d="M1502.05,1348.18c1.75-5.41,3.23-10.9,4.81-16.36l3.27,2.48c-1.25,3.88-2.35,7.81-3.79,11.62-1.36,3.58-.37,5.19,3.46,5,.59,3.32-2.4,4.44-4,6.43l-4-.76h0l-.8-3.3A26.33,26.33,0,0,1,1502.05,1348.18Z" transform="translate(0)" style="fill:#d7d3c6"/><path d="M1520.31,1379.88l-10.09-1.61.15-1.21c5.27-.49,10.54-1,15.83-1.43a11.79,11.79,0,0,1,3.08.59Z" transform="translate(0)" style="fill:#ad887d"/><path d="M1599.31,1430.16q1-4,1.9-8.05l1.45-2.77c1,1.11,2.07,2.22,3.11,3.32l-4.17,7.27.16.09-.72,1a1.25,1.25,0,0,1-.71.15Z" transform="translate(0)" style="fill:#860102"/><path d="M1892.65,1205.44c-.35.64-.7,1.28-1,1.92l-3.62-1-1,.76h0l-3.59,1L1882,1208c-2.08-2.66-4.92-2-7.71-1.9-2.12.11-4.37.43-6.34-.12-5.27-1.49-10.45-3.35-15.61-5.19a7,7,0,0,1-2.89-2c-1.6-1.89-2.4-1.35-3.6.48a5.27,5.27,0,0,1-3.37,2.08c-.6.08-1.73-1.5-2.12-2.51-.82-2.14-1.32-4.41-2-6.62l6.32-11.1c.31,2.4,1.41,3,3.68,1.91,3.17-1.52,6.44-2.83,10-4.38,4.14,3.35,8.63,7.17,14.8,5.75l.45-1.71-7.88-1.32c1.08-10,.16-10.29,7.6-9.79.61,1.42.75,2.75,1.42,3.12a83.18,83.18,0,0,0,8.89,4.24,25.07,25.07,0,0,0,4.8.88l-3.68-7.92,2.85,1.6,5.14,11.16c.11,1.52.23,3,.34,4.57l-2.59-2.64c0,2.24-.06,4.49,0,6.74a5.6,5.6,0,0,0,.63,3A9.85,9.85,0,0,1,1892.65,1205.44Z" transform="translate(0)" style="fill:#1c1e28"/><path d="M1884.8,1171.88l3.68,7.92a25.07,25.07,0,0,1-4.8-.88,83.18,83.18,0,0,1-8.89-4.24c-.67-.37-.81-1.7-1.42-3.12-7.44-.5-6.52-.2-7.6,9.79l7.88,1.32-.45,1.71c-6.17,1.42-10.66-2.4-14.8-5.75-3.59,1.55-6.86,2.86-10,4.38-2.27,1.09-3.37.49-3.68-1.91l6.57-7.16c1.36.5,2.73,1.42,4.06,1.35s2.26-1.38,3.5-1.81a30.87,30.87,0,0,1,4.86-.78l-5-.71,5.94-1.23a43.83,43.83,0,0,1,6.31-.77c4,.06,7.93.43,11.9.68l.06.35,1.84.94Z" transform="translate(0)" style="fill:#282f3f"/><path d="M1838.37,1192.2c.63,2.21,1.13,4.48,2,6.62.39,1,1.52,2.59,2.12,2.51a5.27,5.27,0,0,0,3.37-2.08c1.2-1.83,2-2.37,3.6-.48a7,7,0,0,0,2.89,2c5.16,1.84,10.34,3.7,15.61,5.19,2,.55,4.22.23,6.34.12,2.79-.15,5.63-.76,7.71,1.9l-1.35.91-17.65.59c-6.53-1.44-13.06-2.85-19.58-4.34-4-.92-5.85-3.65-5.54-7.89Z" transform="translate(0)" style="fill:#111110"/><path d="M1837.84,1197.28c-.31,4.24,1.55,7,5.54,7.89,6.52,1.49,13,2.9,19.58,4.34l-1.49.66-1.17-.18.87.53-1.56,3.08-.87-.36c.31,1.64.61,3.29.92,4.94l-1.84-.9c-.83-.87-2.57-1.48-3.58-2s-1.52-1.25-2.83-1.59l0,0c-.53-.65-.53-.65-.76-.71l-14.8-7.73q-1.23-3.42-2.44-6.82Z" transform="translate(0)" style="fill:#1c1e28"/><path d="M1857.19,1170.83l7.42-.07-5.94,1.23,5,.71a30.87,30.87,0,0,0-4.86.78c-1.24.43-2.31,1.76-3.5,1.81s-2.7-.85-4.06-1.35Z" transform="translate(0)" style="fill:#1c1e28"/><path d="M1714.25,1554.13l0-2.47,3.33-5,2.43-4.91,2-1,5.48,1.74,4,.29,5.21,1.35-7.37,1.46,5.51,4.7-2.44,2.74,3.33.24c0,.25,0,.51,0,.76l-4.16,3.21Z" transform="translate(0)" style="fill:#d5d0c2"/><path d="M1727.5,1542.51l-5.48-1.74-3.56-4q-.37-4-.74-7.92c1.48-.88,2.57-.79,3.53.91,1.64,2.9,3.5,5.68,5.27,8.51l1.78,1.25Z" transform="translate(0)" style="fill:#423c30"/><path d="M1519.5,1315.64l12.28,10.18-7.17,2.72a.36.36,0,0,0-.25.48l-.6,1-2.09,1.69-4.87,5.87-3.09-3.13c-1.08-3.26-2.38-.35-3.58-.13l-3.27-2.48c2.12-5.65,4.17-11.33,6.43-16.92.46-1.14,1.7-2,2.59-2.92C1517.53,1311.73,1519.66,1315.86,1519.5,1315.64Z" transform="translate(0)" style="fill:#ddd9cb"/><path d="M1776.18,1384.4c1.43,3.26,3.66,3.8,6.6,1.93.16.73.71,1.87.42,2.14-5,4.83-4.52,6.84,1.74,10.14,1.78.93,3,3,4.41,4.56l-1.5-.23c-7-6-14.6-10.32-24.55-7.39l.27,3.31-7.16-4.34-.93,1c.8,1.42,1.59,2.85,2.52,4.51-1.13,1-2,2.19-3.2,2.62-4,1.46-3.66,3.33-1,5.73,4.11-1.68,5.43-1.1,5.21,1.93-1.12-.1-2.81-.7-3.25-.2a16.31,16.31,0,0,0-3.54,5.7c-.41,1.34.59,3.11,1,4.69l-5.91,1.66-6.6.76c-.68-1.21-17.18-3.47-24.57-1.57l-2-10.8,3.85-6.42,6.18-2.9c2.38-2.89,8-3.26,6.84-9-.13-.64,1.19-1.46,1.5-2.31,1.42-3.9,6.35-5.53,6.55-10.19,10.93,3,13.73,2,16.52-5.77l2,2.44,1.25,1.71h0q1.26,2.83,2.54,5.67l.56,5.78-.94.19,3.51,3.35c2.58-3.14.75-6,.18-8.87l-2.44-5.53c-1.74-3.57-3.49-7.14-5.74-11.76-1,2.12-1.37,2.9-1.75,3.69a7.12,7.12,0,0,1-1.86-1.37c-3.88-5.65-7.75-11.32-11.51-17-3.88-5.93-7.65-11.94-11.46-17.92l4.08,1.42c-.8-4.73-4.58-7.34-6.4-10.9-1.95-3.81-3.91-7.91-5.73-11.2h-6.8l-4.19-7.4c.6-.28,1.25-.88,1.78-.79,5.13.86,8-2.21,10.7-5.83l6-5.07c.46,2.24.93,4.47,1.4,6.71l0,0-2.85,3.45-1.35-.38c.71,4.35-2.57,8.77,1.2,12.76q5.63,9,11.23,18.09c3.68,5.17,7.19,10.49,11.14,15.44,1.52,1.91,4.07,3,6.15,4.48v0l.89.81,6.65,6.59c-.27.59-.53,1.19-.79,1.79-1.14,1.75-2,3.35-.28,5.43a65.42,65.42,0,0,1,4.42,6.64c-1.28,2.59.76,3.32,2.4,4.28.46,1.88.93,3.76,1.42,5.78Zm-19.72-22.09h5.68c-3.39-2.55-5.9-4.63-8.61-6.4-2-1.28-4.18-2-4.72,1.57,1.16,2.72,2.33,5.45,3.34,7.83Zm-6.25-8.73-9.48-7.23C1743.29,1353.73,1745.65,1355.42,1750.21,1353.58Z" transform="translate(0)" style="fill:#111110"/><path d="M1828.2,1344.93l-19.39,17a1.66,1.66,0,0,1-.06.21l-1.62,1a.44.44,0,0,0-.47.47l-11.62,12-4,2.61-10.55-10.44a3.77,3.77,0,0,1-1-1.26c-3.4-9.91-12.34-13.79-20.47-18.26s-12.92-11.21-15.75-19.71l13.15,13.25c1.72,1.32,3.38,2.73,5.17,3.94,8,5.41,9.73,5.3,17.62-.55,1.84-1.36,3.91-2.4,5.88-3.59l10.45-.84c1.37-1.13,2.09-2.22,3-2.37,7.17-1.19,14.34-2.49,21.56-3.19,8.55-.84,16.92-1.55,22.41-9.55,1.18-1.72,1.63-2.55-.86-2.87l-.08-.08,5-4.89,1-.34a1.51,1.51,0,0,0-.19-.27c-.29.17-.56.36-.84.55a39.68,39.68,0,0,0-4.32,1.12c-1.51.56-3.36,2.34-4.3,1.91-4.39-2-7.53,1.52-11.3,2,0-1.1.11-2.21.16-3.32.57-1.34,1.15-2.69,1.72-4h-.05l1-.78,12.35-5.68c.78,0,1.72-.23,2.33.11a17.41,17.41,0,0,0,13,1.43l-10,12.34-1.11,1.25-14.7,17.56Z" transform="translate(0)" style="fill:#111110"/><path d="M1747.71,1273l-5.32-1.53-.44-.35.34.46,1.89,2.38c.12.52.25,1,.37,1.55.3,1.33.59,2.67.89,4a36.36,36.36,0,0,1-3.82-2.37c-1.49-1.18-2.81-2.58-4.2-3.89l-.94-1,1.8-7.36c1.21-4.9,2.43-9.81,3.85-15.54l-8.85,1.49-1.66,1.7-1.65,1.62-1.66.7c-1.7.43-3.9.32-5,1.37-3.29,3.07-6.08,6.66-9.19,9.93-2.45,2.58-4.79,5.4-7.7,7.35s-2.78,5.58-6.12,7.59c-3.18,1.91-4,6.77-2.79,11.24.73,2.65,1.74,2.77,3.71,1.56l4.27-1.87c.47,2.76.86,5.1,1.25,7.44-2.6-.41-3.2.87-3.36,3.28a7.23,7.23,0,0,1-2.2,4.18c-.63.61-2.24.23-3.41.29-.06-1.68-.48-3.45-.11-5a7.48,7.48,0,0,0-6.81-8.83c-.44,0-.86-.73-1.29-1.12l.26-.46-.46.26c-.54,1-1.11,1.88-1.62,2.85-1,1.86-1.85,3.82-3,5.57a2.4,2.4,0,0,1-2.31.61,3.2,3.2,0,0,1-.93-2.35,38.33,38.33,0,0,1,.3-6.43,39.59,39.59,0,0,1,1.64-6.69c.76-2.23,1.85-4.35,2.79-6.52l.1-.08.73-.7,6.48-2.44-3.47,4.48.06,1.24c.84,2.84,2.1,3.37,4,.76.87-1.2,1.57-2.65,2.71-3.5,2.22-1.64,1.24-3.08.14-4.66.88-.64,1.82-1.22,2.64-1.94,3.73-3.27,7.43-6.58,11.14-9.87l6.11-6-7.7-11,7.77-4.25-1.75-4.32c2.53,0,4.93.72,6.35-.15,3.1-1.9,5.87-4,10.44-.92-1.79-3.26-2.84-5.19-3.89-7.11l1.15-.63c5.68,2.15,8,6.56,7.08,13.84l18.46-15.85.69.69-10.58,14.86,1.08,1.32,8.82-5.21c.35.58,1.12,1.33,1,1.69a41.76,41.76,0,0,1-3.59,7.32,4.93,4.93,0,0,1-3.69,1.91c-4.77-.27-6.29,1.52-4.9,6.32l3,3.1-2.72.92.05.6,3.4.46,21.62,9.07h-21.19Z" transform="translate(0)" style="fill:#111110"/><path d="M1754.75,1237.63l-8.82,5.21-1.08-1.32,10.58-14.86-.69-.69-18.46,15.85c.91-7.28-1.4-11.69-7.08-13.84l-1.15.63c1,1.92,2.1,3.85,3.89,7.11-4.57-3-7.34-1-10.44.92-1.42.87-3.82.15-6.35.15l1.75,4.32-7.77,4.25,7.7,11-6.11,6,1.84-3.92c-7.39-5-15.39-9.25-18.71-18.21a4.33,4.33,0,0,0-.49-.66c-3.36-5.15-7-10.2-6.46-16.84a.23.23,0,0,0,.37.06l1.57,6.09,3.46-3.79c.74,2.81,1.45,5.46,1.89,7.11,2.43-1.16,4.42-1.8,6-3,1.4-1,2.38-2.59,4.12-4.58l11.48,8.92,1.2-1.33c-1.72-1.82-3.51-3.59-5.13-5.49a15.52,15.52,0,0,1-1.6-2.92,9.11,9.11,0,0,1,2.8-.77c3.15.24,7-1.08,7.84,4.73l1.63-1.67c-1.06-2.27-2.12-4.54-3.55-7.63.74-1.79,3-2.29,5.2-1a43.57,43.57,0,0,1,8.19,6.57c1.71,1.75,3.24,2.86,5.16,1,4.45-4.19,9.76-2.81,14.91-2.73a19.78,19.78,0,0,0,4-.5c4.55-.82,9.24-1.25,13.62-2.64,6.32-2,12.43-1.36,18.56.22a17.28,17.28,0,0,1,5.44,3c-11.37-.06-22.61-2.19-34.5.58l2,1.78C1757.46,1228.2,1756.3,1233,1754.75,1237.63Zm-41.49,2.52a4.49,4.49,0,0,0-1.17-.62c-.2,0-.45.22-.68.34.21.28.38.73.64.8S1712.67,1240.42,1713.26,1240.15Z" transform="translate(0)" style="fill:#860102"/><path d="M1737.42,1273.21c1.39,1.31,2.71,2.71,4.2,3.89a36.36,36.36,0,0,0,3.82,2.37c-.3-1.33-.59-2.67-.89-4-.12-.52-.25-1-.37-1.55,5.35,1.9,5,7.83,8,11.37a15.28,15.28,0,0,1,2,2.78,24.13,24.13,0,0,1,1.17,3.32l-1.06.57-5-2.28c-2.11,8.27.69,15.08,5,21.3,3.37,4.88,7.63,9.14,11.16,13.92,1.43,1.94,2,4.52,3,7.06-1.22.06-1.63.18-1.71.07-3.5-5.2-9.2-7.08-14.36-9.91-3-1.64-5.29-4.5-7.93-6.77-.67-.57-1.46-1-3.28-2.2l2.5,5.63-.5.44L1730,1308c-.44,4.1,5.91,8.83-2.23,9-3.78-4-.5-8.41-1.21-12.76l1.35.38,2.85-3.45.29.18-.33-.14c-.47-2.24-.94-4.47-1.4-6.71l.52-.72c2.68.17,5.35.43,8,.45a3,3,0,0,0,2.33-1c.29-.63-.18-1.77-.61-2.52-1-1.89-2.27-3.69-3.82-6.15l5.29,1.85.53-1-5.31-6.08c.48-1.92.73-2.9,1-3.88Zm4.08,33,7.71,1.56.58-1.87-13.75-6c5.85,10.81,5.85,10.81,7.62,10.53l-2.15-4.27Zm2.09-14.78-.58.48.72.76.67-.65Zm2.24,21c.08-.2.29-.46.23-.6s-.38-.2-.58-.28c-.09.2-.3.45-.24.6S1745.62,1312.37,1745.83,1312.46Zm-3.89-25-.13.2.21,0Z" transform="translate(0)" style="fill:#860102"/><path d="M1841.53,1322.77c2.49.32,2,1.15.86,2.87-5.49,8-13.86,8.71-22.41,9.55-7.22.7-14.39,2-21.56,3.19-.87.15-1.59,1.24-3,2.37l-10.45.84c7.28-4.6,14.37-9.57,22-13.62,2.74-1.46,6.84-1.5,10-.8,4.73,1,7.19-1.18,9.53-4.42,3.77-.46,6.91-4,11.3-2,.94.43,2.79-1.35,4.3-1.91a39.68,39.68,0,0,1,4.32-1.12l.06.07-5,4.88c0,.13-.09.25-.13.37Zm-2.88,2.34a3.85,3.85,0,0,0-.62-.36s-.26.23-.24.28a4.45,4.45,0,0,0,.38.58Z" transform="translate(0)" style="fill:#333"/><path d="M1791,1378.21l4-2.61c2.87,8.31,9.64,16,4.11,25.64l-6.41,4.13-3.39-2.2c-1.45-1.55-2.63-3.63-4.41-4.56-6.26-3.3-6.69-5.31-1.74-10.14.29-.27-.26-1.41-.42-2.14h0l1.64-1.13c2.09-1.77,4.22-3.49,6.25-5.33C1791,1379.56,1790.91,1378.77,1791,1378.21Z" transform="translate(0)" style="fill:#333"/><path d="M1847,1322.8l10-12.34,7.6-8.45c7.33,2.63,10.43,8.65,12.44,15.54l3.93,11.44c-.75-.11-2,0-2.17-.37-1-2.26-1.73-4.68-2.75-6.95-.73-1.62-1.9-3.05-2.68-4.66-.87-1.77-1.52-3.65-2.27-5.49l-1.25.47c1.29-4.12-1.78-5.62-4.32-7.44h0a26.38,26.38,0,0,0-3.08,2.78c-5.78,7.11-11.43,14.33-17.26,21.39-1.93,2.34-4.51,4.14-6.31,6.55-1,1.28-.88,3.34-1.31,5.27l-6.36,1.07,14.7-17.56Z" transform="translate(0)" style="fill:#ece7da"/><path d="M1772.91,1269.84c-.74.61-1.39,1.51-2.24,1.78-5.28,1.67-7.05,5.64-7.3,10.7-1-1.22-1.92-2.44-3.13-4-.84,2.16-1.62,4.16-2.56,6.59l-7.16-12.9-2.81.91V1269h21.19Z" transform="translate(0)" style="fill:#860102"/><path d="M1864.53,1302l-7.6,8.45a17.39,17.39,0,0,1-13-1.43c-.61-.34-1.55-.09-2.33-.11,1.71-1.89,3.39-3.82,5.16-5.65.39-.4,1.33-.83,1.66-.64,3.38,2,3.06-.9,3.64-3.44Z" transform="translate(0)" style="fill:#860102"/><path d="M1817.58,1237.44l-5,.1c-3.43-1-6.87-2-10.29-3-6.4-1.9-12.73-4-19.19-5.67-2.6-.66-5.45-.32-8.19-.38-1.83,0-3.66,0-5.48,0l-.17-1.31c1.16-.37,2.33-1.07,3.49-1,4.1.09,8.31-.11,12.25.79,9.71,2.21,19.31,4.9,28.89,7.61C1815.26,1234.94,1816.35,1236.45,1817.58,1237.44Z" transform="translate(0)" style="fill:#860102"/><path d="M1880.9,1329l-3.93-11.44,7.82,4.43a20,20,0,0,1,2.65-3.91c.69-.66,2.14-.53,3.25-.75a17.17,17.17,0,0,1,.2,2.76c-.08.92-.53,1.81-.62,2.73-.44,4.61-.52,9.35-5,12.35l-3.72-4.91v0l-.68-1.2Z" transform="translate(0)" style="fill:#860102"/><path d="M1755.9,1307.73c1.82.49,2.7.48,3.2.91,8.45,7.29,18.85,10.95,28.67,15.7,1.17.57,1.86,2.11,2.78,3.2-1.5.12-3.25.8-4.45.26-5.69-2.59-11.21-5.56-16.83-8.31C1764.07,1317,1760,1313.2,1755.9,1307.73Z" transform="translate(0)" style="fill:#860102"/><path d="M1941.58,1306.65c2.61.31,5.56-.19,6.69,3.25,1.5,4.55.41,8.5-2.59,12.06a15.85,15.85,0,0,1,.78-3.57c1.53-3.24-.82-4.85-2.41-6.8,1.71,5.47.69,8.7-4,12-.07.05-.57-.52-.87-.8.17-3.61.95-7.33.32-10.8C1939,1309.28,1939.59,1307.93,1941.58,1306.65Z" transform="translate(0)" style="fill:#cab9ac"/><path d="M1828.39,1315.39c-.57,1.35-1.15,2.7-1.72,4-13.14,2.31-26,.79-38.71-3C1801.46,1316.71,1815,1319.5,1828.39,1315.39Z" transform="translate(0)" style="fill:#860102"/><path d="M1756.34,1341.79l-13.15-13.25-4.88-8.24,1.12-1.07c2.85,2.82,5.81,5.53,8.52,8.47a85.43,85.43,0,0,1,6,7.52C1755.37,1337.15,1758.93,1338.4,1756.34,1341.79Z" transform="translate(0)" style="fill:#860102"/><path d="M1756.3,1355.06c-2.08-1.47-4.63-2.57-6.15-4.48-4-4.95-7.46-10.27-11.14-15.44l2.19-1.8,2.79,3.44-.16.26.16-.26Z" transform="translate(0)" style="fill:#860102"/><path d="M1791.18,1257.5l-3.3,7.54c-1.22-.87-2.33-2.14-3.69-2.54-6.35-1.85-12.78-3.45-19.18-5.16-.23-.06-.41-.33-.61-.5Z" transform="translate(0)" style="fill:#860102"/><path d="M1779.19,1316.79l34.65,7.88-.35,1.37C1801.46,1325.35,1789.73,1323.39,1779.19,1316.79Z" transform="translate(0)" style="fill:#860102"/><path d="M1747.28,1260l-3.4-.46-.05-.6,2.72-.92-3-3.1,27.64,9.07-.47,1.75c-3-.65-6.13-1.14-9.11-2-3.7-1.06-7.28-2.51-10.95-3.64A12.94,12.94,0,0,0,1747.28,1260Z" transform="translate(0)" style="fill:#860102"/><path d="M1924.93,1313.61c-3.9,2.37-7,5-10.57,6.24s-7.72,1.32-11.93,1l25.32-10,1,.49-4,8-1.12-.44Z" transform="translate(0)" style="fill:#860102"/><path d="M1782,1309.56l9-.08,12.46,1.35c-7.43,3.85-24.75,3.35-28.42-.48Z" transform="translate(0)" style="fill:#860102"/><path d="M1835.82,1205.21l14.8,7.73.76.71,0,0-1.77,4.67-.77-.59c-1-2.68-2.58-4.47-5.73-4.11h0c-.21-.17-.4-.49-.61-.5C1836.34,1212.77,1835.65,1212,1835.82,1205.21Z" transform="translate(0)" style="fill:#860102"/><path d="M1769.59,1380.56c-1.64-1-3.68-1.69-2.4-4.28l1.36-.46-5.5-11.61c.26-.6.52-1.2.79-1.79,4,3.77,7.8,7.63,7.51,13.81-.06,1.3.63,2.64,1,4Z" transform="translate(0)" style="fill:#333"/><path d="M1934.9,1327.7c.73-9.15.22-18-5.79-25.65l0,0a19.1,19.1,0,0,1,3.38,2.76c4.31,5.48,5.5,17.46,2.41,22.81Z" transform="translate(0)" style="fill:#111110"/><path d="M1939.15,1322.79c.3.28.8.85.87.8,4.72-3.3,5.74-6.53,4-12,1.59,2,3.94,3.56,2.41,6.8a15.85,15.85,0,0,0-.78,3.57h0l-.8.94-6.66,4.38Z" transform="translate(0)" style="fill:#d7d3c6"/><path d="M1923.41,1340.17c-1.55,1.33-2.93,3-4.69,3.93a91.06,91.06,0,0,1-8.52,3.56c.46-1.19.62-3.11,1.44-3.45C1915.47,1342.63,1919.47,1341.47,1923.41,1340.17Z" transform="translate(0)" style="fill:#860102"/><path d="M1886.89,1236.9c2.24.59,4.87.65,5,3.92l-5.41,2.65-2.13-1.59Z" transform="translate(0)" style="fill:#860102"/><path d="M1862,1220.23c1.56-.43,3.51-.16,3.48-2.84,0-.68,1.71-1.37,2.63-2.06l.9,7.52-1.83,1.1Z" transform="translate(0)" style="fill:#111110"/><path d="M1769.59,1380.56l2.74-.37,3.85,4.21-5.17,1.94C1770.52,1384.32,1770.05,1382.44,1769.59,1380.56Z" transform="translate(0)" style="fill:#ad887d"/><path d="M1921.47,1335.65c-1.21,3.36-2.39,3.75-7.42,2.82Z" transform="translate(0)" style="fill:#860102"/><path d="M1927.69,1336l-4.31,4.18C1923.19,1337.09,1924.53,1335.6,1927.69,1336Z" transform="translate(0)" style="fill:#860102"/><path d="M1909.26,1340.07l2.71-.61.21.84-2.61.69Z" transform="translate(0)" style="fill:#860102"/><path d="M1906.9,1349.27c-1.77,1.12-3.4,1.6-4.43-.91Z" transform="translate(0)" style="fill:#860102"/><path d="M1787.2,1265.07l-5.17.42Z" transform="translate(0)" style="fill:#860102"/><path d="M1886.88,1243.71l1.79,1.3Z" transform="translate(0)" style="fill:#860102"/><path d="M1737.18,1317.31c.2.09.52.14.58.29s-.15.4-.24.6c-.2-.09-.52-.14-.58-.29S1737.09,1317.52,1737.18,1317.31Z" transform="translate(0)" style="fill:#860102"/><path d="M1784.44,1385.19l-1.64,1.13Z" transform="translate(0)" style="fill:#111110"/><path d="M1910.2,1347.62l-1.72.89Z" transform="translate(0)" style="fill:#860102"/><path d="M1908.57,1348.46l-1.76.87Z" transform="translate(0)" style="fill:#860102"/><path d="M1702.76,1200.55l1.85-.48Z" transform="translate(0)" style="fill:#e0d8c9"/><path d="M1757.19,1355.83l-.89-.81Z" transform="translate(0)" style="fill:#860102"/><path d="M1934.86,1327.66l-.15.31.19-.27Z" transform="translate(0)" style="fill:#111110"/><path d="M1889.47,1245.68a1,1,0,0,1,.76.2Z" transform="translate(0)" style="fill:#860102"/><path d="M1829.3,1314.6l-1,.78Z" transform="translate(0)" style="fill:#860102"/><path d="M1970.83,1331.22c.51,2.45-.52,4-2.87,4.59-3.83.92-7.67,1.84-11.56,2.48-1.55.25-3.22-.32-4.83-.33a4.94,4.94,0,0,0-2.85.59c-3.88,3-8.23,1.64-10-3.24l8-2.59c4.67,1.88,8.64.06,12.47-2.41l5-4.26Z" transform="translate(0)" style="fill:#860102"/><path d="M1970.83,1331.22l-6.67-5.18c.86-1.48,1.83-2.92,2.54-4.47a26.74,26.74,0,0,0,1.18-3.81c.31-2.47.61-4.94.92-7.41l3.11.53c.69,2.23,1.26,4.08,1.84,5.93.36,2.88-.65,6.55,4,7l-.71,1.3a15.94,15.94,0,0,0-1.76,2.69C1974.45,1329.84,1974.45,1332.81,1970.83,1331.22Z" transform="translate(0)" style="fill:#1c1e28"/><path d="M1946.65,1332.72l-8,2.59-1.34.33a61.41,61.41,0,0,1,6.39-4.34c3.94-2,6.79-6.24,11.85-6.07C1954.13,1329.56,1950.9,1331.74,1946.65,1332.72Z" transform="translate(0)" style="fill:#1c1e28"/><path d="M1996,1353.3c-.23,1.67-.46,3.35-.68,5C1995.54,1356.65,1995.76,1355,1996,1353.3Z" transform="translate(0)" style="fill:#d5d0c2"/><path d="M1933.2,1335.73l.86-1.07.84,1.08Z" transform="translate(0)" style="fill:#1c1e28"/><path d="M1967.88,1317.76a26.74,26.74,0,0,1-1.18,3.81c-.71,1.55-1.68,3-2.54,4.47l-5,4.27-2.81-5.22,1.75-2.23,3.22-1.09c.77-.1,2,.07,2.24-.36.59-.9.72-2.11,1.23-3.84l-1.71-1.42a6.37,6.37,0,0,0-.76,0l.5-.9,1.07-.85,2.79.08Z" transform="translate(0)" style="fill:#e2e0d3"/><path d="M1962.78,1315.23l-.5.9-.3,1.63c-.24,1.33-.47,2.67-.7,4l-3.22,1.09c.29-1.46.63-2.9.84-4.36a14.8,14.8,0,0,0,0-5.59c1-2.33,5.16-4.28-.63-7.39l3.75-1.82c.35.83.7,1.66,1,2.49l0,3.3v1.68Z" transform="translate(0)" style="fill:#1c1e28"/><path d="M1956.31,1325.09l2.81,5.22c-3.83,2.47-7.8,4.29-12.47,2.41,4.25-1,7.48-3.16,8.92-7.49A3,3,0,0,1,1956.31,1325.09Z" transform="translate(0)" style="fill:#ddd9cb"/><path d="M1960.48,1300.35l1,.9a.92.92,0,0,0-.1.79l-.89,0h0Z" transform="translate(0)" style="fill:#1c1e28"/><path d="M1944.88,1322.89l.8-.94Z" transform="translate(0)" style="fill:#cab9ac"/><path d="M1960.49,1302.07l-.16.31.16-.31Z" transform="translate(0)" style="fill:#1c1e28"/><path d="M1869,1222.85l-.9-7.52-.12,0,.93-.81,2.93-2.33,3.1,2.79-3,3.55,4.86.74q-.86,4.5-1.7,9l-1.92.33Z" transform="translate(0)" style="fill:#ad887d"/><path d="M1880.61,1208.92l1.35-.91,1.44.06a5.63,5.63,0,0,1,.37,2,12.15,12.15,0,0,1-1.25,3.46c-.2.35-1.2.25-1.84.35-.1-1.11-.24-2.22-.28-3.34A9.1,9.1,0,0,1,1880.61,1208.92Z" transform="translate(0)" style="fill:#ad887d"/><path d="M1868.87,1214.54l-.93.81Z" transform="translate(0)" style="fill:#111110"/><path d="M1887,1207.08l1-.76Z" transform="translate(0)" style="fill:#423c30"/><path d="M1967.88,1317.76l-1.24-3.3-2-2.5,2.77-4.32,1.4,2.71C1968.49,1312.82,1968.19,1315.29,1967.88,1317.76Z" transform="translate(0)" style="fill:#ece7da"/><path d="M1982.69,1319l-3.2-1Z" transform="translate(0)" style="fill:#1c1e28"/><path d="M1977.85,1317.73l-2.49-.64Z" transform="translate(0)" style="fill:#1c1e28"/><path d="M1962.78,1315.23l.29-4.06.75.85,0,2.36Z" transform="translate(0)" style="fill:#ece7da"/><path d="M1963.85,1314.38l0-2.36a2.21,2.21,0,0,1,.81-.06l2,2.5Z" transform="translate(0)" style="fill:#cab9ac"/><path d="M1963.07,1309.49l0-3.3Z" transform="translate(0)" style="fill:#ece7da"/><path d="M1542.51,1370.59c-2.49-1.28-4.13.17-5.72,1.77l-6.27-4.37c.79-2.3,1.35-4,1.92-5.59l2.26,1.47c0-2.11,4.94-1.2,2.79-4.6l-.37-2.24-1.22-.1v2.94l-1.91,2.47-1.55.05c.38-3.62-2.56-4.54-4.89-5.88s-4.16-2.86-4.8-5.51c-.76-3.16.83-4.75,3.85-6.16l-7.23-1.12-3.31-2.84c.25-.77.49-1.54.74-2.31a2.32,2.32,0,0,1,.74-.15h4.85c.08.53.16,1.06.23,1.6.68.54,1.3,1.42,2.05,1.56a26,26,0,0,0,4.42.1l-2.06.74.71,1,1.44-1.61,11.15,4.8.28-4.58,5.48,1.55.27.24,0,.89.9-.3,1.67,1.51-2.42,2.39,5.29,4.06-5.33,3.45-1.24.82,1.19.86q-.79,2.35-1.61,4.71C1541.9,1364.39,1540.51,1367,1542.51,1370.59Z" transform="translate(0)" style="fill:#1c1e28"/><path d="M1510.13,1334.3c1.2-.22,2.5-3.13,3.58.13q-1.77,8-3.53,15.9a.54.54,0,0,1-.38.61c-3.83.17-4.82-1.44-3.46-5C1507.78,1342.11,1508.88,1338.18,1510.13,1334.3Z" transform="translate(0)" style="fill:#cab9ac"/><path d="M1510.18,1350.33q1.75-7.95,3.53-15.9l3.09,3.13,0,0,0,1c-.25.77-.49,1.54-.74,2.31Z" transform="translate(0)" style="fill:#ece7da"/><path d="M1527.94,1371.1c-3.71,3.67-6.71,3.7-9.39.15l2.86-3Z" transform="translate(0)" style="fill:#ad887d"/><path d="M1501.07,1353.31c.26,1.1.53,2.2.8,3.3-.25.48-.51,1-.76,1.45l.55.21.2-1.66,4,.76-6.75,10.13C1499.82,1362.25,1500.44,1357.78,1501.07,1353.31Z" transform="translate(0)" style="fill:#e2e0d3"/><path d="M1536.63,1373.27c-.05.81-.11,1.62-.16,2.43l-1.72-1.8Z" transform="translate(0)" style="fill:#1c1e28"/><path d="M1515.06,1352.59l-2.45-.18Z" transform="translate(0)" style="fill:#ece7da"/><path d="M1515.06,1352.59l-2.45-.18a3.14,3.14,0,0,0,.13-.68l2.25-.12Z" transform="translate(0)" style="fill:#111110"/><path d="M1515,1351.61l-2.25.12Z" transform="translate(0)" style="fill:#cab9ac"/><path d="M1626.8,1435.05l-3.55.63c-.28-2.45-.52-4.52-.79-6.86-4,1-5.67-1.37-6.44-4.23-1.49-5.51-1.35-5.54-6.76-4.78-.22,0-.53-.53-.8-.81,2.9-3,6-5.81,8.61-9,1.22-1.5,1.54-3.74,2.28-5.65,2-2.13,3.1-1.5,3.88,1a27.26,27.26,0,0,0,1.56,3.45l.15,1.59,0,3.11c.27,1.39.54,2.78.8,4.18,0,3.32,0,6.65.13,10C1626,1430.12,1626.49,1432.58,1626.8,1435.05Z" transform="translate(0)" style="fill:#860102"/><path d="M1626.8,1435.05c-.31-2.47-.77-4.93-.9-7.4-.17-3.32-.1-6.65-.13-10,.4,1.2,1.27,2.47,1.11,3.6-.47,3.21-.21,5.93,2.81,7.75,4.63-3.56,4.63-3.56,7.18-2.4-6.93,1.85-5.21,8.27-4,10.82,4.57,9.55,13.23,14.85,23.43,17.54,0,.25,0,.49,0,.74l1.75,1.7,15.09-1.51a1.26,1.26,0,0,1-.27.64l-.88.39a20.7,20.7,0,0,1-14.68,2.44l-7.26-1.28-1.1-.68-.84-.51-5.93-2.09c-.13-.53-.07-1.31-.41-1.54C1635.12,1448.57,1631.79,1441.12,1626.8,1435.05Z" transform="translate(0)" style="fill:#1c1e28"/><path d="M1619.34,1404.32c-.73,1.91-1,4.15-2.27,5.65-2.62,3.22-5.71,6-8.61,9l-1,1.89-1.34,1.64-.24.21-.09-.08c-1-1.1-2.07-2.21-3.11-3.32l1.74-6.46.95-.77a8.16,8.16,0,0,0,2.27-.62c3.21-2,6.36-4.12,9.53-6.2Z" transform="translate(0)" style="fill:#860102"/><path d="M1605.77,1422.66l.09.08c.38,3.46.34,6.67-4.25,7.19Z" transform="translate(0)" style="fill:#860102"/><path d="M1606.1,1422.53l1.34-1.64Z" transform="translate(0)" style="fill:#860102"/><path d="M1601,1431l.72-1Z" transform="translate(0)" style="fill:#860102"/><path d="M1575.81,1364.35l1.87,1.5a15.61,15.61,0,0,0-2.93,2.52c-1.43,2-2.6,4.24-3.84,6.39-.47.82-.85,1.69-1.22,2.43,11,3,21.52,4.88,31.92,1.35-.23-2.5-.41-4.34-.58-6.17,3.33,2.13,6.82,4.06,10.14,6.19a36.94,36.94,0,0,0,2.75,2.74c-2.26,2.26-8.16,6.88-11.55,10.27a62.5,62.5,0,0,1-8,10.31c-1.24,3.27-2.74,4.7-3.5,7.79-1.46,2.52-9,1.16-11.39-1.09-4.22-3.94-8.36-8-12.59-11.89-1.81-1.69-3.72-3.27-5.68-4.78-.41-.32-1.26,0-1.87-.16-1.33-.31-3-.32-3.85-1.17-1.56-1.6-2.87-2.48-4.87-.92-5.36-4.45-6.47-10.17-4.91-16.66l2.33-.06c.5.49,1,1.41,1.49,1.39,2.37-.07,4.77-.81,7.08-.55,5.11.56,7.09-2.69,8.84-6.47h0l1.85-.86Z" transform="translate(0)" style="fill:#860102"/><path d="M1548.05,1372.94l-2.33.06-3.21-2.41c-2-3.57-.61-6.2,2.33-8.4l3.33,1.85,2.19,5.06Z" transform="translate(0)" style="fill:#ad887d"/><path d="M1591.83,1407l2.55-5.08.14-.29,9.7-12.38a3.55,3.55,0,0,0,.48,1.12c3.72,4,5.78,7.88,1.13,12.81-.81.86.46,3.66.77,5.56l-.64.79c-.65,1.49-.74,1.57-1.56,3.39l-1.74,6.46-1.45,2.77c-1-2.72-1.62-5.69-3.14-8.09C1596.43,1411.39,1594,1409.29,1591.83,1407Z" transform="translate(0)" style="fill:#333"/><path d="M1861.17,1210.52l-.87-.53,1.17.18Z" transform="translate(0)" style="fill:#423c30"/><path d="M1704.28,1194.91l.9.07Z" transform="translate(0)" style="fill:#cab9ac"/><path d="M1656.31,1455c-10.2-2.69-18.86-8-23.43-17.54-1.22-2.55-2.94-9,4-10.82-2.55-1.16-2.55-1.16-7.18,2.4-3-1.82-3.28-4.54-2.81-7.75.16-1.13-.71-2.4-1.11-3.6-.26-1.4-.53-2.79-.8-4.18l0-3.11-.15-1.59q-.33-9.65-.65-19.28c8.14-9.44,17.35-18,23.78-28.85l1.21.17c-.45,3.44-.91,6.88-1.36,10.33l.78,0,2.84-4.75c.79.47,1.93.75,2.32,1.45,3.56,6.34,10.63,5.6,15.86,8.73,1.26-4,2.47-7.33,3.37-10.75,1.17-4.44,2.18-8.93,3-13.44a2.9,2.9,0,0,0-1.34-2.45c-7.65-2-15.34-3.88-23-5.78,1-10,5.32-18.78,10.22-27.33.89-1.54,1.58-3.18,2.36-4.78l2.18-3.27,2.32-1.86c3.33-.13,7.81-5,7.52-8.24,2.12-2,1-3.68,2.47-7.42s5-8.16,7.51-12.25c-.94,2.17-2,4.29-2.79,6.52a39.59,39.59,0,0,0-1.64,6.69,38.33,38.33,0,0,0-.3,6.43,3.2,3.2,0,0,0,.93,2.35,2.4,2.4,0,0,0,2.31-.61c1.17-1.75,2-3.71,3-5.57.51-1,1.08-1.9,1.62-2.85l.2.2c.43.39.85,1.1,1.29,1.12a7.48,7.48,0,0,1,6.81,8.83c-.37,1.58,0,3.35.11,5,1.17-.06,2.78.32,3.41-.29a7.23,7.23,0,0,0,2.2-4.18c.16-2.41.76-3.69,3.37-3.28a36.8,36.8,0,0,0,1.77,3.69,33.08,33.08,0,0,0,2.36,3.08q2.1,3.69,4.19,7.4a33.61,33.61,0,0,0,2.28,4.28c3.83,5.23,7.78,10.37,11.68,15.55l.91.85h0c3.81,6,7.58,12,11.46,17.92,3.76,5.73,7.63,11.4,11.51,17a7.12,7.12,0,0,0,1.86,1.37v0l.57,1.34c.09.67.18,1.34.26,2-2.79,7.82-5.59,8.8-16.52,5.77-1.39-.74-2.82-1.43-4.16-2.24s-2.32-1.58-3.47-2.37l-1.36-1.06a52.67,52.67,0,0,1-5-3.44c-1.78-1.51-3.33-3.28-5-4.94.18-1,.82-2.22.44-2.88-.6-1-1.88-1.71-2.94-2.59l3.73-3.94c-1.08-2.76-2.55-5.07-2.81-7.51-.5-4.76-4.57-10.8-9-12.68-3-1.28-6-2.36-7.34-6.14-.49-1.42-3.24-2.12-5-3-.32-.15-1,.52-1.58.81l1.2,1.55,3.4,6.62h0c2.36,7.6,4.64,15.22,7.13,22.78,1,3,2.42,5.75,3.66,8.62l0,0c1.49,1.07,4,3.31,4.31,3,3.59-3,3,.77,3.88,2.15l3.17-.46.51.8-1.85,2c-2.76-1.12-6-1.7-8.18-3.48-3-2.42-5.39-2.57-7-1l-2.8,9.66a8.53,8.53,0,0,0,3.64-3.23c1-1.33,1.86-2.7,3-4.4.39,1.54.64,2.56,1,3.75l3.15-1.11c-.32,4.12,2.17,6.7,6.79,6.69l-4.84,5.45c4,1.61,1.92,4,.77,6.31s-1.78,5.18,0,6.93c1.07,1,3.87.33,5.88.45a14.45,14.45,0,0,1,1.84.32l-6.18,2.9-3.85,6.42c-10.29,6.21-16.68,16.11-23.9,25.22-.29.32-.57.65-.85,1l-1.75,2.44-8.9,11.66-2.33,1.69Zm19.13-136.33.13-.37-.22.28-.13.37Zm-42.29,71.72-.94.74c-2.26,1.39-4,2.94-1.63,5.66v5.82c3.64.52,3.27-1.56,2.63-3.83q-.36-3.7-.74-7.41l.82-.84.24-.63Zm54.68-55.22,2.39-1.43c0-1.25.22-2.63-.22-3.73-2-4.85-4.1-9.62-6.38-14.88-1,7.34,3,12.65,6,18.26l-1.86,1.72-.85,1.63-8.55-9.38c-1.19,3-.48,5.44,2.16,7.42,1.51,1.14,3.28,2.19,4.27,3.72,3,4.67,5.61,9.61,8.56,14.32,3.53,5.66,6.51,11.94,15,14.21-1.62-2.74-2.55-5.1-4.15-6.84-3.57-3.91-7.93-7.16-11.1-11.34-2.66-3.53-4.1-8-6.08-12Zm0-27.35-.38-.13.29.22q1.24,3.3,2.51,6.58c.61,2,1.1,3.94,1.88,5.81a3.42,3.42,0,0,0,2,1.68c2.86.84,5.81,1.38,8.68,2.2,2.53.73,5,1.7,7.5,2.56l.55-1.23c-6.49-4.28-16.32-2.85-20.53-11.06-.33-1.74-.66-3.48-1.06-5.57l5.07-1.45-.09-.55Zm-21,13.41a26,26,0,0,0,5.15-1.87c1.39-.84,2.38-2.34,3.9-3.92C1669.16,1315.38,1665.63,1318,1666.86,1321.22Z" transform="translate(0)" style="fill:#1a1a1a"/><path d="M1649.13,1360.84l-1.21-.17q1.85-8.22,3.7-16.44c7.69,1.9,15.38,3.75,23,5.78a2.9,2.9,0,0,1,1.34,2.45c-.87,4.51-1.88,9-3,13.44-.9,3.42-2.11,6.77-3.37,10.75-5.23-3.13-12.3-2.39-15.86-8.73-.39-.7-1.53-1-2.32-1.45C1650.64,1364.6,1649.88,1362.72,1649.13,1360.84Zm2.92-7.92c1.08-.74,2.21-1.09,2.42-1.75a31.32,31.32,0,0,0,.81-5.06C1651.6,1346.33,1651.59,1349.05,1652.05,1352.92Z" transform="translate(0)" style="fill:#333"/><path d="M1601,1372.37c.17,1.83.35,3.67.58,6.17-10.4,3.53-20.92,1.62-31.92-1.35.37-.74.75-1.61,1.22-2.43,1.24-2.15,2.41-4.36,3.84-6.39a15.61,15.61,0,0,1,2.93-2.52c5.4,1.09,10.82,2.07,16.17,3.33a33.8,33.8,0,0,1,5.53,2.36l1.19.69A.31.31,0,0,1,1601,1372.37Z" transform="translate(0)" style="fill:#a70201"/><path d="M1549,1345.89l6.58,5.81c2.28,1.35,4.56,2.68,6.83,4,3,1.78,5.9,3.57,8.82,5.42,1.58,1,3.08,2.11,4.62,3.18l-8.49,2.11-1.85.86h0a18.06,18.06,0,0,1-3.59,1.52,29.94,29.94,0,0,1-4.65.26l-.1-1.19c.68,0,1.79.17,2-.14,2-3.76,5.85-4.17,10.49-5-2.86-2.24-4.7-4.78-6.81-5s-4.69,1.69-7,2.65l-1.76,3c-1.94.24-3.66,2.55-5.83.63l-3.33-1.85q.81-2.37,1.61-4.72l.07-.06,2.86-.4-2.9-1.23h0l5.33-3.45-5.29-4.06Zm-.64,14.39a.79.79,0,0,0-.29-.08s-.06.14-.09.22a1,1,0,0,0,.28.08S1548.29,1360.36,1548.32,1360.28Z" transform="translate(0)" style="fill:#423c30"/><path d="M1606.59,1408.7c-.3-1.9-1.57-4.7-.76-5.56,4.65-4.93,2.59-8.84-1.13-12.81a3.55,3.55,0,0,1-.48-1.12l9.7-7.91c2.28,2.15,4.53,4.32,6.84,6.42a31.76,31.76,0,0,0,2.81,2.07q-3.46,3.64-6.94,7.27l.07,0-.94.36c-2.28,3.26-3.41,6.65-8.84,10.78A.47.47,0,0,1,1606.59,1408.7Z" transform="translate(0)" style="fill:#1a1a1a"/><path d="M1540.09,1332l-.14,1.25-6.81,2.58-.7-.66c-1.28-4.44-5.35-4.15-8.68-5.13l.61-1h.77l-.53-.48,7.17-2.72c.61-.12,1.21-.23,1.78-.32l.2-.12-.55.7,5.77,5.12.53,1,.63-.41Z" transform="translate(0)" style="fill:#111110"/><path d="M1616.63,1397.06q3.46-3.63,6.94-7.27a1.12,1.12,0,0,0,.57-.27q.33,9.63.65,19.28a27.26,27.26,0,0,1-1.56-3.45c-.78-2.53-1.92-3.16-3.88-1l-2.2,1,4.68-9.65Z" transform="translate(0)" style="fill:#111110"/><path d="M1533.76,1325.38l-.2.12a4.48,4.48,0,0,0-.58-.14Z" transform="translate(0)" style="fill:#ddd9cb"/><path d="M1600.57,1372.23l-1.19-.69Z" transform="translate(0)" style="fill:#1c1e28"/><path d="M1775.41,1486.33c1.54,1.69,3.08,3.39,4.63,5.08l1.29,3.19c.55,3.46-1.14,6-3.53,8.13-3.24,1.2-6.8,1.93-9.64,3.76-1.94,1.26-2.89,4.06-4.29,6.18l-2.27.87c-3.89-3.33-8.39-3.52-13.12-2.6l2.09-2.89-18.44-7.63c-.18.67-.42,1.57-.65,2.46a17.23,17.23,0,0,1-1.15,3.47c-.37.66-1.32,1-2,1.47q.17-4.82.31-9.63c.91-.25,2.57-.41,2.62-.79.53-3.94.8-7.91,1.14-11.87,0-.56,0-1.12,0-1.67l.81-5.78.17-1.45c.46-2.82.93-5.65,1.39-8.48l-.17-1.61c.09-3.32.17-6.63.26-10l-.11-.81q1.32-4.92,2.63-9.84c.57,5.69,4.64,8.7,8.89,11.56l1,.72.17.21.26,0a56.91,56.91,0,0,0,6.37,2.17c3.37.73,6.81,1.14,10.21,1.69l-4.62,1h0c-2.49.08-5.31-.75-6.62,2.48h0l-5.06-3.11-1.76,2.7-4.45-6.68.22-.21-4.62-6.54c-.55,10.16-1,19.08-1.53,28.18,2.24.77,7.1-.81,6.17,5,5.15,1.22,5.2,1.82,4.15,7-.38,1.87.58,5,2,6,2,1.39,5.11,2.77,7.31-1,1-1.64,3.17-2.9,5.08-3.57,4.45-1.57,9.78-1.11,12.6-6.13C1773.51,1486.74,1774.65,1486.64,1775.41,1486.33Z" transform="translate(0)" style="fill:#a70201"/><path d="M1728.62,1498.19q-.15,4.82-.31,9.63c2.48,5.26,1.53,6.9-4.26,7.34,0-2.71,0-5.43,0-8.15q.3-6.18.59-12.37c.06-1.13.08-2.26.12-3.38l3.61,7.44-.08-.32Z" transform="translate(0)" style="fill:#423c30"/><path d="M1732.38,1485.53c-.34,4-.61,7.93-1.14,11.87,0,.38-1.71.54-2.62.79l-.28.19.08.32c-.18-3.73-.35-7.46-.53-11.19Z" transform="translate(0)" style="fill:#e2e0d3"/><path d="M1727.89,1487.51c.18,3.73.35,7.46.53,11.19l-3.61-7.44c-.17-2.58-.33-5.15-.5-7.73l3.56,3.94Z" transform="translate(0)" style="fill:#111110"/><path d="M1727.87,1487.47l-3.56-3.94c.21-3.06,2-1.87,2.68-.65S1727.61,1485.92,1727.87,1487.47Z" transform="translate(0)" style="fill:#e2e0d3"/><path d="M1732.45,1469.73c0,.33,0,.65,0,1C1732.44,1470.38,1732.45,1470.06,1732.45,1469.73Z" transform="translate(0)" style="fill:#ece7da"/><path d="M1775.09,1509v.72h2.16V1509Zm25.44,20.47.91-1.7a3.7,3.7,0,0,0-1.22-.59c-.21,0-.68.58-.64.84S1800,1528.73,1800.53,1529.44Zm-24.27-25.38-1.31,1.3c.55.43,1.09.87,1.67,1.25.06,0,.57-.38.54-.47C1776.91,1505.43,1776.57,1504.75,1776.26,1504.06ZM1794,1523a3.71,3.71,0,0,0-.27-.65s-.34,0-.35.06a3.82,3.82,0,0,0-.07.68Z" transform="translate(0)" style="fill:#e0d8c9"/><path d="M1775.41,1486.33c-.76.31-1.9.41-2.21,1-2.82,5-8.15,4.56-12.6,6.13-1.91.67-4.13,1.93-5.08,3.57-2.2,3.81-5.26,2.43-7.31,1-1.43-1-2.39-4.13-2-6,1-5.16,1-5.76-4.15-7,.93-5.85-3.93-4.27-6.17-5,.49-9.1,1-18,1.53-28.18l4.62,6.54-.22.21,4.45,6.68,1.76-2.7,5.06,3.11.29.16-.3-.16c1-3.82,7.16-2.41,6.61-2.48l4.62-1c7.52,2.34,14.38.38,21-3.19a2.56,2.56,0,0,0,.45.48l-.44,2h0l-.74,1.64a.69.69,0,0,0-.16.64l-2,4.39a.41.41,0,0,0-.24.55c-.11.32-.22.65-.34,1-2.35,4.42-4.8,8.79-7,13.29C1774.45,1483.86,1775.19,1485.22,1775.41,1486.33Z" transform="translate(0)" style="fill:#860102"/><path d="M1785.9,1458.62l-.6.45c-6.62,3.57-13.48,5.53-21,3.19-3.4-.55-6.84-1-10.21-1.69a56.91,56.91,0,0,1-6.37-2.17,27.55,27.55,0,0,0,2.9-1.66c1.42-1.08,2.74-2.29,4.1-3.45l2.94,1.53-3.68,2.24.51,1.18,8-1.43-3.4-1.68,2.28-1.53,1.77-.48h1.35c1.45-.06,2.94.28,3.93-.43a10.47,10.47,0,0,1,9.07-1.58c.56.14,1.36-.62,2-1,2.37-.91,9.62-5.45,9.92-5.36C1789.45,1445.26,1785.85,1458.93,1785.9,1458.62Zm-16.21-3.07" transform="translate(0)" style="fill:#1a1a1a"/><path d="M1784.56,1463.2c.25-.55.5-1.09.74-1.64C1785.06,1462.11,1784.81,1462.65,1784.56,1463.2Z" transform="translate(0)" style="fill:#e2e0d3"/><path d="M1781.81,1469.75c.12-.32.23-.65.34-1C1782,1469.1,1781.93,1469.43,1781.81,1469.75Z" transform="translate(0)" style="fill:#e2e0d3"/><path d="M1791.1,1528c7.22,1.9,8.58,3.21,9.13,8.73l-1,8.91c-4.79,1.3-9.52,3.09-14.4,3.74-4.45.59-9.07-.07-13.61-.18l-1.67-.81c-.43-2.14-1.3-2.21-2.55-.55l-1.5-.49c-.32-1.52-.78-3.31,1.69-3.09,3.28.28,4-1.52,4-4.23h0l2.49.79c.56,1.27,1.13,2.53,1.69,3.79-.29,1-.59,1.91-.88,2.86l-.15.28.15-.28a25.64,25.64,0,0,1,2.93.53c3.79,1.15,5.54.23,6.83-3.68l-3,2.83.6-4.63,0,.07,3.07-5.92-2-.81-1.56-7.43,3.78-.83c-.27,1.43-1.14,3.88-.72,4.13a22.62,22.62,0,0,0,6.89,2.64c1.09.22,2.44-.79,4.63-1.58C1794,1530.84,1792.54,1529.43,1791.1,1528Z" transform="translate(0)" style="fill:#1c1e28"/><path d="M1714.25,1554.13l17.32,3.13,19.06.3,1.6,0a40.07,40.07,0,0,0,20.71.39l14-.68,12.45-3.16c3.31,1,1.39,2.94.29,3.74-1.78,1.28-4.05,1.9-6.11,2.8-15.83.24-31.66.62-47.49.67-8.64,0-17.28-.5-25.92-.78C1716.88,1559.56,1714.12,1558.17,1714.25,1554.13Zm31.66,6,0,.43h2.62l0-.63Z" transform="translate(0)" style="fill:#423c30"/><path d="M1772.94,1557.92a40.07,40.07,0,0,1-20.71-.39c.83-1.12,1.67-2.23,2.5-3.34l-1.69-.9v0l5.76.71c1.93,5,6,1.2,8.81,2.72l.27-1.55-7.46-1.16c0-.78,0-1.56,0-2.35a59.15,59.15,0,0,0,7.66-.22c1.13-.17,2.08-1.45,3.12-2.23,4.54.11,9.16.77,13.61.18,4.88-.65,9.61-2.44,14.4-3.74.48,1.72,1,3.44,1.44,5.18-1.25.78-2.55,1.59-3.84,2.41l-1.65.2.17.56,1.52-.71,2.46.77-12.45,3.16c-1.68-.4-3.94-.25-4.92-1.3-3.6-3.82-7.55-2.13-11.59-1.54Z" transform="translate(0)" style="fill:#cab9ac"/><path d="M1803.3,1533.11l.09-.25c.09,0,.2.05.26.12s0,.15-.07.24Z" transform="translate(0)" style="fill:#e0d8c9"/><path d="M1717.62,1526c.27-.53.54-1.06.8-1.6l1.76,0,.26.13.28-.09,7.89,11.48c-.7.77-1.4,1.54-2.09,2.32-1.77-2.83-3.63-5.61-5.27-8.51-1-1.7-2-1.79-3.53-.91C1717.69,1527.87,1717.66,1526.94,1717.62,1526Z" transform="translate(0)" style="fill:#cab9ac"/><path d="M1773.75,1540.85l-2.49-.79c-.26-.19-.52-.38,0,0-.64-.2-.33-.1,0,0,0,2.71-.76,4.51-4,4.23-2.47-.22-2,1.57-1.69,3.09l-10.71-3.33-1-1.44,2.73-1.85c-4-1.32-7.54-2.52-11.1-3.65a11.74,11.74,0,0,0-2.39-.26l0,.07a13.69,13.69,0,0,0-9.51-7.79c1.08,5.67,6.32,5.22,9,7.83.32,1,.37,2.31,1,3a33.89,33.89,0,0,0,4.36,3.26l-4,.27-7.31.67-5.21-1.35,6-2.31c-8.35-7.54-12.23-10.36-12-19l-4.82,3-.28.09-.26-.13,1.35-3.35c.41-.84.82-1.67,1.22-2.5l5.67,2.63-.31.38,5.85.3c.84-.62,3.33-1.54,4-3.18.78-2,1.87-1.89,3.28-2-.2,1.07-.4,2.14-.59,3.19,2.14,1.63,6.25-2.34,7.27,2.11s-3.78,4-6.71,6.29l7.71-.66-4.61,3.66-.23,1.31c4.74-2.83,7.39.21,10.39,2.36.28.2,1-.18,1.54-.4,2-.91,4-1.87,6-2.81l2,3.37,5-.9c1.81,3,3.24,1.53,4.56-.79l5.64,10.34Z" transform="translate(0)" style="fill:#423c30"/><path d="M1736.7,1544.15l7.31-.67-2.46,4.77a7.72,7.72,0,0,0,.72,2.34,22.78,22.78,0,0,0,2.57,2.53c1,.86,2.07,1.75,3.15,2.58.85.66,1.76,1.25,2.64,1.86l-19.06-.3,4.16-3.21a12.68,12.68,0,0,1,2.73.67c2.77,1.4,3.63.23,3.7-2.94-2.32.38-5-2.7-6.43,1.51l-3.33-.24,2.44-2.74-5.51-4.7Z" transform="translate(0)" style="fill:#cab9ac"/><path d="M1720.72,1524.42l4.82-3c-.28,8.66,3.6,11.48,12,19l-6,2.31-4-.29.81-3,4.39.58.23-.74-4.32-3.41Z" transform="translate(0)" style="fill:#1c1e28"/><path d="M1735.73,1553.29c1.48-4.21,4.11-1.13,6.43-1.51-.07,3.17-.93,4.34-3.7,2.94a12.68,12.68,0,0,0-2.73-.67C1735.72,1553.8,1735.73,1553.54,1735.73,1553.29Z" transform="translate(0)" style="fill:#e8e3d6"/><path d="M1728.61,1535.9l4.32,3.41-.23.74-4.39-.58-1.79-1.25C1727.21,1537.44,1727.91,1536.67,1728.61,1535.9Z" transform="translate(0)" style="fill:#ad887d"/><path d="M1522.39,1338.43h-4.85c-.25-.29-.51-.58-.76-.88l0,0,4.87-5.87c.36,1.42.73,2.85,1.08,4.23,3.38-.48,6.31-3.5,9.69-.79l.7.66c-2.61.34-5.25.56-7.83,1.06A11,11,0,0,0,1522.39,1338.43Z" transform="translate(0)" style="fill:#111110"/><path d="M1532.44,1335.13c-3.38-2.71-6.31.31-9.69.79-.35-1.38-.72-2.81-1.08-4.23l2.09-1.69C1527.09,1331,1531.16,1330.69,1532.44,1335.13Z" transform="translate(0)" style="fill:#1c1e28"/><path d="M1524.61,1328.54l.53.48h-.77A.35.35,0,0,1,1524.61,1328.54Z" transform="translate(0)" style="fill:#1c1e28"/><path d="M1789.35,1403.17l3.39,2.2c3,.17,4.37,2,5,4.82.27,1.2,1.33,2.22,2.13,3.47l2.61-5-.2,10-2.54-2.17,1.3,6.62-.06.27-1.62,4.61c-.44,1-.89,2-1.34,3-1.27.81-3.16,1.31-3.71,2.46a11.18,11.18,0,0,1-8.82,6.69c-5.61,1-11.13,2.51-16.69,3.81l-5.34-2,0-.11,2.13-3.25c-5,.09-6.84-4.59-10-7.62h0c9.54,1.62,9.54,1.62,11.2-.27l-11-2.81.27-.85,7.37-.52.06-1.14L1754,1423l0-1.14c2.94,0,5.87,0,8.8,0a6.6,6.6,0,0,0,6.33-4l-13.54-.83c1.74-.36,3.51-.65,5.22-1.09,9.86-2.56,19.38-5.82,26.95-13.09Z" transform="translate(0)" style="fill:#a70201"/><path d="M1787.85,1402.94c-7.57,7.27-17.09,10.53-26.95,13.09-1.71.44-3.48.73-5.22,1.08l-2.48,3.39c-.37-1.58-1.37-3.35-1-4.69a16.31,16.31,0,0,1,3.54-5.7c.44-.5,2.13.1,3.25.2.22-3-1.1-3.61-5.21-1.93-2.68-2.4-3.06-4.27,1-5.73,1.18-.43,2.07-1.67,3.2-2.62-.93-1.66-1.72-3.09-2.52-4.51l.93-1,7.16,4.34-.27-3.31C1773.25,1392.62,1780.8,1397,1787.85,1402.94Z" transform="translate(0)" style="fill:#333"/><path d="M1731.41,1375.15c1.15.79,2.27,1.65,3.47,2.37s2.77,1.5,4.16,2.24c-.2,4.66-5.13,6.29-6.55,10.19-.31.85-1.63,1.67-1.5,2.31,1.16,5.71-4.46,6.08-6.84,9a14.45,14.45,0,0,0-1.84-.32c-2-.12-4.81.6-5.88-.45-1.78-1.75-1.15-4.59,0-6.93s3.2-4.7-.77-6.31l4.84-5.45c-4.62,0-7.11-2.57-6.79-6.69l-3.15,1.11c-.31-1.19-.56-2.21-1-3.75-1.15,1.7-2.06,3.07-3,4.4a8.53,8.53,0,0,1-3.64,3.23l2.8-9.66c1.61-1.6,4-1.45,7,1,2.23,1.78,5.42,2.36,8.18,3.48,1.34,2.17,2.67,4.36,4,6.52.66,1,1.4,2,2.1,3l4.35-3.83c-.83-.83-1.67-1.66-2.49-2.51-1.06-1.08-2.1-2.17-3.14-3.26l0,0,4.27,0Z" transform="translate(0)" style="fill:#333"/><path d="M1753.2,1420.5l2.48-3.39,13.54.84a6.6,6.6,0,0,1-6.33,4c-2.93,0-5.86,0-8.8,0l0,1.14,9.38,2.36-.06,1.14-7.37.52-.27.85,11,2.81c-1.66,1.89-1.66,1.89-11.2.27-.26-.2-.52-.39,0,0-.6-.18-.28-.08,0,0,3.17,3,5,7.71,10,7.62-.85,1.3,22,3.85,24.24,3.85a4,4,0,0,1-1.13,3.39c-2.26,2.27-10.84,5.39-11.3,5.66-.45,0-7.91,2.26-14.25,1.62l-1.92-.26c-5.38-2.77-10.3-6.1-13.77-11.21l-4.42-5.8-.35-1v-.12a43.75,43.75,0,0,1,1.29-5.1c1-2.53,2.2-5,3.32-7.44Z" transform="translate(0)" style="fill:#860102"/><path d="M1710.87,1306.24a33.08,33.08,0,0,1-2.36-3.08,36.8,36.8,0,0,1-1.77-3.69c-.4-2.34-.79-4.68-1.26-7.44l-4.27,1.87c.58-1,.92-2.39,1.79-2.94,7.69-4.87,14.74-10.38,19.53-18.36.39-.64,1.6-.79,2.42-1.17-2,5.36-3.8,10.72-1.69,16.5a76.1,76.1,0,0,0-1.61,8.39c-.09,1,1.1,2.2,1.7,3.3-2.65,3.62-5.57,6.69-10.7,5.83C1712.12,1305.36,1711.47,1306,1710.87,1306.24Zm-3.52-12.39c2.18,1.51,3.82,2.72,5.53,3.82,3,1.95,4.85,1.06,5.37-2.43.43-2.89.73-5.8,1-8.7a18.4,18.4,0,0,0-.19-3c-1.11.32-2.55.31-3.26,1C1713,1287.42,1710.4,1290.46,1707.35,1293.85Z" transform="translate(0)" style="fill:#333"/><path d="M1723.35,1299.62c-.6-1.1-1.79-2.26-1.7-3.3a76.1,76.1,0,0,1,1.61-8.39l4.23-10.63,6.67-.79c-3.64,5.23-4.21,11.22-4.3,17.33-.18.23-.35.47-.52.71Z" transform="translate(0)" style="fill:#4d4d4d"/><path d="M1729,1333.47c-3.9-5.18-7.85-10.32-11.68-15.55a33.61,33.61,0,0,1-2.28-4.28h6.8c1.82,3.29,3.78,7.39,5.73,11.2,1.82,3.56,5.6,6.17,6.4,10.9l-4.08-1.42h0Z" transform="translate(0)" style="fill:#333"/><path d="M1763.05,1364.21l5.5,11.61-1.36.46a65.42,65.42,0,0,0-4.42-6.64C1761,1367.56,1761.91,1366,1763.05,1364.21Z" transform="translate(0)" style="fill:#ad887d"/><path d="M1748.81,1357.48c.54-3.61,2.75-2.85,4.72-1.57,2.71,1.77,5.22,3.85,8.61,6.4h-5.68c-.93-1-1.69-2.38-2.83-3.07A25.61,25.61,0,0,0,1748.81,1357.48Z" transform="translate(0)" style="fill:#423c30"/><path d="M1755.56,1374c-.08-.67-.17-1.34-.25-2-.2-.45-.39-.9-.58-1.34v0c.38-.79.75-1.57,1.75-3.69,2.25,4.62,4,8.19,5.74,11.76l-3.41-.59h0l-1.25-1.71Z" transform="translate(0)" style="fill:#423c30"/><path d="M1748.81,1357.48a25.61,25.61,0,0,1,4.82,1.76c1.14.69,1.9,2,2.83,3.07l-4.31,3C1751.14,1362.93,1750,1360.2,1748.81,1357.48Z" transform="translate(0)" style="fill:#333"/><path d="M1764.67,1384.26c.57,2.84,2.4,5.73-.18,8.87l-3.51-3.35.94-.19c-.19-1.93-.38-3.85-.56-5.78Z" transform="translate(0)" style="fill:#333"/><path d="M1750.21,1353.58c-4.56,1.84-6.92.15-9.48-7.23Z" transform="translate(0)" style="fill:#333"/><path d="M1764.67,1384.26l-3.31-.45q-1.27-2.83-2.54-5.67l3.41.59Z" transform="translate(0)" style="fill:#ad887d"/><path d="M1757.57,1376.43l1.25,1.71Z" transform="translate(0)" style="fill:#ad887d"/><path d="M1847,1322.8l-1.11,1.25Z" transform="translate(0)" style="fill:#1c1e28"/><path d="M1808.75,1362.11l-1.62,1Z" transform="translate(0)" style="fill:#ece7da"/><path d="M1725,1271.43c-.82.38-2,.53-2.42,1.17-4.79,8-11.84,13.49-19.53,18.36-.87.55-1.21,1.94-1.79,2.94-2,1.21-3,1.09-3.71-1.56-1.22-4.47-.39-9.33,2.79-11.24,3.34-2,3.24-5.67,6.12-7.59s5.25-4.77,7.7-7.35c3.11-3.27,5.9-6.86,9.19-9.93,1.11-1,3.31-.94,5-1.36l.06,1.82Z" transform="translate(0)" style="fill:#423c30"/><path d="M1733.28,1250.84l8.85-1.49c-1.42,5.73-2.64,10.64-3.86,15.54l-6.73,7.43-2.63,1.06c.82-3.87,1.88-7.71,2.34-11.61.2-1.63-.86-3.4-1.35-5.1l.07-2.51,1.65-1.62Z" transform="translate(0)" style="fill:#423c30"/><path d="M1693.51,1275.86l3.43-1.68c1.1,1.58,2.08,3-.14,4.66-1.14.85-1.84,2.3-2.71,3.5-1.89,2.61-3.15,2.08-4-.76l.34-.33.32-.13-.23-.21-.49-.57Zm-.76,3.89-.19.23.21-.21.11-.28Z" transform="translate(0)" style="fill:#423c30"/><path d="M1728.91,1273.38l2.63-1.06,4.94-.07.94,1-.15,2.34-3.11,1-6.68.79C1728,1276,1728.44,1274.69,1728.91,1273.38Z" transform="translate(0)" style="fill:#333"/><path d="M1736.48,1272.25l-4.94.07,6.73-7.43Q1737.39,1268.58,1736.48,1272.25Z" transform="translate(0)" style="fill:#4d4d4d"/><path d="M1733.28,1250.84l-1.66,1.7Z" transform="translate(0)" style="fill:#1c1e28"/><path d="M1730,1254.16c0,.84,0,1.67-.07,2.51l-1.53,0-.06-1.82Z" transform="translate(0)" style="fill:#1c1e28"/><path d="M1689.35,1292l.46-.26-.26.46Z" transform="translate(0)" style="fill:#282f3f"/><path d="M1690.1,1281.58l-.06-1.24.49.57-.09.34Z" transform="translate(0)" style="fill:#423c30"/><path d="M1686.3,1279l.73-.7Z" transform="translate(0)" style="fill:#282f3f"/><path d="M1742.29,1271.54l-.34-.46.44.35Z" transform="translate(0)" style="fill:#a70201"/><path d="M1713.26,1240.15c-.59.27-1,.58-1.21.52s-.43-.52-.64-.8c.23-.12.48-.38.68-.34A4.49,4.49,0,0,1,1713.26,1240.15Z" transform="translate(0)" style="fill:#111110"/><path d="M1734.16,1276.51l3.11-1c-.24,1-.49,2-1,3.88l5.31,6.08-.53,1-5.29-1.85c1.55,2.46,2.77,4.26,3.82,6.15.43.75.9,1.89.61,2.52a3,3,0,0,1-2.33,1c-2.68,0-5.35-.28-8-.45C1730,1287.73,1730.52,1281.74,1734.16,1276.51Z" transform="translate(0)" style="fill:#111110"/><path d="M1741.51,1306.2l2.15,4.27c-1.77.28-1.77.28-7.62-10.53l13.75,6-.58,1.87-7.71-1.56-.78-1.27-.47.48Z" transform="translate(0)" style="fill:#a70201"/><path d="M1743.59,1291.43l.81.59-.67.65-.72-.76Z" transform="translate(0)" style="fill:#a70201"/><path d="M1745.83,1312.46c-.21-.09-.53-.13-.59-.28s.15-.4.24-.6c.2.08.52.13.58.28S1745.91,1312.26,1745.83,1312.46Z" transform="translate(0)" style="fill:#a70201"/><polygon points="1741.94 1287.43 1742.02 1287.66 1741.81 1287.63 1741.94 1287.43" style="fill:#111110"/><path d="M1730.74,1301.26l.33.14-.29-.18Z" transform="translate(0)" style="fill:#111110"/><path d="M1838.65,1325.11l-.48.5a4.45,4.45,0,0,1-.38-.58s.2-.29.24-.28A3.85,3.85,0,0,1,1838.65,1325.11Z" transform="translate(0)" style="fill:#111110"/><path d="M1841.53,1322.77l-.21.29c0-.12.09-.24.13-.37Z" transform="translate(0)" style="fill:#111110"/><path d="M1799.15,1401.24q1.68,3.73,3.35,7.47l-2.61,5c-.8-1.25-1.86-2.27-2.13-3.47-.65-2.82-2-4.65-5-4.82Z" transform="translate(0)" style="fill:#860102"/><path d="M1865.46,1304.55Z" transform="translate(0)" style="fill:#e2ded1"/><path d="M1881.59,1330.23c-.23-.4-.46-.8-.68-1.2C1881.13,1329.43,1881.36,1329.83,1881.59,1330.23Z" transform="translate(0)" style="fill:#ece7da"/><path d="M1744,1336.78l-.16.26.16-.26Z" transform="translate(0)" style="fill:#a70201"/><path d="M1961.28,1321.77c.23-1.34.46-2.68.7-4l1.06-1.61,1.71,1.42c-.51,1.73-.64,2.94-1.23,3.84C1963.24,1321.84,1962.05,1321.67,1961.28,1321.77Z" transform="translate(0)" style="fill:#cab9ac"/><path d="M1963,1316.15l-1.06,1.61.3-1.63A6.37,6.37,0,0,1,1963,1316.15Z" transform="translate(0)" style="fill:#ece7da"/><path d="M1648.12,1456.92l.84.51Z" transform="translate(0)" style="fill:#cab9ac"/><path d="M1541.58,1335.81q2.25,3.87,4.51,7.74l-5.48-1.55-.28,4.58-11.15-4.8-.09-.09a26,26,0,0,1-4.42-.1c-.75-.14-1.37-1-2.05-1.56.82,0,1.64.1,2.45,0,3.37-.22,8.42.76,9.73-1C1536.88,1336.26,1538.87,1335.94,1541.58,1335.81Z" transform="translate(0)" style="fill:#111110"/><path d="M1541.58,1335.81c-2.71.13-4.7.45-6.78,3.25-1.31,1.78-6.36.8-9.73,1-.81.05-1.63,0-2.45,0-.07-.54-.15-1.07-.23-1.6a11,11,0,0,1,2.92-1.58c2.58-.5,5.22-.72,7.83-1.06l6.81-2.58Z" transform="translate(0)" style="fill:#d7d3c6"/><path d="M1534,1362.34l1.92-2.47,1.58-.6c2.15,3.4-2.81,2.49-2.78,4.58Z" transform="translate(0)" style="fill:#ad887d"/><path d="M1537.49,1359.27l-1.58.6c0-1,0-2,0-2.94l1.22.1Z" transform="translate(0)" style="fill:#423c30"/><path d="M1529.18,1341.78l-1.44,1.61-.71-1,2.06-.74Z" transform="translate(0)" style="fill:#111110"/><path d="M1532.44,1362.39l1.55-.05.72,1.51c-.77-.47-1.52-1-2.27-1.45Z" transform="translate(0)" style="fill:#423c30"/><path d="M1546.45,1357.47l-1.19-.86,1.24-.82h0c0,.54,0,1.08,0,1.63Z" transform="translate(0)" style="fill:#423c30"/><path d="M1546.36,1343.79l.93.59-.9.3Z" transform="translate(0)" style="fill:#111110"/><path d="M1516.78,1337.54c.25.3.51.59.76.88a2.32,2.32,0,0,0-.74.15C1516.79,1338.23,1516.79,1337.88,1516.78,1337.54Z" transform="translate(0)" style="fill:#ddd9cb"/><path d="M1501.86,1356.61l-.2,1.66-.55-.21c.25-.49.51-1,.76-1.45Z" transform="translate(0)" style="fill:#d7d3c6"/><path d="M1624.94,1410.39l0,3.11Z" transform="translate(0)" style="fill:#111110"/><path d="M1676.39,1452.53l-2.15,2.43-1.3.94.21,0-15.09,1.51-1.75-1.7c0-.25,0-.49,0-.74Z" transform="translate(0)" style="fill:#423c30"/><path d="M1656.31,1455.73l1.75,1.7Z" transform="translate(0)" style="fill:#282f3f"/><path d="M1616.63,1397.06l5.2-1.42-4.68,9.65c-3.17,2.08-6.32,4.19-9.53,6.2a7.83,7.83,0,0,1-2.27.61c.2-.87.4-1.74.61-2.61l.64-.79a.47.47,0,0,0,.32-.55c1.18-1.2,2.37-2.39,3.56-3.59l1.29-1.71,0,.05.84-1-.14.06c1.42-1.67,2.84-3.33,4.25-5Z" transform="translate(0)" style="fill:#860102"/><path d="M1606,1409.49c-.21.87-.41,1.74-.61,2.61l-.95.78" transform="translate(0)" style="fill:#a70201"/><path d="M1557.22,1369.09a29.94,29.94,0,0,0,4.65-.26,18.06,18.06,0,0,0,3.59-1.52c-1.75,3.78-3.73,7-8.84,6.47-2.31-.26-4.71.48-7.08.55-.48,0-1-.9-1.49-1.39l2.31-3.84C1552.65,1369,1554.93,1372.63,1557.22,1369.09Z" transform="translate(0)" style="fill:#111110"/><path d="M1565.47,1367.32l1.85-.86Z" transform="translate(0)" style="fill:#111110"/><path d="M1557.22,1369.09c-2.29,3.54-4.57-.14-6.86,0l-2.19-5.06c2.17,1.92,3.89-.39,5.83-.63-1.94,3.57,1.14,3.65,3.12,4.49Z" transform="translate(0)" style="fill:#1c1e28"/><path d="M1696.77,1329.35l-1.2-1.55c.54-.29,1.26-1,1.58-.81,1.8.86,4.55,1.56,5,3,1.3,3.78,4.36,4.86,7.34,6.14,4.39,1.88,8.46,7.92,9,12.68.26,2.44,1.73,4.75,2.81,7.51l-3.73,3.94c1.06.88,2.34,1.54,2.94,2.59.38.66-.26,1.9-.44,2.88-5.06-1.69-5.9-3.29-4.86-8.46-1.84-1.73-3.94-3-5-4.83-2.47-4.25-4.34-8.85-6.69-13.18-.72-1.31-2.21-2.19-3.35-3.27h0Z" transform="translate(0)" style="fill:#333"/><path d="M1700.16,1336c1.14,1.08,2.63,2,3.35,3.27,2.35,4.33,4.22,8.93,6.69,13.18,1.07,1.85,3.17,3.1,5,4.83-1,5.17-.2,6.77,4.86,8.46,1.65,1.66,3.2,3.43,5,4.94a52.67,52.67,0,0,0,5,3.44,1.18,1.18,0,0,0,0,.67l-4.27,0c-.1-.33-.21-.66-.31-1l-.29.19.58.82c1,1.09,2.08,2.18,3.14,3.26.82.85,1.66,1.68,2.49,2.51l-4.35,3.83c-.7-1-1.44-2-2.1-3-1.37-2.16-2.7-4.35-4-6.52l1.85-2-.51-.8-3.17.46c-.85-1.38-.29-5.14-3.88-2.15-.35.29-2.82-1.95-4.31-3l1-.74-.27-.27-.73,1c-1.24-2.87-2.69-5.67-3.66-8.62C1704.8,1351.19,1702.52,1343.57,1700.16,1336Zm14.44,32a.72.72,0,0,0-.09.27s.15.06.23.09a.7.7,0,0,0,.08-.27S1714.68,1368,1714.6,1368Z" transform="translate(0)" style="fill:#111110"/><path d="M1687,1336.81c2,4,3.41,8.5,6.07,12,3.17,4.18,7.53,7.43,11.1,11.34,1.6,1.74,2.53,4.1,4.15,6.84-8.47-2.27-11.45-8.55-15-14.21-2.95-4.71-5.55-9.65-8.56-14.32-1-1.53-2.76-2.58-4.27-3.72-2.64-2-3.35-4.38-2.16-7.42l8.55,9.38Z" transform="translate(0)" style="fill:#333"/><path d="M1690.3,1314.44c4.21,8.21,14,6.78,20.53,11.06l-.55,1.23c-2.5-.86-5-1.83-7.5-2.56-2.87-.82-5.82-1.36-8.68-2.2a3.42,3.42,0,0,1-2-1.68c-.78-1.87-1.27-3.86-1.88-5.81Z" transform="translate(0)" style="fill:#111110"/><path d="M1689.63,1333.38c-3-5.61-7-10.92-6-18.26,2.28,5.26,4.43,10,6.38,14.88.44,1.1.17,2.48.22,3.73A.68.68,0,0,0,1689.63,1333.38Z" transform="translate(0)" style="fill:#e2e0d3"/><path d="M1666.86,1321.22c-1.23-3.21,2.3-5.84,9.05-5.79-1.52,1.58-2.51,3.08-3.9,3.92A26,26,0,0,1,1666.86,1321.22Z" transform="translate(0)" style="fill:#423c30"/><path d="M1672.16,1302.14l4.06-3.39c.29,3.21-4.19,8.11-7.52,8.24,0-.53.09-1,.14-1.58l0,0,.86-.85,0,0,2.53-2.48Z" transform="translate(0)" style="fill:#1c1e28"/><path d="M1632.47,1391.36q.38,3.71.74,7.41l-2.63-2c-2.35-2.72-.63-4.27,1.63-5.66Z" transform="translate(0)" style="fill:#ad887d"/><path d="M1649.13,1360.84c.75,1.88,1.51,3.76,2.26,5.63l-2.84,4.75-.78,0C1648.22,1367.72,1648.68,1364.28,1649.13,1360.84Z" transform="translate(0)" style="fill:#111110"/><path d="M1630.58,1396.78l2.63,2c.64,2.27,1,4.35-2.63,3.83Z" transform="translate(0)" style="fill:#111110"/><path d="M1687.84,1307.8l6.38-.93.09.55-5.07,1.45c.4,2.09.73,3.83,1.06,5.57l0,0q-1.26-3.29-2.51-6.58Z" transform="translate(0)" style="fill:#111110"/><path d="M1696.77,1329.35l3.4,6.62Z" transform="translate(0)" style="fill:#111110"/><path d="M1668.84,1305.41c0,.53-.09,1-.14,1.58l-2.32,1.86Z" transform="translate(0)" style="fill:#e8e3d6"/><path d="M1689.63,1333.38a.68.68,0,0,1,.59.35l-2.39,1.43-.07-.06Z" transform="translate(0)" style="fill:#1c1e28"/><path d="M1730.09,1374.76a1.18,1.18,0,0,1,0-.67l1.36,1.06Z" transform="translate(0)" style="fill:#ad887d"/><path d="M1754.73,1370.64c.19.44.38.89.58,1.34C1755.11,1371.53,1754.92,1371.08,1754.73,1370.64Z" transform="translate(0)" style="fill:#111110"/><path d="M1686.92,1336.73l.85-1.63.06.06c-.27.55-.54,1.1-.82,1.65Z" transform="translate(0)" style="fill:#1c1e28"/><path d="M1633.29,1390.52l-.82.84-.26-.24.94-.74Z" transform="translate(0)" style="fill:#ad887d"/><path d="M1633.15,1390.38l.38-.49-.24.63Z" transform="translate(0)" style="fill:#ad887d"/><path d="M1690.22,1435.77l-.85,1C1689.65,1436.42,1689.93,1436.09,1690.22,1435.77Z" transform="translate(0)" style="fill:#ece7da"/><path d="M1675.35,1318.57l.22-.28-.13.37Z" transform="translate(0)" style="fill:#423c30"/><path d="M1729,1333.47l.91.85Z" transform="translate(0)" style="fill:#111110"/><path d="M1687.74,1307.9l-.29-.22.38.13Z" transform="translate(0)" style="fill:#111110"/><path d="M1675.44,1318.66l-.22.28.13-.37Z" transform="translate(0)" style="fill:#423c30"/><path d="M1672.18,1302.12l-2.53,2.48Z" transform="translate(0)" style="fill:#e8e3d6"/><path d="M1669.68,1304.58l-.86.85Z" transform="translate(0)" style="fill:#e8e3d6"/><path d="M1652.05,1352.92c-.46-3.87-.45-6.59,3.23-6.81a31.32,31.32,0,0,1-.81,5.06C1654.26,1351.83,1653.13,1352.18,1652.05,1352.92Z" transform="translate(0)" style="fill:#282f3f"/><path d="M1539.51,1332.23l-.53-1,.85-.56Z" transform="translate(0)" style="fill:#d7d3c6"/><path d="M1540.09,1332l.05-.14a3.9,3.9,0,0,0,.35.19Z" transform="translate(0)" style="fill:#d7d3c6"/><path d="M1557.12,1367.9c-2-.84-5.06-.92-3.12-4.49l1.76-3c2.3-1,4.77-2.9,7-2.65s4,2.79,6.81,5c-4.64.79-8.48,1.2-10.49,5C1558.91,1368.07,1557.8,1367.87,1557.12,1367.9Zm-1.51-2.37.54.47,1.31-1.48-.58-.49Z" transform="translate(0)" style="fill:#111110"/><path d="M1546.52,1357.41c0-.55,0-1.09,0-1.63l2.9,1.23Z" transform="translate(0)" style="fill:#1c1e28"/><path d="M1548.32,1360.28c0,.08-.06.21-.1.22a1,1,0,0,1-.28-.08c0-.08.06-.22.09-.22A.79.79,0,0,1,1548.32,1360.28Z" transform="translate(0)" style="fill:#1c1e28"/><path d="M1612.45,1402l3.31-4.64.94-.36C1615.29,1398.68,1613.87,1400.34,1612.45,1402Z" transform="translate(0)" style="fill:#111110"/><path d="M1762,1531.7c-2,.94-4,1.9-6,2.81-.49.22-1.26.6-1.54.4-3-2.15-5.65-5.19-10.39-2.36l.23-1.31,4.61-3.66-7.71.66c2.93-2.29,7.72-1.9,6.71-6.29s-5.13-.48-7.27-2.11c.19-1,.39-2.12.59-3.19-1.41.12-2.5,0-3.28,2-.62,1.64-3.11,2.56-4,3.18l-5.85-.3.31-.38-5.67-2.63c0-.52,0-1,0-1.56l1.3-1.82h0c5.79-.44,6.74-2.08,4.26-7.34.7-.48,1.65-.81,2-1.47a17.23,17.23,0,0,0,1.15-3.47c.56.87,1.17,1.72,1.69,2.61,3,5.17,6.08,6.64,12.08,5.77,1.07-.16,2.15-.22,3.23-.32,4.73-.92,9.23-.73,13.12,2.59-2.75.56-7.23,0-3.37,5-3.09,2.72.24,6.35,1,6.59C1763.12,1526.39,1761.19,1529.52,1762,1531.7Zm-25.79-15-7.09-1.54v5.2Z" transform="translate(0)" style="fill:#1c1e28"/><path d="M1724.06,1515.15l-1.3,1.82Z" transform="translate(0)" style="fill:#423c30"/><path d="M1762,1531.7c-.76-2.18,1.17-5.31-2.76-6.59-.72-.24-4-3.87-1-6.59-3.86-5,.62-4.43,3.37-5l2.27-.86c2.68,3,5.07,6.33,8.14,8.83,1.92,1.56,4.87,1.85,7.36,2.71l2,4.26,1.56,7.42-4.24.84-.87-2.29-.78.31,1.21,2.37c1.21,1.83,2.41,3.67,3.61,5.5l0-.07c-.32,1.58-.64,3.16-1,4.73-1.42-.55-2.86-1.07-4.25-1.67a6.48,6.48,0,0,1-1.27-1c-.56-1.26-1.13-2.52-1.69-3.79l5.41,2.87-5.64-10.34c-1.32,2.32-2.75,3.79-4.56.79l-.36-1.4v-2.89l-.7-.12-.89,2.88-3,2.43Z" transform="translate(0)" style="fill:#ad887d"/><path d="M1737.35,1445.94l5.33-11.24v.13l.35,1,4.42,5.8c-.47.25-1.31.43-1.37.75a8.19,8.19,0,0,0,5.45,9.17,28.27,28.27,0,0,1,3.2,1.72c-1.36,1.16-2.68,2.37-4.1,3.45a27.55,27.55,0,0,1-2.9,1.66l-.26,0-.17-.21-1-.72C1742,1454.64,1737.92,1451.63,1737.35,1445.94Z" transform="translate(0)" style="fill:#666"/><path d="M1748.48,1510.94c-1.08.1-2.16.16-3.23.32-6,.87-9.09-.6-12.08-5.77-.52-.89-1.13-1.74-1.69-2.61.23-.89.47-1.79.65-2.46l18.44,7.63Z" transform="translate(0)" style="fill:#ad887d"/><path d="M1734.3,1455.83a3,3,0,0,1,.42,0c0,.27.08.54.11.81Z" transform="translate(0)" style="fill:#ece7da"/><path d="M1746.24,1457.5l1,.72Z" transform="translate(0)" style="fill:#e2e0d3"/><path d="M1672.94,1455.9l1.3-.94Z" transform="translate(0)" style="fill:#1c1e28"/><path d="M1791.1,1528c1.44,1.4,2.87,2.81,4.88,4.79-2.19.79-3.54,1.8-4.63,1.58a22.62,22.62,0,0,1-6.89-2.64c-.42-.25.45-2.7.72-4.13l.87-.55Z" transform="translate(0)" style="fill:#423c30"/><path d="M1784.39,1524.39c4.89-3.75,8,1.19,12.06,1.8-.17.54-.34,1.09-.5,1.63l-7.69-2.85-3.94,1C1784.34,1525.43,1784.36,1524.91,1784.39,1524.39Z" transform="translate(0)" style="fill:#e4dbcd"/><path d="M1784.39,1524.39c0,.52-.05,1-.07,1.57l1.73,1.12-.87.55-3.78.83c-.68-1.41-1.35-2.83-2-4.25Z" transform="translate(0)" style="fill:#111110"/><path d="M1775.09,1509h2.15v.72h-2.16Z" transform="translate(0)" style="fill:#e4dbcd"/><path d="M1800.53,1529.44c-.49-.71-.89-1-1-1.45s.43-.85.64-.84a3.7,3.7,0,0,1,1.22.59Z" transform="translate(0)" style="fill:#e4dbcd"/><path d="M1776.26,1504.06c.31.69.65,1.37.9,2.08,0,.09-.48.51-.54.47-.58-.38-1.12-.82-1.67-1.25Z" transform="translate(0)" style="fill:#e4dbcd"/><path d="M1794,1523l-.69.09a3.82,3.82,0,0,1,.07-.68s.33-.1.35-.06A3.71,3.71,0,0,1,1794,1523Z" transform="translate(0)" style="fill:#e4dbcd"/><path d="M1753.07,1465.69l.3.16-.29-.16Z" transform="translate(0)" style="fill:#111110"/><path d="M1754.72,1453.29a28.27,28.27,0,0,0-3.2-1.72,8.19,8.19,0,0,1-5.45-9.17c.06-.32.9-.5,1.37-.75,3.47,5.11,13.77,11.21,13.77,11.21s1.23.15,1.93.26a13.16,13.16,0,0,1-1.77.48l-2.28,1.53,3.4,1.68-8,1.43-.51-1.18,3.68-2.24Z" transform="translate(0)" style="fill:#333"/><path d="M1769.69,1455.55" transform="translate(0)" style="fill:#cab9ac"/><path d="M1785.3,1459.07l.6-.45-.15.93A2.56,2.56,0,0,1,1785.3,1459.07Z" transform="translate(0)" style="fill:#1c1e28"/><path d="M1741.55,1548.24l2.46-4.76,4-.27,6.84.84,10.71,3.33,1.51.49,2.54.55,1.67.81c-1,.78-2,2.06-3.12,2.23a59.15,59.15,0,0,1-7.66.22A42,42,0,0,1,1741.55,1548.24Z" transform="translate(0)" style="fill:#e7e0d2"/><path d="M1781.89,1542.62c-1.2-1.83-2.4-3.67-3.61-5.5a3.31,3.31,0,0,0,.44-.39l4.24-.84,2,.81Z" transform="translate(0)" style="fill:#111110"/><path d="M1775.44,1544.64a6.48,6.48,0,0,0,1.27,1c1.39.6,2.83,1.12,4.25,1.67.33-1.57.65-3.15,1-4.73l-.6,4.63,3-2.83c-1.29,3.91-3,4.83-6.83,3.68a25.64,25.64,0,0,0-2.93-.53h0C1774.85,1546.55,1775.15,1545.6,1775.44,1544.64Z" transform="translate(0)" style="fill:#111110"/><path d="M1769.57,1548.42l-2.54-.55C1768.27,1546.21,1769.14,1546.28,1769.57,1548.42Z" transform="translate(0)" style="fill:#423c30"/><path d="M1774.56,1547.5l-.15.28.15-.28Z" transform="translate(0)" style="fill:#111110"/><path d="M1772.94,1557.92l-2.55-3.52c4-.59,8-2.28,11.59,1.54,1,1,3.24.9,4.92,1.3Z" transform="translate(0)" style="fill:#d7d3c6"/><path d="M1750.63,1557.56c-.88-.61-1.79-1.2-2.64-1.86-1.08-.83-2.11-1.72-3.15-2.58l8.2.19v0l1.69.9c-.83,1.11-1.67,2.22-2.5,3.34Z" transform="translate(0)" style="fill:#e4dbcd"/><path d="M1745.91,1560.15l2.61-.2,0,.63h-2.62Z" transform="translate(0)" style="fill:#cab9ac"/><path d="M1753,1553.31l-8.2-.19a22.78,22.78,0,0,1-2.57-2.53,7.72,7.72,0,0,1-.72-2.34,42.18,42.18,0,0,0,18.91,3.43c0,.79,0,1.57,0,2.35h-1.62Z" transform="translate(0)" style="fill:#ad887d"/><path d="M1758.8,1554h1.62l7.46,1.16-.27,1.55C1764.82,1555.22,1760.73,1559,1758.8,1554Z" transform="translate(0)" style="fill:#d5d0c2"/><path d="M1796.89,1553.31l-1.52.71-.17-.56,1.65-.2Z" transform="translate(0)" style="fill:#e4dbcd"/><path d="M1754.73,1554.19l-1.69-.9Z" transform="translate(0)" style="fill:#ad887d"/><path d="M1754.81,1544.05l-6.84-.84a33.89,33.89,0,0,1-4.36-3.26c-.67-.68-.72-2-1-3l.25,0,.25-.06,0-.07c.59.81,1,2,1.81,2.36,2.91,1.29,6,2.29,9,3.4Z" transform="translate(0)" style="fill:#ad887d"/><path d="M1743.07,1536.92l-.25.06-.25,0c-2.69-2.61-7.93-2.16-9-7.83A13.69,13.69,0,0,1,1743.07,1536.92Z" transform="translate(0)" style="fill:#1c1e28"/><path d="M1753.79,1542.61c-3-1.11-6-2.11-9-3.4-.8-.35-1.22-1.55-1.81-2.36a11.74,11.74,0,0,1,2.39.26c3.56,1.13,7.1,2.33,11.1,3.65Z" transform="translate(0)" style="fill:#1c1e28"/><path d="M1764,1535.07l3-2.43.17,0,.7.16a2.92,2.92,0,0,0,.72-.06l.36,1.4Z" transform="translate(0)" style="fill:#1c1e28"/><path d="M1771.25,1540.06c-.3-.09-.61-.19,0,0-.54-.39-.28-.2,0,0Z" transform="translate(0)" style="fill:#1c1e28"/><path d="M1789.43,1444.21c-4.82,4.23-19.73,0-20.61-.24,5.56-1.3,11.08-2.84,16.69-3.81a11.18,11.18,0,0,0,8.82-6.69c.55-1.15,2.44-1.65,3.71-2.46Z" transform="translate(0)" style="fill:#860102"/><path d="M1802.3,1418.7c-.42,1.48-.83,3-1.24,4.45l-1.3-6.62Z" transform="translate(0)" style="fill:#860102"/><path d="M1801,1423.42c-.54,1.53-1.08,3.07-1.61,4.6C1799.92,1426.49,1800.46,1425,1801,1423.42Z" transform="translate(0)" style="fill:#860102"/><path d="M1755.56,1431c-.31-.09-.63-.19,0,0-.5-.37-.24-.18,0,0Z" transform="translate(0)" style="fill:#a70201"/><path d="M1743,1435.85l-.35-1C1742.79,1435.16,1742.9,1435.51,1743,1435.85Z" transform="translate(0)" style="fill:#e8e3d6"/><path d="M1728.37,1256.69l1.53,0c.49,1.7,1.55,3.47,1.35,5.1-.46,3.9-1.52,7.74-2.34,11.61-.47,1.31-1,2.62-1.43,3.92q-2.1,5.33-4.22,10.63c-2.11-5.78-.29-11.14,1.69-16.5Z" transform="translate(0)" style="fill:#111110"/><path d="M1707.35,1293.85c3.05-3.39,5.63-6.43,8.44-9.24.71-.72,2.15-.71,3.26-1a18.4,18.4,0,0,1,.19,3c-.26,2.9-.56,5.81-1,8.7-.52,3.49-2.36,4.38-5.37,2.43C1711.17,1296.57,1709.53,1295.36,1707.35,1293.85Z" transform="translate(0)" style="fill:#4d4d4d"/><polygon points="1690.44 1281.25 1690.53 1280.91 1690.76 1281.12 1690.44 1281.25" style="fill:#111110"/><path d="M1692.77,1279.77l-.21.21.19-.23Z" transform="translate(0)" style="fill:#111110"/><path d="M1692.75,1279.75l.13-.26-.11.28Z" transform="translate(0)" style="fill:#111110"/><path d="M1741.51,1306.2l-1.26-.78.47-.48.78,1.27Z" transform="translate(0)" style="fill:#860102"/><path d="M1811,1283.9l-.85-.74Z" transform="translate(0)" style="fill:#111110"/><path d="M1786.12,1275.61l.17-.29-.15.32Z" transform="translate(0)" style="fill:#ddd9cb"/><path d="M1610.48,1404.56l1.29-1.71Z" transform="translate(0)" style="fill:#111110"/><path d="M1611.75,1402.9l.84-1Z" transform="translate(0)" style="fill:#111110"/><path d="M1711,1367.37l.73-1,.27.27-1,.74Z" transform="translate(0)" style="fill:#282f3f"/><path d="M1714.6,1368c.08,0,.22.06.22.09a.7.7,0,0,1-.08.27c-.08,0-.23,0-.23-.09A.72.72,0,0,1,1714.6,1368Z" transform="translate(0)" style="fill:#282f3f"/><path d="M1725.8,1374.8l-.58-.82.29-.19c.1.33.21.66.31,1Z" transform="translate(0)" style="fill:#1c1e28"/><path d="M1555.61,1365.53l1.27-1.5.58.49-1.31,1.48Z" transform="translate(0)" style="fill:#1c1e28"/><path d="M1736.16,1516.72l-7.09,3.66v-5.2Z" transform="translate(0)" style="fill:#423c30"/><path d="M1768.6,1532.77a2.88,2.88,0,0,1-.71.06,2,2,0,0,0-.71-.16l-.17,0c.3-1,.59-1.92.89-2.88l.7.12Z" transform="translate(0)" style="fill:#423c30"/><path d="M1778.28,1537.12l-1.21-2.37.78-.31.87,2.29A3.31,3.31,0,0,1,1778.28,1537.12Z" transform="translate(0)" style="fill:#111110"/><path d="M1767.18,1532.67a2,2,0,0,1,.71.16Z" transform="translate(0)" style="fill:#ad887d"/></g><path d="M1574.2,1397.15l1.5-2.69c2.11,2.33,4.59,4.43,6.24,7,1.51,2.41,2.13,5.38,3.14,8.1-.63,2.68-2.19,7-2.83,9.66-3-2.26-8.67-7.55-10.87-9.53C1571.22,1408.32,1573.35,1400.93,1574.2,1397.15Z" transform="translate(0)" style="fill:#4d4d4d"/><path d="M1575.7,1394.46l2.55-5.08.13-.29,9.7-12.38a3.56,3.56,0,0,0,.49,1.12c3.72,4,5.77,7.87,1.13,12.81-.81.85.45,3.65.76,5.56l-.64.79c-.64,1.49-.74,1.57-1.56,3.39q-.85,3.22-1.73,6.46c-.49.92-1,1.84-1.45,2.77-1-2.72-1.63-5.69-3.14-8.1C1580.29,1398.89,1577.81,1396.79,1575.7,1394.46Z" transform="translate(0)" style="fill:#333"/><path d="M1590.46,1396.2c-.31-1.91-1.57-4.71-.76-5.56,4.64-4.94,2.59-8.84-1.13-12.81a3.56,3.56,0,0,1-.49-1.12c3.24-2.64,5.15-4,8.39-6.6a120.15,120.15,0,0,1,11.61,6.6c-2.31,2.42-5.27,5.43-7.58,7.85l.07,0-1,.36c-2.27,3.26-3.4,6.65-8.83,10.78A.49.49,0,0,1,1590.46,1396.2Z" transform="translate(0)" style="fill:#1a1a1a"/><path d="M1747.29,1464.16l11,2.17,14.55,1.17c2.37-.92,11.41-4.39,11.7-4.3,0,.47-6.07,12.83-6,12.52a10.89,10.89,0,0,1-.93,1.84c-7.3,2.18-10.43,2.45-20,2-3.4-.55-6.84-1-10.21-1.69a57.61,57.61,0,0,1-6.37-2.17,26.58,26.58,0,0,0,2.9-1.66c1.42-1.08,2.74-2.29,4.1-3.45-.81-1.6-8.27-12.16-7.28-11.64m22.25,13.9" transform="translate(0)" style="fill:#1a1a1a"/><path d="M1740.77,1459c-1.47-1.94-3-3.87-4.42-5.8-.12-.34-.23-.68-.34-1v-.12c-1.77,3.75-1.45,10-1.45,13.64.27,5.79-.26,3.77-.55,6.89.35.24,6.26,2.75,6.61,3l.17.21.26,0a26.58,26.58,0,0,0,2.9-1.66c1.42-1.08,2.74-2.29,4.1-3.45" transform="translate(0)" style="fill:#666"/><path d="M1918,1304.82c-.65.79-3.81,7.58-4.46,8.38-1.68-2.66-.88-.89-2-3.76-1.07-2.63-.52-5-1-7.84,1.1-2.53,7.58-10.89,8.67-13.43,1.45,3.16,1.7,4.17,3.07,6.82C1922.13,1296.41,1919.53,1301.24,1918,1304.82Z" transform="translate(0)" style="fill:#4d4d4d"/><path d="M1898.93,1328c-1.19-2.15-2.35-5.1,3.08-9.15.94-.7.18-3.68.21-5.61l.77-.67c.89-1.35,1-1.42,2.12-3.06,1-2,2.52-3.17,3.47-5.19.63-.82,1.28-1.85,1.91-2.68.53,2.86,0,5.21,1,7.84,1.16,2.87.36,1.1,2,3.76-1.13,1.52-3.68,4.12-4.81,5.64" transform="translate(0)" style="fill:#333"/><path d="M1891.84,1323.44a119.94,119.94,0,0,1,10-9.75.47.47,0,0,1,.41-.49c0,1.93.73,4.91-.21,5.61-3.85,2.86-5,5.74-3.08,9.15.21.32-1.27,1.67-2.46,3.22a33,33,0,0,1-8.77,6.86c-3.47-2.41-4-5.19-4.77-6,2.7-2,3.75-3.64,5.92-5.77" transform="translate(0)" style="fill:#1a1a1a"/><path d="M1911.53,1291c-.65.8-3.81,7.59-4.46,8.38-1.68-2.66-.88-.88-2-3.75-1.08-2.64-.53-5-1-7.85,1.09-2.53,11.68-14.28,12.77-16.81,1.45,3.16-.82,9.26.54,11.9C1917.2,1284.29,1913,1287.41,1911.53,1291Z" transform="translate(0)" style="fill:#4d4d4d"/><path d="M1892.42,1314.14c-1.2-2.15-2.36-5.11,3.08-9.16.94-.7.18-3.68.21-5.61l.77-.67c.89-1.35,1-1.42,2.12-3.06,1-2,2.52-3.17,3.47-5.18.63-.83,1.28-1.86,1.91-2.69.52,2.86,0,5.21,1,7.85,1.16,2.87.36,1.09,2,3.75-1.13,1.52-3.68,4.12-4.81,5.64" transform="translate(0)" style="fill:#333"/><path d="M1885.32,1309.61a122,122,0,0,1,10-9.75.48.48,0,0,1,.41-.49c0,1.93.73,4.91-.21,5.61-3.85,2.87-5,5.74-3.08,9.16.21.32-1.27,1.66-2.46,3.21a44.83,44.83,0,0,1-10.31,8c-1.51-3.19-1.87-7-2.68-7.8,2.7-2,3.2-3,5.37-5.13" transform="translate(0)" style="fill:#1a1a1a"/><path d="M1715.41,1226.62c-.25-.67-3.19-5-3.43-5.67a7.84,7.84,0,0,1,3,.11c2,.3,3.18,1.48,5.08,2.19,1.13,1.56,3.42,10.06,4.55,11.62-2,.85-2.37,2-4.37,2.17C1719.4,1236.47,1717,1228.8,1715.41,1226.62Z" transform="translate(0)" style="fill:#4d4d4d"/><path d="M1708.36,1206.87c1.72.05,3.91.42,4.39,5.13.09.81,2.15,1.42,3.29,2.13l.13.7c.49,1,.49,1.11,1.08,2.37.87,1.29,1,2.65,1.87,3.94.27.67.65,1.43.92,2.11-1.9-.71-3.12-1.89-5.08-2.19a7.84,7.84,0,0,0-3-.11c-.51-1.23-1.16-3.69-1.67-4.91" transform="translate(0)" style="fill:#333"/><path d="M1713.61,1204.23a83.81,83.81,0,0,1,2.29,9.48.32.32,0,0,1,.14.42c-1.14-.71-3.2-1.32-3.29-2.13-.34-3.34-1.64-5.08-4.39-5.13-.27,0-.55-1.36-1-2.63-.82-3-.52-2.75-.44-5.67a19.75,19.75,0,0,1,4.72-2.34c.23,2.33.91,3.14,1.41,5.21" transform="translate(0)" style="fill:#1a1a1a"/><path d="M1726.71,1225.49c-.24-.67-3.19-5-3.43-5.67a7.83,7.83,0,0,1,3,.11c2,.3,3.18,1.48,5.08,2.18,1.13,1.57,4.36,12,4.94,14.28-2,.84-3.7-.22-5.51-1.3C1730,1234.53,1728.33,1227.67,1726.71,1225.49Z" transform="translate(0)" style="fill:#4d4d4d"/><path d="M1719.66,1205.74c1.72,0,3.62,0,4.93,3.59,1.61.27,1.61,3,2.76,3.67l.12.7c.49,1,.5,1.11,1.08,2.37.87,1.29,1,2.65,1.87,3.94.27.67.65,1.43.92,2.1-1.9-.7-3.11-1.88-5.08-2.18a7.83,7.83,0,0,0-3-.11c-.51-1.23-1.16-3.69-1.66-4.91" transform="translate(0)" style="fill:#333"/><path d="M1724.92,1203.1c.68,2.69,2.24,7.08,3,11.48.16.1-3.74-5.7-4.22-6.36-.77-1-1.25-2.43-4-2.48-.26,0-.54-1.36-1.05-2.63a19.73,19.73,0,0,1-.7-7.22,26.37,26.37,0,0,0,5.24-1.15,33,33,0,0,0,1.16,5.57" transform="translate(0)" style="fill:#1a1a1a"/><path d="M1764.4,1188l19.76,20.47,22.61,20.35,22.61,14.69,29.38,13.57L1887,1265l27.13,1.13s-1.45-1.07-3-5.62-4.13-9.4-4.93-10.2c0,0-11.3-9-13.57-10.18s-9.55-3.36-9.55-3.36-.58,7.57-6.25-.19a105,105,0,0,0-9.06-11.14l-11.09-9.1-18.77-10-1.79-1.24-2.26-6.78s-12.52-10.33-17.56-11.38-14.09-5.57-14.09-5.57-11.24-8-23.14,2.76-14.71,3.89-14.71,3.89" transform="translate(0)" style="fill:#1a1a1a"/><path d="M1829.36,1243.51l29.39,13.57L1887,1265l27.13,1.13s-1.45-1.07-3-5.62-4.13-9.4-4.93-10.2c0,0-11.3-9-13.56-10.18a103,103,0,0,0-9.81-3.36s-.32,7.57-6-.19a105.63,105.63,0,0,0-9.07-11.14L1838,1206.32l5.65,17.19" transform="translate(0)" style="fill:#333"/><path d="M1875.59,1261.67l11.86,3.32,27.12,1.13s-1.44-1.07-3-5.62-4.13-9.4-4.93-10.2c0,0-13.2-12.53-23.81-13.54-1.31,2.22-1.35,2.85-2.63,3.08-1.87-.49-7.09-8.77-7.86-9.16l9.23,17.44" transform="translate(0)" style="fill:#4d4d4d"/></g><g id="Layer_10" data-name="Layer 10"><rect width="4378.66" height="2189.33" style="fill:none"/></g></svg>