<svg xmlns="http://www.w3.org/2000/svg" viewBox="0 0 4378.66 2189.33"><title>mid</title><g id="back_trees" data-name="back trees"><g id="back_trees-2" data-name="back trees"><path d="M588.33,948.27,568,935.58l33.63,5.08-11-12.27-18.82-16.08,14.17-1.9-6.56-7.4-15.65-9.52,17.34,1.9-8.46-10.78-17.13-8H569.3l-2.75-3.81-5.29-4,14,4-6.56-9.09-15.44-13.32H571L556.61,836.6,542,826.23h6.77l2.33-2.53,7,.84-7-7.19-14-6.77,18.61,2.33-22.42-20.09,16.29,1.27-7.83-7.19-13.11-7,15.44,3.17-17.56-23.9,10.61-4L526,751.11l-1.45-18.21L519,725.77v12.48l-4.44,5.92L521,747.4l-9.61,8,7,1.06-11.21,12.27,9.73.42-11,14.38,11-.84-15,13.11-4.23,5.5,10.36-.43-15.23,10.79,7.2,1.69,13.32-7L494,823.48l9.94,2.54-17.34,9.31-5.92,7.61,19.25-1.9-5.29,4.86-14,4.66L479,857.32l16.07-2.11L487.24,862l-12.69,5.29L497,869.8l-29.82,13.33,5.93,1.48,12.9-2.33-15.23,14.6-11.32,10.84-10.89-14.83,1.27-4h5.29l-7.62-10.15-3.8-22.42L440.92,872l-4.44,5.92H443l-9.73,11.21,7,1.06L429.07,902.4l9.73.43-11,14.38,11-.85-13.5,11.79-.3-.28L410.41,917.5h6.77L419.5,915l7,.85-7-7.19-14-6.77,18.62,2.33-22.42-20.09L418,885.35l-7.82-7.19-13.12-7,15.44,3.18L395,850.46l1.27-4h5.28l-7.61-10.15-3.81-22.42L387.35,817v12.48l-4.44,5.92h6.56l-9.73,11.21,7,1.06L375.51,860l9.73.43-11,14.38,11-.85-14.1,12.31-3.51-4.87-15.44-13.32H370L355.58,854.3,341,843.94h6.77l2.33-2.54,7,.84-7-7.19-14-6.77,18.61,2.33-22.42-20.09,16.29,1.27-7.83-7.19-13.11-7,15.44,3.17-17.56-23.9,1.27-4h5.29l-7.61-10.15-3.81-22.42-2.75,3.17V756l-4.44,5.92H320l-9.72,11.21,7,1.06-11.21,12.27,9.72.42-11,14.38,11-.84-15,13.11-4.23,5.5,10.36-.42L291.7,829.34l7.19,1.69,13.33-7L293,841.19l9.94,2.53-16,8.59-17-7.16,4.38-1.37-15.61-12.47h7.8l1.92-2h5.89l-14.79-9.45-.69-2.6,6.17.54-.83-1.78,4.94.82-11.78-7.53,7-.82L252.8,798h3.42l-3.42-2.33,5.61-2.19-6.85-4.39h2.61l-4.53-4.52-.27-2.46,2.06-.69-4.11-15.2-4.63,17.26,2.3,3-10.41,6.71,8.9.14-14.6,10.19,4.77,2.21,6.68-1-5.87,5.88-7.64,3.08,2.2,1.69,6.54-1.32-3.31,4-8.88,4L218.89,824v1.4l6.31,1.18,4.78.51,5.29-3.31.88,2.13-12.49,8.3-7,2.8,5.36,4.55,6.91.51,5.36-2-20,14.84-6.9,5.14,3.6,1.17,3.89-2.57,2.64,2.06,3.6-1.54-3.74,4-15.72,3.15,2.2,2,5.22-.15-.66,3.31,8.52,1.69,6.83-3.82,1.39.88L218,875.7l6.91.58L208.16,888l10,1.1-37.39,18.81,8.67,1.17,6.76-4-5,5.29L199,907.5l-2.79,4.78,16.16-7.5-11.31,12,12,.88,5.8-5,1.62,2.13L188.62,937l3.75,1.76-23.07,8.82,7.06,1.17v3.9l10.13-3.16L188,953l9.7-4.33,2.2,2.06,4.48-.45L168,970.82l-13.06,4.91,8.29,2.25.7,2.81,11.81-2.53-13.07,8.43,4.78.28,3.51,2.67,15.33-6.18-1.27,5.9,8-1.68v3.37l16-8.15,2.67,3.51-12.37,10,3.66,1.13,5.34-2.39,1.27,2.81,6.88.28,3.8-3.23h4.36l-2.25,8.29L239,994.71V1001l5.55-3.23v18.35h8.11V998.32l4.14,1.65,2.08-4.56,13.27,5.39,2.49-5.39.64.37-.27.86,1-.45,8.63,5-1.66-5.81h4.93l-3.08-3.34,6.11-2.84,5.74,2.76,5.34-.09-.75,5.37L314,989.81l2.47.24.34,17.65h9.78v-5.61l10.92-2.6,2,.74-.62-1.06,8.08-1.93-17.56,11.84,7.41,1.91-11.21,10.36,22,.63-28.76,14.39,23.9-1.49-28.77,25,14.81-1.27,20.73-4.44-5.08,16.08,28.13-13.12-1.9,13.75,11.93-7,3.33.09.15,8-13.67,6.84,13.79-.86.06,3.32h5.5l-24.21,21,14.8-1.27,20.73-4.44L398,1112.64l28.13-13.12-1.9,13.75,15.23-8.88.36,19.31h9.79v-12.33l12.9,4.86-5.71-9.73,7.4,1.69-1.9-7,20.73,5.71-3.39-5.71,26.65,2.53L485.76,1087l15.65,5.5-3-5.5,19.45,5.5L510.29,1082,490,1069.28l33.62,5.07-11-12.26L493.79,1046l14.17-1.9-6.55-7.4-15.65-9.52,17.34,1.9-8.46-10.78-17.13-8h13.74l-2.75-3.81-5.28-4,14,4-6.56-9.09L475.18,984H493l-9.14-8.73,20.35-9.49-1.91,13.75,15.23-8.88.37,19.31h9.78V977.67l12.9,4.86-5.71-9.73,7.41,1.7-1.91-7,20.73,5.71-3.38-5.71,26.64,2.53-20.51-16.7,15.65,5.49-3-5.49L596,958.84ZM274.41,884.59l-.66-.4,1.25.16Zm11.79,7.26-10.85-6.68,20.58,2.33Zm-3.81-17.41L294,872.91l-5.35,4.63Zm11.22-10.84-14,4.66-.1.37-14-8.14h7.54l.27-3.15,5.89.82-4-4.79,9.19,1.1-4.8,6.17,19.24-1.9Zm33,136.55v-4.78l3.58,1.35Zm8.23-7.88-1-1.77,2.32.54Zm5.06-4.85-.6-2.2,2.25.62Zm28.9-98.52-2.27,3-1-1.39-5.29-4.05Zm-.52,5.37L367,892.5l9.37-.38-10.53,7.46-11.31-5.31Zm-3.35,18.23-2.15-1.31,3.23.36Zm8.67-7.71L372,902.7l9.69-5.08ZM396,1077.55v-.22h.26Zm31.6-130.75-2-1.73,6.61-3.46h1.22ZM478.56,906l-13.65,9.21-3.72-5.06Zm-15.2,10.26L461,917.81l7.4,1.91-2.79,2.58-1.86-1.71-13.11-7Zm-8.06,10.29,5.31.41-2.39,2.21Zm23.9,4.2-12.33,6.16-7.52-6.74Zm-19.59,13.81,1-.06,11.16,1.39-3.37,2.92Zm19.1,25.91-.15-.14-7.45-5.3,10-2.14Z" transform="translate(0)" style="fill:#002038"/><path d="M4309,1022.13l-16.58-4.79-34.93-15.89,11.51,1-.14-3.29,9,3.29,3.7-1.1-8.08-7,12.47,5.75,5.2-.41,3.56-3.29,5.77-1.37-27.27-12-18.09-13.15V966l4.8-1.09,2.74,2H4270l-3.29-3.83h7.12l-6.84-4.8h14.65l-3.42-4-16-5.07-13.56-8.36,5.34.69,5.89-.69,3.44-2.19,5.6.69,3.7-.69-18.35-9L4259,928l-18.63-10.82h7.54l.27-3.15,5.89.82-4-4.8,11.37,1.37,1.79-1.78-18.51-7.8,4.39-1.37L4233.54,888h7.81l1.92-2h5.89l-14.8-9.46-.68-2.6,6.16.55-.82-1.78,4.93.82L4232.17,866l7-.82-11.51-10.42h3.43l-3.43-2.32,5.62-2.2-6.85-4.38h2.6l-4.52-4.52-.27-2.46,2.05-.69-4.11-15.2-4.62,17.26,2.29,3L4209.43,850l8.91.14-14.61,10.19,4.78,2.21,6.68-1-5.88,5.87-7.63,3.09,2.2,1.69,6.54-1.32-3.31,4-4.26,1.94-15.19-15.62h16.57l-18-18.69,18.69-1.76-25-20.45,11.28-3.17-16.57-25-3.88-34.9-3.52,26.79-13.75,22.21,8.81.7-6.34,9.17,11.28-.35-30.32,30.32,26.79-1.41-20.95,21-5.94-3.81h2.6l-4.52-4.52-.27-2.46,2.05-.69-4.11-15.2L4127.92,856l2.3,3-10.41,6.71,8.91.14-14.61,10.19,4.77,2.21,6.69-1-5.88,5.88-7.64,3.08,2.21,1.69,6.53-1.32-3.3,4-8.89,4-3.9,1.67-1.19-.53-18.08-13.15v-3.83l4.8-1.1,2.74,2.06h7.26l-3.29-3.84h7.12l-6.85-4.79h14.66l-3.43-4-16-5.07-13.56-8.36,5.34.69,5.89-.69,3.44-2.19,5.6.68,3.7-.68-18.36-9,4.8-1.64L4070.64,830h7.53l.28-3.15,5.89.83-4-4.8,11.37,1.37,1.8-1.78L4075,814.64l4.38-1.37-15.61-12.46h7.81l1.91-2.06h5.89l-14.79-9.45-.68-2.6,6.16.55-.82-1.78,4.93.82-11.78-7.54,7-.82-11.51-10.41h3.42l-3.42-2.33,5.62-2.19-6.85-4.38h2.6l-4.52-4.52-.28-2.47,2.06-.68-4.11-15.21L4047.79,753l2.3,3-10.41,6.71,8.9.13-14.6,10.2,4.77,2.2,6.69-1-5.88,5.88-7.64,3.08,2.21,1.69,6.53-1.32-3.3,4-8.89,4-4.48,1.91v1.39l6.32,1.18,4.77.51,5.29-3.3.88,2.13-12.49,8.3-7,2.79,5.36,4.55,6.9.52,5.36-2.06-20,14.84-6.91,5.14,3.6,1.18,3.89-2.58,2.65,2.06,3.6-1.54-3.75,4-15.72,3.16,2.2,2,5.22-.15-.66,3.31,8.52,1.69,6.83-3.82,1.4.88-7.2,5.51,6.9.59-16.74,11.68,10,1.1-27.12,13.64-9.73-6.22,7-.82-11.51-10.42h3.43l-3.43-2.32,5.62-2.2-6.85-4.38h2.6l-4.52-4.52-.27-2.46,2.05-.69-4.11-15.2-4.62,17.26,2.3,3L3963.68,850l8.9.14L3958,860.28l4.78,2.21,6.68-1-5.87,5.87-6.73,2.72-14.2-9.09,14.16-1.67-23.33-21.11h6.94l-6.94-4.72,11.39-4.45L3931,820.12h5.28l-9.17-9.17-.56-5,4.17-1.39-8.34-30.83-9.38,35,4.66,6.11-21.11,13.62,18.06.27-29.63,20.68,9.69,4.47,13.55-2.09-11.91,11.92-15.5,6.26,4.47,3.42,13.26-2.68-6.7,8-18,8.19-9.09,3.87v2.84l12.81,2.38,9.69,1,10.72-6.7,1.79,4.32-25.32,16.83-14.16,5.66,10.88,9.24,14,1L3896,923.3l-40.52,30.1-1.86,1.38L3846,947h15.54l-16.86-17.51,17.52-1.65-23.47-19.17,10.58-3-15.53-23.46-3.64-32.72-3.3,25.12-12.89,20.82,8.26.66-6,8.59,10.58-.33-28.43,28.42,25.12-1.32L3801,953.89h12.23l-24.13,18.51,8.59,2,15.87-6.28L3808,979.34l-17.51,7.38L3782,983l-18.08-13.15V966l4.8-1.09,2.73,2h7.26l-3.28-3.83h7.12l-6.85-4.8h14.66l-3.43-4-16-5.07-13.56-8.36,5.34.69,5.89-.69,3.44-2.19,5.6.69,3.7-.69-18.36-9,4.8-1.64-18.63-10.82h7.53l.28-3.15,5.89.82-4-4.8,11.37,1.37,1.8-1.78-18.51-7.8,4.38-1.37L3742.24,888h7.81l1.91-2h5.89l-14.79-9.46-.68-2.6,6.16.55-.82-1.78,4.93.82L3740.87,866l7-.82-11.5-10.42h3.42l-3.42-2.32,5.61-2.2-6.84-4.38h2.6l-4.52-4.52-.28-2.46,2.06-.69-4.11-15.2-4.63,17.26,2.3,3L3718.13,850l8.9.14-14.6,10.19,4.77,2.21,6.69-1-5.88,5.87-7.64,3.09,2.21,1.69,6.53-1.32-3.3,4-8.89,4-4.48,1.91v1.4l6.32,1.17,4.77.52,5.29-3.31.88,2.13-12.49,8.3-7,2.79,5.36,4.56,6.9.51,5.36-2.06-20,14.84-6.9,5.14,3.6,1.18,3.89-2.57,2.65,2.05,3.6-1.54-3.75,4L3685.25,923l2.2,2,5.22-.14-.66,3.3,8.52,1.69,6.83-3.82,1.4.88-7.2,5.51,6.9.59-16.75,11.68,10,1.1-23.07,11.61L3668.49,947H3684l-16.86-17.51,17.52-1.65-23.47-19.17,10.58-3-15.54-23.46-3.63-32.72-3.31,25.12-12.89,20.82,8.27.66-5.95,8.59,10.57-.33-28.42,28.42,25.12-1.32-22.47,22.47h12.22l-11.14,8.56-20.58-16.82,10.57-3-15.53-23.47-3.64-32.71-3.3,25.11-12.89,20.82,8.26.66-5.95,8.6,10.58-.33-25.86,25.85-24.61-16.41h28l-33.35-34.31h22.72l-24.65-25.62,25.62-2.42-34.32-28,15.47-4.35-22.72-34.32-5.32-47.85-4.83,36.73-18.85,30.46,12.08,1-8.7,12.57,15.47-.48-41.57,41.56,36.74-1.93-32.87,32.87h17.88l-35.28,27.06,12.56,2.9L3489,947.4l-8.22,16.43-27.55,11.6-1.85,1.7-8.42-9.45-42.43-29.82,39.37,12.62-9.17-12.62,27.52,2.68-20.64-13.76-34.79-17.59h38.61l-11.47-13-36.31-14.53h31.73l-9.94-11.09-22.94-15.29h22.17l-26.37-27.14h18l-19.49-20.26L3407,806l-27.14-22.17,12.23-3.44-18-27.15-4.2-37.84-3.83,29-14.91,24.09,9.56.76-6.88,9.94,12.23-.38-32.87,32.87,29.05-1.53-26,26h14.14l-27.91,21.41,9.94,2.29,18.35-7.26-6.5,13-21.79,9.18L3308,888.17l32.87-3.82L3305,908.81l-13.38,11.85,49.31-5-24.84,15.67-7.65,8.8h39L3279.73,973l-15.29,17.59,69.95-9.94-48.54,32.49-9.56,12.23,22.17-4.2-3.06,6.5,35.17-14.15-14.52,16.82-40.14,17.21-1.13,1-8.1-6.46h7.81l1.92-2.06h5.89l-14.79-9.45-.69-2.6,6.16.55-.82-1.78,4.93.82-11.78-7.53,7-.83-11.51-10.41h3.43l-3.43-2.33,5.62-2.19-6.85-4.38h2.6l-4.52-4.52-.27-2.47,2.05-.68-4.11-15.21-4.62,17.26,2.3,3-10.42,6.71,8.91.14-14.61,10.19,4.78,2.2,6.68-1-5.87,5.87-7.64,3.09,2.2,1.69,6.54-1.33-3.31,4-8.89,4-4.48,1.91v1.4l6.32,1.17,4.77.51,5.29-3.3.89,2.13-12.49,8.3-7,2.79,5.36,4.56,6.91.51,5.36-2.06-20,14.84-6.91,5.14,3.6,1.18,3.9-2.57,2.64,2,3.6-1.54-3.75,4-15.71,3.16,2.2,2,5.21-.14-.66,3.3L3225,1084l6.83-3.82,1.4.88-7.2,5.51,6.91.59-12.3,8.58-9.28-10.52-31.4-12.56h27.43l-8.59-9.58-19.83-13.22h19.17l-22.8-23.47h15.53L3174,1008.85l17.51-1.65L3168,988l10.57-3-15.53-23.46-3.64-32.72-3.3,25.12-12.89,20.82,8.26.66-6,8.59,10.58-.33-28.42,28.42,25.11-1.32-22.47,22.47h12.23l-24.13,18.51,8.6,2,15.86-6.27-5.62,11.23-14.05,5.92-1.49-1.73-32.5-10.28-27.51-17,10.84,1.39,11.95-1.39,7-4.45,11.36,1.39,7.5-1.39-37.23-18.33,9.73-3.34-37.79-21.94h15.28l.56-6.39,11.95,1.66-8.06-9.72,23.06,2.78,3.64-3.61L3054,956.53l8.9-2.78-31.68-25.28H3047l3.89-4.17h11.95l-30-19.17-1.39-5.27L3044,901l-1.66-3.61,10,1.66-23.89-15.28,14.16-1.66L3019.25,861h6.94l-6.94-4.72,11.39-4.45-13.89-8.89H3022l-9.17-9.17-.56-5,4.17-1.39-8.34-30.83-9.38,35,4.66,6.11-21.11,13.62,18.06.27-29.63,20.68,9.69,4.47,13.55-2.09-11.91,11.92-15.5,6.26,4.47,3.43,13.26-2.69-6.7,8-18,8.19-9.09,3.88v2.83l12.81,2.38,9.69,1,10.72-6.7,1.79,4.32-25.32,16.83L2946,940l10.88,9.23,14,1,10.88-4.17-40.52,30.1-14,10.42,7.3,2.39,7.9-5.22,5.36,4.18,7.3-3.13-7.6,8.19-31.88,6.41,4.47,4,10.58-.3-1.34,6.71,17.28,3.42,13.85-7.74,2.83,1.78-14.6,11.18,14,1.19-34,23.69,20.26,2.23-54.3,27.31-15.49-13.37h26.25l-21.25-20.3-21.55-15.31h10l3.44-3.75,10.31,1.25-10.31-10.62-20.62-10,27.49,3.44-33.11-29.68,24.05,1.87-11.55-10.62L2843,955.51l22.8,4.69-25.93-35.3,1.88-5.94h7.81l-11.25-15-5.62-33.12-4.06,4.69V894l-6.56,8.75h9.68l-14.37,16.55,10.31,1.57L2811.09,939l14.37.63-16.24,21.24,16.24-1.25-22.18,19.37-6.25,8.12,15.31-.62-22.49,15.93,10.62,2.5,19.68-10.31-28.43,25.31,14.68,3.75-25.61,13.74-8.75,11.25,28.43-2.81-7.81,7.18-20.62,6.87-2.5,10,23.74-3.12-11.55,10-18.75,7.81,33.12,3.75-41.25,18.43-25.39-10.15h27.43l-8.59-9.59-19.83-13.21h19.17l-22.81-23.47h15.54l-15.17-15.76,11.47,4.22-6.26-6.63,4.47-.42,6.27,3.69,22-3-42.43-21.35,7.37-2.07-15.53-23.47L2709,952.8l-3.3,25.11-12.06,19.48-25.51-12.83,25.41-2.8-42.6-29.71,17.56-1.49-18.31-14,3.55-2.24,17.38,9.72,21.67-4.3-1.68-8.41,13.26.37,5.61-5-40-8-9.53-10.28,9.16,3.92,6.73-5.23,9.9,6.54,9.16-3-17.57-13.08L2627,859.75l13.64,5.23,17.56-1.31,13.64-11.58-17.75-7.1-31.76-21.12,2.24-5.42,13.45,8.41,12.15-1.31,16.07-3V819l-11.4-4.85-22.61-10.28-8.41-10.09,16.63,3.36,5.61-4.29L2626.62,785l-14.95-15,17,2.62,12.15-5.61-37.16-25.93,22.65-.35-26.48-17.07,5.85-7.67-11.77-43.9-10.46,38.67,5.23,1.75-.7,6.27-11.5,11.5h6.62l-17.42,11.15,14.29,5.57-8.71,5.93H2580l-29.27,26.48,17.77,2.09-30,19.16,12.55-2.09-2.09,4.53,15.68-1.39-1.74,6.62-37.64,24h15l4.87,5.23H2565l-39.73,31.71,11.15,3.48-47.08,19.86,4.57,4.53,28.92-3.48L2512.72,906l15-2.09.7,8h19.16l-47.38,27.52,12.19,4.19-46.69,23,9.41,1.75,14.24-1.75,8.75,5.58,15,1.74,13.59-1.74-34.5,21.25-40.77,12.9-8.71,10.1H2480l-17.43,12.2h18.12l-8.36,9.75h18.47l7-5.22,12.19,2.78v9.76l-46,33.45-25.34,11.2-6.12-6.94-36.32-14.52h31.73l-9.94-11.09L2395,1042.49h22.17l-26.38-27.14h18l-19.5-20.26,20.26-1.91L2382.4,971l12.24-3.44-18-27.15-4.21-37.84-3.82,29-14.91,24.08,9.56.77-6.88,9.94,12.23-.38-32.87,32.87,29.05-1.53-26,26H2353l-27.91,21.4,9.94,2.3,18.35-7.26-6.5,13-14.89,6.27-20.33-6.42-27.5-17,10.83,1.39,11.95-1.39,7-4.45,11.36,1.39,7.51-1.39-37.23-18.33,9.72-3.34-37.78-21.94h15.28l.55-6.39,11.95,1.66-8.06-9.72,23.06,2.78,3.64-3.61-37.53-15.84,8.89-2.78-31.67-25.28h15.83l3.89-4.17h11.95l-30-19.17-1.39-5.27,12.51,1.11-1.67-3.61,10,1.66-23.89-15.28,14.17-1.66L2241.62,861h7l-7-4.72,11.39-4.45-13.89-8.89h5.28l-9.17-9.17-.56-5,4.17-1.39-8.33-30.83-9.39,35,4.66,6.11-21.11,13.62,18.06.27-29.62,20.68,9.68,4.47,13.56-2.09-11.92,11.92-15.5,6.26,4.47,3.43,13.26-2.69-6.7,8-18,8.19-9.09,3.88v2.83l12.82,2.38,9.68,1,10.73-6.7,1.78,4.32-25.32,16.83L2168.38,940l10.87,9.23,14,1,10.88-4.17-40.52,30.1-14,10.42,7.3,2.39,7.9-5.22,5.36,4.18,7.3-3.13-7.59,8.19L2138,999.42l4.47,4,10.58-.3-1.34,6.71,17.28,3.42,13.86-7.74,2.83,1.78-14.6,11.18,14,1.19-34,23.69,20.27,2.23-75.83,38.14,17.57,2.38,13.71-8-10.13,10.72,15.79-5.81-5.66,9.69,32.78-15.2-23,24.28,24.29,1.79,11.77-10.13,3.27,4.32-55.28,38.69-12.74-5.38,4.39-1.37-15.62-12.46h7.81l1.92-2.06h5.89l-14.8-9.45-.68-2.6,6.16.55-.82-1.78,4.93.82-11.78-7.54,7-.82-11.51-10.41h3.43l-3.43-2.33,5.62-2.19-6.85-4.38h2.6l-4.52-4.52-.27-2.47,2.05-.68-4.11-15.21-4.62,17.26,2.29,3-10.41,6.71,8.91.13-14.61,10.2,4.78,2.2,6.68-1-5.88,5.88-7.64,3.09,2.21,1.68,6.54-1.32-3.31,4-8.89,4-4.48,1.91v1.39l6.32,1.18,4.77.51,5.29-3.3.88,2.13-12.1,8-11.28-12.66-56.08-39.41,52,16.67-12.13-16.67,36.38,3.53-27.28-18.18-46-23.24h51l-15.16-17.18-48-19.2h41.93l-13.14-14.65-30.31-20.21h29.3l-34.86-35.87h23.75L1976.53,896l26.78-2.53-35.87-29.3,16.17-4.55-23.75-35.87-5.56-50-5,38.39L1929.55,844l12.63,1-9.1,13.14,16.17-.51L1905.8,901l38.4-2-34.36,34.36h18.7l-36.89,28.29,13.14,3,24.25-9.6-8.59,17.18-28.8,12.12-19.19,17.69,43.45-5.05-47.5,32.33L1850.73,1045l65.18-6.57-32.84,20.72L1873,1070.8h51.53l-77.41,37.61-4.54-6.29-9.09-6.95,24,6.95-11.27-15.63-26.55-22.91h30.55l-24.73-23.64-25.09-17.81H1812l4-4.37,12,1.46-12-12.37-24-11.63,32,4-38.55-34.55,28,2.18L1800,954.49l-22.55-12L1804,948l-30.18-41.09L1776,900h9.09L1772,882.5,1765.45,844l-4.72,5.46v21.45L1753.09,881h11.27l-16.72,19.27,12,1.82-19.27,21.09,16.72.73-18.91,24.72,18.91-1.45-25.82,22.54-2.77,3.62-8.19-9.5L1679.54,951,1645,929.73l13.59,1.74,15-1.74,8.75-5.58,14.25,1.74,9.41-1.74-46.69-23,12.19-4.19-47.38-27.52h19.16l.7-8,15,2.09-10.1-12.19,28.92,3.48,4.56-4.53-47.07-19.86,11.15-3.48-39.73-31.71h19.86l4.88-5.23h15l-37.64-24-1.74-6.62,15.68,1.39-2.09-4.53,12.55,2.09-30-19.16L1621,737l-29.27-26.48h8.71l-8.71-5.93,14.29-5.57-17.43-11.15h6.62l-11.49-11.5-.7-6.27,5.23-1.75-10.46-38.67L1566,673.62l5.85,7.67-26.48,17.07,22.65.35-37.16,25.93,12.15,5.6,17-2.61-15,15-19.43,7.84,5.61,4.3,16.63-3.36-8.41,10.09-22.61,10.28-11.4,4.85v3.55l16.07,3,12.15,1.31,13.45-8.41,2.24,5.42-31.76,21.12-17.75,7.1,13.64,11.58,17.56,1.31,13.64-5.23-50.82,37.74-17.57,13.08,9.16,3,9.9-6.54,6.73,5.23,9.15-3.92-9.53,10.27-40,8,5.6,5,13.27-.37-1.68,8.41,21.67,4.3,17.38-9.72,3.55,2.24-18.31,14,17.56,1.49-42.6,29.71,25.41,2.8L1408.5,990l22,3,17.19-10.08L1435,996.32l19.81-7.29-7.1,12.15,41.1-19.06-28.77,30.45,30.45,2.25,14.77-12.71,4.11,5.42-80.91,56.61,9.53,4.49-12.35,4.72-15.7-17.62-53.65-37.7,49.78,16-11.6-16,34.8,3.38-26.1-17.4-44-22.23H1408l-14.51-16.43L1347.62,947h40.11l-12.56-14-29-19.33h28l-33.35-34.32h22.72l-24.65-25.62,25.61-2.41-34.31-28,15.46-4.35L1323,784.58l-5.32-47.85-4.83,36.73L1294,803.91l12.08,1-8.7,12.56,15.47-.48-41.57,41.57,36.73-1.94-32.86,32.87H1293l-35.28,27.07,12.56,2.9,23.2-9.18-8.21,16.43-27.55,11.6-18.37,16.92,41.57-4.84-45.44,30.94-8.44,7.47-8.55-8.8H1234l-16.85-17.52,17.51-1.65-23.46-19.17,10.57-3-15.53-23.47-3.64-32.72-3.3,25.12-12.89,20.82,8.26.66-6,8.6,10.58-.33-28.42,28.42,25.11-1.32-22.47,22.47h12.23l-24.13,18.51,8.6,2,15.86-6.28-5.62,11.24-18.84,7.93-12.55,11.57,28.42-3.31L1153,1045.27l-25.75-23.08,20.61,1.6-9.91-9.09-16.59-8.83,19.54,4-22.21-30.24,1.6-5.08h6.69l-9.63-12.85-4.82-28.36-3.48,4v15.79l-5.62,7.49h8.3l-12.31,14.18,8.83,1.34L1094,991.68l12.31.54-13.92,18.19,13.92-1.07-16.59,14.49-1.09-1.27-16-5.06-13.56-8.36,5.34.68,5.89-.68,3.44-2.19,5.6.68,3.7-.68-18.36-9,4.8-1.65-18.63-10.82h7.53l.28-3.15,5.89.82-4-4.79,11.37,1.37,1.8-1.78-18.51-7.81,4.39-1.37L1044,956.27h7.81l1.92-2.06h5.89l-14.8-9.45-.68-2.6,6.16.54-.82-1.78,4.93.83-11.78-7.54,7-.82L1038.11,923h3.42l-3.42-2.33,5.62-2.19-6.85-4.38h2.6l-4.52-4.52-.28-2.47,2.06-.68-4.11-15.21L1028,908.46l2.3,3-10.41,6.72,8.9.13-14.6,10.2,4.77,2.2,6.69-1-5.88,5.88-7.64,3.08,2.21,1.69,6.53-1.32-3.3,4-8.89,4-4.48,1.91v1.39l6.32,1.18,4.77.51,5.29-3.3.88,2.13-12.49,8.3-7,2.79,5.36,4.55,6.9.52,5.37-2.06-8.91,6.61-35.64-15,8.89-2.78L952.3,928.47h15.84L972,924.3H984l-30-19.17-1.39-5.27,12.5,1.11-1.67-3.61,10,1.66-23.9-15.28,14.17-1.66L940.36,861h6.94l-6.94-4.72,11.39-4.45-13.89-8.89h5.27L934,833.73l-.56-5,4.17-1.39-8.34-30.83-9.38,35,4.66,6.11-21.11,13.62,18.05.27-29.62,20.68,9.69,4.47,13.55-2.09-11.92,11.92-15.49,6.26,4.47,3.43,13.26-2.69-6.71,8-18,8.19-9.09,3.88v2.83l12.81,2.38,9.69,1,10.72-6.7,1.79,4.32-25.33,16.83-3.65,1.46-8.29-4.08,9.72-3.34-37.78-22h15.28l.55-6.38L869,901.68,861,892,884,894.74l3.64-3.62-37.53-15.83,8.89-2.78-31.67-25.28H843.2l3.89-4.17H859l-30-19.17-1.39-5.28,12.51,1.11-1.67-3.61,10,1.67L824.59,802.5l14.17-1.67-23.34-21.11h7l-7-4.72,11.39-4.45-13.89-8.89h5.28L809,752.49l-.56-5,4.17-1.39-8.33-30.84-9.39,35,4.66,6.11L778.47,770l18.06.27L766.91,791l9.68,4.47,13.56-2.09-11.92,11.92-15.5,6.26,4.47,3.42,13.26-2.68-6.7,8-18,8.19-9.09,3.87v2.83l12.82,2.39,9.68,1,10.73-6.7,1.78,4.32-25.32,16.83-14.15,5.66L753.05,868l14,1,10.88-4.17-40.52,30.09-14,10.43,7.3,2.39,7.9-5.22L744,906.7l7.3-3.12-7.59,8.19-19.65,4-1.25-.62,4.8-1.64-18.63-10.82h7.53l.27-3.15,5.89.82-4-4.8L730,896.88l1.8-1.78-18.51-7.8,4.38-1.37-15.61-12.47h7.81l1.91-2.05h5.89L702.91,862l-.69-2.6,6.17.55-.82-1.78,4.93.82-11.78-7.53,7-.82-11.5-10.42h3.42l-3.42-2.32,5.61-2.2L695,831.27h2.61l-4.52-4.52-.28-2.46,2.06-.69-4.11-15.2-4.63,17.25,2.3,3L678,835.38l8.9.14-14.6,10.19,4.77,2.2,6.69-1-5.88,5.87-7.64,3.09,2.2,1.69,6.54-1.33-3.3,4-8.89,4-4.48,1.91v1.4l6.31,1.17,4.78.52,5.29-3.31.88,2.13-12.49,8.3-7,2.79,5.37,4.56,6.9.51,5.36-2.06-20,14.84-6.9,5.14,3.6,1.18,3.89-2.57,2.65,2,3.59-1.54-3.74,4-15.72,3.16,2.2,2,5.22-.14-.66,3.3,8.52,1.69,6.83-3.82,1.39.88-7.19,5.51,6.9.59-16.75,11.68,10,1.1L624.17,950l8.66,1.17,6.76-4-5,5.29,7.78-2.86-2.79,4.77,16.16-7.49-11.31,12,12,.88,5.8-5,1.62,2.13L632,979.18l3.75,1.76-23.06,8.81,7,1.18v3.89l10.13-3.16,1.47,3.53,9.7-4.33,2.2,2,4.48-.44L611.38,1013l-13.06,4.91,8.29,2.25.71,2.81,11.81-2.53-13.08,8.44,4.78.28,3.52,2.67,15.32-6.19-1.27,5.91,8-1.69v3.38l16-8.16,2.68,3.52-12.38,10,3.66,1.12,5.34-2.39,1.27,2.82,6.89.28,3.79-3.24h4.36l-2.25,8.3,16.59-8.58v6.33l5.55-3.24v18.36H690l-4.77,3.34,7.59,3.58-46.78,17.87,14.31,2.39v7.89L681,1087l3,7.15,19.66-8.79,4.47,4.17,9.09-.89-73.75,41.56-26.5,9.95,16.83,4.57,1.42,5.7,24-5.13-26.51,17.11,9.69.57,7.13,5.41,31.08-12.54-2.57,12,16.26-3.42v6.84l32.5-16.53,5.42,7.13L707,1182l7.41,2.28,10.84-4.85,2.56,5.71,14,.57,7.7-6.56h8.84L753.77,1196l33.65-17.39v12.83l11.25-6.56v9.42l-30.33,17.1-26.5,10,16.82,4.56,1.43,5.7L784,1226.5l-26.52,17.11,9.7.57,7.12,5.42,31.09-12.55-2.57,12,16.25-3.43v6.85l32.51-16.54L857,1243l-25.1,20.24,7.42,2.28,10.83-4.84,2.57,5.7,14,.57,7.7-6.56h8.84l-4.56,16.82,33.64-17.39v12.83l11.26-6.56v37.23h16.44v-36.18l8.41,3.37,4.21-9.26,26.92,10.94,5-10.94,20.19,11.78-3.35-11.78h10l-16.39-17.77h11.66l22.51,10.83,15.56-.27,3-3.06-5.28-5.28,14.79,3.38-2.7,8.55,15.44-7.19,2.76.26-.82-1.17,9.09-4.23,7,1,1.41-.37-1.74,12.55,19.27-11.24.47,24.43H1120v-15.6l16.32,6.15-7.23-12.31,9.37,2.14-2.41-8.83,26.23,7.23-4.29-7.23,33.72,3.21-26-21.14,19.81,7-3.75-7,24.62,7-2.47-3.42h8.6v-19.76l1.09.17-1.09-1.22v-2.69l17.37-5.74,15,15.69,3.63-8.27,5,.71-6.92,12.35,21.85-10.22,3.25.47-1.21-1.42,20.58-9.62,10.15,2.9-7.25,21.75,21.26-23.2-2.41,42.54h19.33v-43.5l5.32,5.8,9.18-16.44,32.87,34.32,5.31-12.08,33.84,4.83-20.6-24.09,6.53-2.64,20.35,11.75v-5.14l14.71-3.1v8.58l40.77-20.74,6.8,8.94-31.47,25.39,9.3,2.86,13.59-6.08,3.21,7.15,17.53.72,9.65-8.23h11.09l-5.72,21.1,42.2-21.81V1227l14.12-8.22v46.69h20.62V1220l10.55,4.22,5.28-11.61,33.76,13.72,6.33-13.72,10.75,6.28-15.1,7.55,25.36-1.57,4.32,2.52-.78-2.74,12.18-.76-49.45,42.91,25.46-2.18,35.63-7.64-8.73,27.64,48.36-22.55-3.27,23.64,26.18-15.27.63,33.19h16.83v-21.19l22.18,8.36-9.82-16.73,12.73,2.91-3.28-12,35.64,9.82-5.82-9.82,45.82,4.37-13.37-10.89,29.06-9.6,4.3,1.21-1.53-2.13,7.18-2.37L1880,1279l46.49-21.72,10.6,3-7.57,22.73,22.23-24.25-2.53,44.46h20.21v-45.47l5.56,6.07,9.6-17.18L1997.4,1260l-4.45,1.67,8.16,2.21.17.18.67,2.67,1.57-.34,2.61,2.73-5.45,3.52,4.78.28,3.52,2.67,2.41-1,7.58,7.92,4.91-11.16-.84,3.94,8-1.69V1277l9.46-4.81,8,1.15-11.16,9,3.65,1.12,5.35-2.39,1.26,2.81,6.89.28,3.8-3.23h4.35l-2.25,8.3,16.59-8.58v6.33l5.55-3.24v18.36h8.11v-17.84l4.15,1.66,2.07-4.56,13.28,5.39,2.49-5.39,9.95,5.8-1.65-5.8h4.93l-8.08-8.77h5.75l11.09,5.34,7.68-.13,1.5-1.51-2.6-2.6,7.81,1.78,7.12.68-2.47-3.56,10,1.37,5.33-1.37-6.88-5.8,5.82.24,7.7-6.56h8.84l-4.56,16.82,33.65-17.39v12.83l11.25-6.56v37.23h16.45v-36.18l8.41,3.37,4.21-9.26,26.92,10.94,5-10.94,9.2,5.37-8.66,7.49,13.72-4.53,5.93,3.45-1.41-5,25.72-8.5-14.14,25.23,35.17-16.43,8,2.29-5.74,17.2,16.82-18.35-1.91,33.64h15.29v-34.4l4.21,4.59,7.26-13,26,27.14,4.21-9.56,26.76,3.83-24.85-29.06,29.82,17.21V1255l33.26-2.3-16.54-9,22.64-10.9h14.64l-20.56,22.29h12.54l-4.21,14.77,25.33-14.77,6.33,13.71,33.76-13.71,5.28,11.6,10.55-4.22v45.38H2601v-46.69l14.12,8.22v-16.09l27.23,14.07-7.71,6.67,12.57-4.15,10.11,5.23-2.13-7.87,16.6-5.48.47.4-11.84,21.12,30.4-14.21,6.94,2-4.95,14.87,14.54-15.86-1.65,29.08h13.21V1269.4l3.64,4,6.28-11.24,22.47,23.47,3.64-8.26,23.13,3.3-21.48-25.12,25.78,14.88v-12.89l28.75-2L2784,1240.7l2.27-1.06,1.91.78,5.66-4.3,5.65-2.64,6.82-.4-2.4,17.34,22.49-13.12.54,28.52h14.45v-18.21l19.06,7.18-3.85-6.55,24.44-9.87,2.83.78-2.12,9.88,16.25-3.43v6.85l32.51-16.54,5.42,7.13-25.1,20.24,7.42,2.28,10.83-4.84,2.57,5.7,14,.57,7.7-6.56h8.84l-4.56,16.82,33.64-17.39v12.83l11.26-6.56v37.23h16.44v-36.18l8.42,3.37,4.2-9.26,26.93,10.94,5-10.94,20.2,11.78-3.36-11.78h10L3074,1243.52h11.67l4.52,2.18-5.09,4.4,8.45-2.79,14.62,7,5.57-.09-2.86,5.1,11.24-5.25,1.61,0,1.35-1.36,8.86-4.14,3.4.77,9.83,1-3.9,11.7,14.54-15.86-1.65,29.08h13.22v-29.51l.17,0,3.46,3.77L3176,1244l1.84-.47-1.07-.9,2.46-4.41,22.48,23.46,3.63-8.26,23.14,3.3L3207,1231.6l25.78,14.87v-12.89l28.76-2-8.41-4.6h7.48v-17.84l4.15,1.66,2.08-4.56,13.27,5.39,2.49-5.39,9.95,5.8-1.65-5.8h4.93l-8.08-8.77h5.75l11.1,5.35,7.67-.14,1.5-1.51-2.6-2.6,7.81,1.78,7.12.69-2.46-3.57,10,1.37,5.33-1.37-7-5.89-12.87-3-12.61-7.81h12.61l8.49,3.7,4.25-1.37-.14-3.29h8.63l1.78-3.56-16.58-4.79-34.93-15.89,11.51,1-.14-3.29,9,3.29,3.7-1.1-8.08-7,12.47,5.75,5.2-.41,3.56-3.29,5.77-1.37-27.27-12.05-18.08-13.15v-3.84l4.79-1.1,2.74,2.06h7.26l-3.29-3.84H3307l-6.84-4.79h14.65l-3.42-4-16-5.07-13.56-8.36,5.34.69,5.89-.69,3.44-2.19,5.6.69,3.7-.69-15.9-7.83,38.08-12.59-14.15,25.23,35.17-16.43,8,2.29-5.74,17.2,16.82-18.35-1.91,33.64h15.29v-34.4l4.21,4.59,7.26-13,19.27,20.12-13.06,6.34-19.33,22.24,88.45-12.57-61.38,41.08-12.09,15.47,28-5.32-3.87,8.22,44.47-17.88L3445,1172.15l-50.75,21.75-20.3,18.85,45.92-13.53-11.6,16,52.68-16.92-31.42,23.69-25.13,21.75,55.58-18.37-17.88,31.9,44.47-20.78,10.15,2.9-7.25,21.75,21.27-23.2-2.42,42.53h19.33v-43.5l5.32,5.8,9.18-16.43L3575,1260.6l5.32-12.08,33.83,4.83-17.56-20.52h8.75v-3.17l15.09,8.71v-18.85l16.44-1.13.86.89.43-1,24.32-1.68-6.4-3.5,8.42,1.2L3643,1189.2l6.45,3.72-.17,2.89h5.18l14.32,8.26v-12.88l28.76-2-35-19.17v-4l3.64,4,1.87-3.34,2.76,1-.42-5.22,1.49-2.67,2,.43,21.07,22,3.64-8.26,23.13,3.3-21.48-25.11,25.78,14.87v-12.89l28.75-2-10.08-5.52,21.67-6.38-.42.58-1.8.68,1.16.2-6.87,9.45,20-6.43v6.92l-5.47,4.13-17.19,14.88,38-12.56-10.06,17.94-22.27,12.55-26.5,10,16.82,4.56,1.43,5.7,23.95-5.13-26.52,17.11,9.7.57,7.13,5.41,31.08-12.54-2.57,12,16.25-3.42v6.85l32.51-16.54,5.42,7.13-25.09,20.24,7.41,2.28,10.83-4.85,2.57,5.71,14,.57,7.7-6.56h8.84l-4.56,16.82,33.64-17.39v12.83l11.26-6.56v37.23h16.44V1244.4l8.42,3.37,4.2-9.26,26.93,10.94,5-10.94,20.2,11.78-3.36-11.78h10l-16.39-17.77h11.67l22.5,10.83,15.56-.27,3-3.06-5.27-5.28,15.83,3.61L4066,1228l-5-7.22,20.31,2.78,10.8-2.78-14.17-12-26.11-6.11-25.56-15.84h25.56l17.22,7.51,8.62-2.78-.28-6.67h17.5l3.61-7.22-33.61-9.73L3994,1135.73l23.34,1.94-.28-6.67,18.34,6.67,7.5-2.22-16.39-14.17,25.28,11.67,10.56-.84,7.22-6.66,11.7-2.78L4026,1098.22l-36.67-26.67v-7.78l9.72-2.22,5.56,4.16h14.72l-6.66-7.77h14.44l-13.45-9.42-.28-.31h11.35l1,.5,7.67-.14.36-.36h6.48l-.09,0,8.3,2.24.7,2.82,11.81-2.53-13.08,8.43,4.78.28,3.52,2.67,15.32-6.18-1.26,5.9,8-1.68v3.37l16-8.15,2.07,2.72-12.33,5.28-14.81,13.75,25.3-7.45.33.74,5.41.22-6,8.26,13.74-4.41-.35,1.27,5.95-3.07,10.64-3.42V1073l-14.47,10.91-18.33,15.87,38.35-12.68v1.61h.89l-11.74,20.94,32.43-15.16,7.41,2.11-5.29,15.87,15.51-16.92-1.76,31h14.1V1094.8l3.88,4.23,6.7-12,24,25,3.88-8.82,24.67,3.53-22.91-26.8,27.5,15.87v-13.75l30.67-2.12-37.37-20.44-8.88-6.77.29-.65,13.28,5.39.78-1.69,3.34,1.25-.33-4.19,8.65,5-1.65-5.81h4.93l-1.39-1.51,7.07,1.52-5.78-7.7,8.87,4.27,7.67-.14,1.5-1.51-2.6-2.6,7.81,1.78,7.12.69-2.46-3.56,10,1.37,5.33-1.37-7-5.89-12.87-3-12.61-7.81H4286l8.49,3.7,4.24-1.37-.13-3.28h8.63Zm-3613,32v-13.64l4.15,1.66,2.07-4.56,11,4.47Zm21.2-14.84.78-1.7.9.52Zm9.47-6.63-3.54-3.83h5.76l1.93.93ZM739.9,967l-5.22-3.8,10.48,1.16Zm9.55,49.73-4.79-3,1.84-1.58,3.27,4.32Zm9.41-78.29-29.73,20.73-5.4-3.93V951.4l4.79-1.09,2.74,2.05h7.26l-3.28-3.83h7.12l-6.85-4.8h14.66l-3.43-4-16-5.07-13.57-8.36,5.35.69,3.39-.39-.4,2L742.77,932l13.86-7.75,2.83,1.79-14.6,11.17ZM882,1020.91l-2.16-1.57,3.94.34Zm-7.89-5.74-2.87-2.08v-1.81l10.3-5.75,2.83,1.78Zm2.19-49.37-18.39-11.33,10.83,1.39,12-1.39,7-4.45,8.48,1Zm24.82-18.44-.7-.35,2.43-.93Zm185.73,79.18-3.31,4.29-6.14-4.29Zm-21.23,7.67,4.8-1.1,2.74,2.06h7.26l-3.29-3.84h6l-1.2,1.56,13.11-.53-18.88,13.37-10.57-7.69Zm12.56,36.33-3.84,2-6.39-2.91Zm-28,81.24-2.16,2.07-1.54,1.47-13-11.26Zm-84-164.13h15.28l.56-6.39,12,1.66-8.06-9.72,19.44,2.34-5.71,4.25-6.91,5.14,3.6,1.17,3.89-2.57,2.65,2.06,3.6-1.54-3.75,4L987,991.25l2.21,2,5.21-.15-.66,3.31,8.52,1.69,6.83-3.82,1.4.88-7.2,5.51,6.9.59-9.38,6.54Zm37.28,26.37-3.47,1.74-5.56-2.74Zm-14.82,25.26-5-3.06.68-.32,6.67.86Zm4.79,3,4.88.36,5.81-5,1.61,2.13-7.66,5.37Zm7.48,116.28,23.34,1.94-.28-6.67,17.45,6.35-11.89,11.4Zm45.8,59.52-6.88-4.26,12.7-.79Zm-5.71-41.29-10.62-4.83,27.5-6.56Zm25.67-40.8-.73-.32,1.31-.24Zm-11.11-4.91-17.21-7.6,3.75,1.5,2.07-4.57,13.28,5.4,2.48-5.4,8.47,4.94Zm13.94-6.23-1.27-4.44h4.94l-1.73-1.87,9.72,1.1Zm9.93-54.93-.1-2.51,2.85,1Zm8-4.31-3.3-2.85.34.09,4.36,2Zm-.6-13-3.15-1.39-6.76-4.92,8,1.88,16.86-8.84Zm45.15-7.91,18.43,2.3-4,2.73L1145,1051Zm6.15,19.8h8.57l2.94-3.21,8.83,1.07-4.21-4.34,23.21-2.34L1156,1069.2l-4.28,4.91ZM1165,1085.6l-8.38-8-1.1-.78h27.59Zm8.06,118.46,1.53-.71,15.14,2.28-2.44,7.33Zm26.58,18.81-2.88-4-8.48-5.3,6.57-7.17,5.67.86Zm12.88-19.49v-4.3l2.2,2.4Zm28.75-200-8.36-8.6,48-4.83-31.42,19.81-6.74,7.75-.81-.91-19.83-13.22Zm-22.07,194.17,3.23-5.79,1.57,1.64Zm14-119.83,3.47-.49,19.16,6.13-7.47,5Zm14.52,44,11.61-4.67,5.21.38-7.95,9.2Zm12.06,74.64-4.5-5.26,3.34-1.11,3.57,2.07Zm4.5-34.51-.45-.34,1.56-.5Zm-4.73-81-4.44-6.1L1267,1076Zm12.5-8.36-.39-.26,1-.14Zm-18.78-34.24-30.22-12.08h27.44l-4.76-5.31h43.34Zm144.51,99.46-2.37-1.81,3.36,1.25Zm-1.18-43.84.63.1v.24Zm-10.15-5.63L1367,1077.48l40.27,2.92Zm47.22,29.24-3.94-5.27-21.34-11.82,14.62-4.55,3.74,9,24.66-11,5.61,5.24,11.4-1.13ZM1662.82,1193l-2.45-2.66h5.32Zm4.87-109.28,29.27,2.44-.35-8.36L1708,1082l-1.86,1.61-20.27,8.45Zm1,129.87-.27-1h2.17Zm9-4.5-7.37-8,22.08.63Zm32.13-106.22-21.5-9.78,34.62,3.92Zm6.49-30.51,3.36-.44-1.93,1.67Zm1.54-55,17.09,4.36-27.44,14.73-45.7-33.24v-9.76l12.19-2.78,7,5.22h18.47l-8.36-9.75h18.12L1691.73,974H1728l-4,5.24,17.82-.73L1715.64,997l12.36,2.9,22.91-12Zm105.81,91.27h22.93l-11.26,5.47Zm30,144.88-15.83-12.89,21.85,7.68Zm8.82-7.64-2.83-5.25,6.71,1.9Zm17.66-13.81-.13-.17-8.75-5.47,26.27-8.43,1.07.16Zm3-42.07-5.41,2.32-11.66-10,36.26-14.59Zm-19.33-36.51-25.93-15.76,29.82,3.27-7.79-9.93,47.48-6.75Zm168.13,88.63-3.6-4.22.7-.31,5.41,3.12Zm12.15-44.73-3.09-2.35,2.46-1.14,2.9,1.09Zm.37-46.16-38.55-21.35,55.68,4-9.15,6.79-6.91,5.14,3.6,1.18,3.9-2.57,2.64,2,3.6-1.54-3.75,4Zm8.77,53.13-1.64-1.25,5-4.31.76.29,1.18,1.56Zm5.82-45-2.28-1.27,5.14-2.87,1.4.88Zm10.44-31.28-.7-.78,3.63-1.39Zm46.72,11.54-1.62,1.14-1.22-1.48Zm-6.36,10.39-6.21-3.61h7.53l.28-3.15,1.22.17,6.46,3Zm17.32,29-1.75-.55-9.31-5.74,5.48-2.44,1.5-.18,2.61-1.66,1.11-.5,5.19.64,2.33,2.17,9.09-.89Zm170.36-84.67v-7.78l9.73-2.22,5.55,4.17h5.77l-11,7.51-3.48,3.08Zm10.29,161.55-7.22-7.82,10.15-3.26,7.18,3.46Zm23.45-84.18-5-2.29,10.76-1.53Zm-6.09-57.26-11.72-8.52,30-3Zm-4.31-33.72h9.14l-5.77,3.93Zm11.83-1.83-7.46-5.22,18.24-2.13Zm16.61,48.79-.73-.32h1.4Zm114-19.63-13.93,12-5-3.32Zm-38.36-11.66-10.43,4.61-9.11-4.61Zm29.61,99.53-10.17-5.64h19.27Zm-10.81-42.3-40.63-28.56,39.37,12.62-9.17-12.62,10.22,1,8.62,2.55,3.72-1.35,5,.48-2.22-1.48,16.54-6-.35,8.36,29.27-2.44ZM2701,999.4l-.89,1.28-3.22-1.61Zm-14.14,27-1.17,1.17-2.87-3Zm-34.13,232-1.2-4.42h7.06Zm30.08-194.09L2662.3,1050l4.11-5.42,14.06,12.1-.58.59h1.27l0,0,.22,0h10.72Zm14.44-24.51-4.32-4.58,9.39-.49Zm40.63,107.07-2.51-1.76,3.26,1Zm11.41,8-9.08-6.38,3.31-.79,11.11,3.56Zm13-8.74-.76-1,2,.2Zm1.17-23.74-5.45-2.09h7.62Zm5-4.76-6.78-7.68,18.22-3.29Zm38.16,113.48-.88-.57,1-.48ZM2910.1,1083l-2.41,4.13-1.84-2.56Zm-5.66-4.91-1.85,2-.45-.62Zm2.31,52.45-11.94-7.26,19.28,2.12Zm11.08-7.76-9.89-12.62-25.31-11.87h20.31l-4.06-5.62-7.81-6,4.11,1.2-.87.92,1.8-.66,9.39,2.72-1.06,1.82,2.81-1.31,4.43,1.29-1.8-2.51,27.33-12.67-22.94,24.28,24.28,1.79,11.77-10.13,3.28,4.32Zm196-51.78-6.39,5.89L3099,1071Zm-38.69,23.34v-7.78l9.72-2.22,5.56,4.17h14.72l-6.66-7.78h14.44l-4-2.81,25.47-3-31.07,21.15-11.57,10.24,42.64-4.29-21.48,13.55-3.3,3.79Zm33.59,77.31-17.7-8.05,27.94-4,2.29.83,7.5-2.22Zm20.21-43.07-12.16-5.37H3140Zm90.68-32.14-3.41,2.38,10,1.1-15.74,7.91-22.54-11.39Zm-4.76,25.06-1.48,1.56-1.34-1.84Zm-21.66,40.37,2,.15.53,1.27Zm9.06,5-5.78-3.2,3-1.36,9.6.7Zm11.14,35.51-.7-.54.93.35Zm-3.1-64.05-24.37-17.13,33.5,10.74Zm6.82-10.15,3.94.29,5.8-5,1.62,2.13-8.77,6.13Zm35.47,98.47-26-14.23L3222,1209l2.51.11,2.28-2,5,1.87-1.39,5.14,16.59-8.58v6.33l5.55-3.24Zm43.63-174.88-6.63,9.12-10-4.22Zm-8.67,32.09-.13-.07.34-.12Zm16.31-14.12-13.26,11.47-17-9.88h7.54l.27-3.15,5.89.82-4-4.8,11.37,1.37,1.79-1.78-3.27-1.38,35.51-11.4Zm134.19,11-13-15.21,20.26,11.69Zm9.55-37.38-15.43-11.75.51-.06,23.12,8.63-6.51,4.11Zm7.26,29.21v-4.74l11.38-.79Zm2.19-33.17-.66-8.27,10.26,2.21Zm-8.71-32.73-39.35-21.8,31.55,2.29-5.63,5.18,41.57-4.83Zm21.88,21.1,6.26-.63-4.57,2.89Zm9.07,32.93-4.8-2.62h10.21Zm85.44,55.15,0,0h.08Zm-.75-52.17-4.22-3,7.15-.72,1.94.62Zm-9.2-44.76h12.46l-6.8,2.87Zm17.52-23.15-29.12-11.65h30l-6.78,6.78h12.23Zm6.22-17-7.79-8.69-1-.67,19.17-1Zm14,249.11-9.67-11.3,10,5.76Zm28.29-262.48-6.73,5.17-4-4.16Zm-7,21-2.37-2.44h8.18Zm10.84,11.16-1.47-1.52,4.45-.51Zm6-18.23-5.76,2.43-7.85-8.16,3.36.78,15.86-6.28Zm173,17,.45-.11-1.28.88Zm-25.89,2.74,9,3.29,3.7-1.1-4.15-3.58,2.74-.32,5.79,2.67,4.11-.32-14.55,9.9-18.05-8.21,11.51,1Zm19.45,28.55-6.59,4.15-8.34-5.17h12.6ZM3695.9,961.5l-6.54,6.93-2.61-2.69Zm-23.77,8.92h15.34l-2.88,3.05,12,.88,5.81-5,1.61,2.13-14.76,10.33Zm12.6,73.2,7.11,2.28-3.24,2.6-5.66-4Zm114.66,35.2-42,28.09-8.26,10.58,19.17-3.64-2.64,5.62,30.4-12.23-12.56,14.54-34.7,14.87-8.33,7.74L3719.72,1133l-13.88-10.58,22.14,8.27-.66-8.27,16.85,3.64-14.87-19.83-43-23.8,45.61,3.31-16.2-18.18-18.14-12.74,2.44.1,3.79-3.24h4.36L3706,1060l16.59-8.58v6.33l5.55-3.23v18.35h8.11V1055l4.15,1.66,2.07-4.56,13.27,5.39,2.49-5.39,10,5.81-1.66-5.81h4.93l-8.08-8.76h5.76l11.09,5.34,7.67-.14,1.51-1.51-2.6-2.6,7.8,1.78,7.13.69-2.18-3.14h2.8l6.49.88-56.67,27.54-13.22,15.2ZM3869.3,962l-4.23,4.56-1.88-1.94Zm-19.68,8.38h11.14l-8.56,1.72Zm21,30.82-20-8h15.53l-3.25,2.48,14,1.2Zm2.54-13.42-2.54-2.84,4-2.24,2.83,1.79Zm91.46-117-2.32,2.78-2.75-1.76Zm-4.32,4.42-2.92,1.33-.9-2ZM3948.26,908l-2.86-2.28h5.92Zm8.28-19.57-9.47-6-1.39-5.28,8.84.79-2.06.93L3948,880.7v1.4l6.32,1.17,4.78.52,5.28-3.31.89,2.13ZM4105.71,908l-.62.24-1.3-1.13Zm-15.07,48.15,5.31,2.56-2.55,1.78,8.11.9.22.1h.65l1,.11-14.26,7.17-1.1-3.85H4093l-8.09-8.76Zm-95.95-83.21-1.07.53-.36-.77Zm-2.7,1.35-3.51,1.77-.56-2.13ZM3987.78,888h7.81l1.92-2h5.89L3991,878.06l3.52.48,6.76-4-5,5.29,7.78-2.87-2.79,4.78,16.16-7.49-11.31,12,12,.88,5.81-5,1.61,2.13L4002.9,900.1ZM3999,901.87l2.46-.78-1.61,1.14Zm5.19,20.9-5.07-2.95,3.62-1.62,2.21,2.06,4.48-.44Zm38.05,124.68-.94-1.09,3.07.29Zm4.24-1.59-1.73-2.49,6.14.84Zm10.83-4.84-4.21-3.54-12.87-3-12.61-7.81h12.61l8.49,3.7L4053,1029l-.14-3.28h8.63l.27-.56,10-3.1,1.47,3.52,9.69-4.33,2.21,2,4.48-.44Zm1.41-20.19,2.85.47v.35ZM4097,990.07l-9.49,4.61-11.75,13.52-1.93,1.35.53.25-.95,1.1,2.52-.36,1.64.77-22.29,8.52-8.62-2.49-34.93-15.89,11.5,1-.14-3.29,9.05,3.29,3.69-1.1-8.08-7,12.47,5.75,5.2-.41,3.56-3.29,5.77-1.37-27.27-12-18.08-13.15v-3.39l2-.91,2.16-.5,1.09,2.42,6.89.28.92-.78h1.7l-.72-.84,1.89-1.61h4.36l-2.25,8.29,16.59-8.57v6.33l5.55-3.24v18.36h8.11V967.81l4.15,1.66,2.07-4.57,13.28,5.4,2.48-5.4,7.9,4.61L4066,980.39l8.67,1.17,6.75-4-5,5.29,7.78-2.87-2.79,4.77,16.16-7.49-11.31,12Zm3-1.47,4-3.44.83,1.1Zm14.37-72.28-8.38,6.22-18.28-8.31,11.51,1-.14-3.29,9,3.29,2.86-.85,3.15.23,2.48-1-3,2.79Zm2.25-14.77-5.39-2.38,3.93.42,5.29-3.31.88,2.13Zm21.36-31h3.42l-3.42-2.33,3.18-1.24-1.49,1.49h13l-9.21,7.07Zm9.76,23.73-3.05-1.95-.68-2.61,5.75.52Zm2.23-4.45-.62-1.34,1.18.2Zm1.24-2.48-2.88-1.85,4.74-1.87Zm47.38,3.48-7.1-4.73h14.22Zm9.72,6.48-.27-.18,1.08-.42Zm1.19-13.73-1.66-1.7,2.23-1.4.88,2.13Z" transform="translate(0)" style="fill:#002038"/></g><path d="M1813.35,1253.51l12.22-31.82,19.88,15.77,21-18.38,9,9.74,10.7-14.51,5.6,19.6,16.3-1.09,17.84,7.72,19.19-.81,3.74-13,8.15,14.27,11.21-17.83v10.69l6.34-7.64,19.13,20.89,19.36,1v-33.87l14.27,11.45,24.46-19.87-8.67,36.18,18.86,20.34,27.51-32.06,8.66,6.62,11.72-17.83,2.28,17.22,24.21-7.54v20.89l5.53-10.36,14.23,18.94,16.93-15.2v13.24l14.26-18.85,12.23,16,18.35-6.35s-9.69,7.57-8.67,15.25,15.8-8.9,15.8-8.9,4.07,32.38,0,37.47-393.34,7.64-393.34,7.64Z" transform="translate(0)" style="fill:#04457a"/><path d="M1810.8,1269.58l-8.15-44.84,25,25.48,9.17-70.31,2.55,66.23,22.42-31.83-12.23,48.1,12.23,23,9.68-28s-20.89-61.14,22.42-94.77c0,0-17.32,53.5-11.21,76.43l6.11,44.33,17.33-2.55s11.72-70.31,49.42-87.13c0,0,23.19-14.78-2.55,18.35s-25,41.5-25,41.5l-12.74,8.9v23l35.15-9.68,7.65-61.39,7,39.2,16.34-15.11V1267l7.19-4.62,6.11,18.89,14.78-9.17-11.72-44.33,22.42,21.91,8.15-58.59,8.15,41.78,6.11-18.59,7.65,29.8s.51-56.56,30.57-74.39c0,0-19.74,53.57-9.68,79l3.05,40.76,26.5-20.38s13.76-62.16,49.93-74.39c0,0-28.53,44.33-30.06,65.22s-1,37.19-1,37.19l15.29-11.2,10.19-67.26,5.6,28.53,14.27-11.21-2,52s12.23-49.93,51.46-58.08c0,0-28,20.89-28,49.42s-11.21,23.44-11.21,23.44l-342.9.35Z" transform="translate(0)" style="fill:#065ea6"/><path d="M1815.94,1310.52s-14.43-67.35-39.86-92.09c0,0,56.35,27.49,56.35,55.67,0,0,2.75-26.81,0-37.8,0,0,26.81,17.87,24.06,35.73,0,0,11-35,50.85-57.72,0,0-22,37.79-15.11,57.72,0,0,31.61-32.3,52.91-32.3l-25.42,26.12,25.42-6.87-4.81,15.8,33-12.37-17.18,25.43,44.67-15.12-33-58.41s49.48,42.6,54.3,59.79c0,0,4.81-27.49,0-38.49,0,0,25.42,13.06,25.42,30.24,0,0,30.93-46.73,55.67-51.54,0,0-25.43,47.42-22,59.79,0,0,26.8-33.68,50.86-33,0,0-15.81,33.67-6.19,37.8,0,0,14.43-19.25,30.24-20.62,0,0-9.62,12.37-4.81,19.93,0,0,35.74.69,49.48-15.81,0,0,7.56,7.56,0,21.31,0,0,20.62-8.94,20.62-16.5v17.18l16.49,4.82-16.49,21.3Z" transform="translate(0)" style="fill:#0878d4"/><path d="M2214.67,1243.62l12.23-31.83,19.87,15.78,21.05-18.39,9,9.75,10.7-14.52,5.61,19.6,16.3-1.09,17.83,7.72,19.2-.8,3.73-12.95,8.15,14.26,11.21-17.83V1224l6.35-7.63,19.13,20.89,19.36,1v-33.88l14.27,11.46,24.45-19.87-8.66,36.17,18.85,20.35,27.52-32.07,8.66,6.63,11.72-17.84,2.27,17.23,24.22-7.54v20.89l5.52-10.36,14.24,18.93,16.93-15.2v13.25l14.26-18.85,12.23,16,18.34-6.35s-9.68,7.57-8.66,15.25,15.8-8.9,15.8-8.9,4.07,32.37,0,37.47-393.34,7.64-393.34,7.64Z" transform="translate(0)" style="fill:#04457a"/><path d="M2212.13,1259.69l-8.16-44.84,25,25.47,9.17-70.31,2.55,66.24,22.42-31.84-12.23,48.11,12.23,23,9.68-28s-20.89-61.14,22.42-94.77c0,0-17.33,53.5-11.21,76.43l6.11,44.32,17.32-2.54s11.72-70.32,49.43-87.13c0,0,23.19-14.79-2.55,18.34s-25,41.51-25,41.51l-12.74,8.9v23l35.16-9.68,7.64-61.39,7.05,39.21,16.34-15.12v28.64l7.18-4.62,6.12,18.88,14.77-9.17-11.72-44.32,22.42,21.91,8.16-58.6,8.15,41.78,6.11-18.59,7.64,29.8s.51-56.55,30.57-74.39c0,0-19.74,53.57-9.68,79l3.06,40.76,26.5-20.38s13.75-62.16,49.93-74.39c0,0-28.54,44.33-30.06,65.22s-1,37.19-1,37.19l15.28-11.21,10.19-67.25,5.61,28.53,14.26-11.21-2,52s12.22-49.93,51.46-58.09c0,0-28,20.89-28,49.43s-11.21,23.43-11.21,23.43l-342.9.36Z" transform="translate(0)" style="fill:#065ea6"/><path d="M2217.27,1300.62s-14.44-67.35-39.86-92.09c0,0,56.35,27.49,56.35,55.67,0,0,2.75-26.8,0-37.8,0,0,26.8,17.87,24,35.74,0,0,11-35.05,50.86-57.73,0,0-22,37.8-15.12,57.73,0,0,31.62-32.3,52.92-32.3L2321,1256l25.43-6.87-4.81,15.81,33-12.37L2357.47,1278l44.67-15.12-33-58.42s49.48,42.61,54.29,59.79c0,0,4.81-27.49,0-38.49,0,0,25.43,13.06,25.43,30.24,0,0,30.93-46.73,55.67-51.54,0,0-25.43,47.42-22,59.79,0,0,26.8-33.67,50.85-33,0,0-15.8,33.68-6.18,37.8,0,0,14.43-19.24,30.24-20.62,0,0-9.63,12.37-4.81,19.93,0,0,35.73.69,49.48-15.8,0,0,7.56,7.56,0,21.3,0,0,20.61-8.93,20.61-16.49v17.18l16.5,4.81-16.5,21.3Z" transform="translate(0)" style="fill:#0878d4"/><path d="M2618.83,1239.92q-2.28-17.62-3.42-35.62,15.83-.48,31.14.31,8-14.65,17.31-29,7.62,1.91,15.06,4.07,3.79-9.47,8.08-18.87,7.1,7.79,13.9,15.75,9.9-4.15,20-7.82,12.33.26,24.4,1.25,11.88-3.37,23.93-6,1.17-6.81,2.47-13.61,6.56,6.09,12.78,12.36,5.76-9.89,12.13-19.61c.42,3.54.83,7.08,1.25,10.62q3.64-4.26,7.45-8.47,13.61,9.16,26.06,19.14,12.2,0,24.34.76.32-16.94.62-33.87,9.57,5.89,18.65,12.2,16.76-8.94,34.88-16.54-8.37,17.11-15.82,34.51,10.84,11.41,20.48,23.34a386.51,386.51,0,0,1,40.67-24.22q4.73,4.62,9.24,9.32,9.74-6.51,20-12.6-1.16,8.68-2.43,17.32,16.18,1.34,32.59,4-4,9.66-8,19.32,5.22-3.45,10.58-6.78,4.77,12.38,8.67,24.8,12.86-2.22,26.22-3.54l-6.39,11.6q12.47-3.88,25.49-7,2.77,11.1,4.92,22.14,11.61,3.9,23.22,8.64c0-.09-14.73-1.41-18,5.71-3.47,6.78,21.49,4.78,21.62,5,.12.09-16.12,28.53-23.14,29.47-2.29,2.57-25.14-19-63.72-37-38.13-18.77-92-33.92-146-36.15-54-3-108.2,7-146.48,21.56-38.68,13.84-61.47,32.24-61.89,29.9A473.55,473.55,0,0,0,2618.83,1239.92Z" transform="translate(0)" style="fill:#04457a"/><path d="M2625.14,1255.05q-16.8-15.69-34.47-30.61a373.81,373.81,0,0,1,41.93,2.79q-13.16-33.13-24.51-67.15,18,27.87,35.58,56a430.74,430.74,0,0,1,12.25-42q2.57,25.38,6.85,50.26,12,6.71,23.38,14.07-.84-15.09-.87-30.36a100.7,100.7,0,0,1-20.12-29.12c-7.64-17.92-11.11-42.91,14.39-70.44-.92.15-4.88,59,11.93,77.14q11.83,19.17,22.91,38.7,9-4.73,18.3-9c-.08.76-9.13-73,42.53-99.13.25-.08,30.17-19.24-.61,18.67-28.35,38.79-23.09,47.3-23.73,47.12q-6.68,6.19-13,12.6l6.27,22.09A381.25,381.25,0,0,1,2782,1198.2q-.76-31-.12-62.14,7.61,18.69,14.41,37.59,9.11-8.76,19-17.11,1.11,14.28,2.2,28.55,4.13-2.62,8.35-5.18,4.22,9.22,8.1,18.54,8.37-4.9,17.15-9.42-6.78-22.21-15.1-44.17,15.06,10.53,28.64,22.06,6.27-29.07,14-57.94,4.45,21.21,7.9,42.5,4.79-8.91,9.91-17.71,3.57,15.36,6.45,30.77c.33.54,6.41-57.45,54.66-65.77-1.07-.43-38.11,46.92-29.34,74.53q-2,20.37-4.41,40.69a350.24,350.24,0,0,1,35-12.37c-.55.5,33.56-57,87.8-46.34-.85-.94-54.33,25-61.94,45a322.89,322.89,0,0,0-13.57,34.66q9.95-2.43,20.28-4.29,18.15-28.93,38.16-56.87-2.28,14.6-5,29.06,10.68-1.23,21.65-1.86-13.16,22.46-26,45.06c-.54.56,36-40.13,85.82-15.1-.21-.75-43.23-4.32-57.39,21-14.85,24.29-23,13.67-23,13.69a363.51,363.51,0,0,0-361,4.06A368.1,368.1,0,0,0,2625.14,1255.05Z" transform="translate(0)" style="fill:#065ea6"/><path d="M2652.91,1285.72c.44,0-50.73-48.41-95.57-43.15-.17,0,20-8.13,41.49-10.46,21.54-2.79,44.35.28,51.18,12.54-.08,0-10.45-24.94-19.1-32.62.24-.63,39.47-1.19,43.83,17,.52.61-5.57-38.77,39.69-77.68-.86,0-15.58,45.14-.08,60.89-.94,0,26.58-43.53,54.86-48.29a387.66,387.66,0,0,0-25.12,32.49q14-7.32,28.68-13.58-1.44,8.31-2.65,16.62a383.9,383.9,0,0,1,37.17-18.12q-9.09,13.7-16.83,27.76a375.14,375.14,0,0,1,50.3-19.44,436,436,0,0,0-45.76-55.37,257.24,257.24,0,0,1,35.25,20.72c17.33,12,33.36,27.65,35.61,36.36-.15,0,7.32-27.17,1.75-38.45.3-.35,31.73,15.39,29.11,32.75-1.16-.35,44.92-41.65,80.47-35.71-1-.66-44.65,37.16-42.31,50.71-.77-.29,40-25.66,69.87-12.82-.45-.29-30.3,24.56-20.75,32.52-.22-.08,23.12-12.07,41.89-4.46-.11-.1-16,6.13-13.86,15.48.37-.45,37.22,19.27,60.49,16,.11.06,3.46,11.48-11.85,17.71,0-.32,25.48,7,30.18,1.37l-10.46,13.63q6.43,8,12.43,16.26-14.47,1.65-28.32,4.46C2943.93,1208.26,2778.38,1203.21,2652.91,1285.72Z" transform="translate(0)" style="fill:#0878d4"/><path d="M2910.71,1159.52q-2.28-17.62-3.42-35.62,15.83-.48,31.14.31,8-14.65,17.31-29,7.62,1.9,15.07,4.07,3.78-9.46,8.07-18.87,7.1,7.78,13.9,15.75,9.9-4.15,20-7.82,12.33.26,24.4,1.25,11.88-3.37,23.93-6,1.17-6.81,2.47-13.61,6.55,6.09,12.78,12.36,5.76-9.88,12.14-19.61.61,5.31,1.24,10.62,3.65-4.26,7.46-8.47,13.61,9.17,26.05,19.14,12.2,0,24.34.76.32-16.93.62-33.87,9.57,5.89,18.65,12.2,16.76-8.94,34.89-16.54-8.39,17.12-15.83,34.51,10.84,11.42,20.48,23.34a387.54,387.54,0,0,1,40.67-24.22q4.72,4.62,9.24,9.32,9.74-6.51,20-12.6-1.16,8.68-2.43,17.32,16.18,1.33,32.59,4-4,9.65-8,19.31,5.22-3.45,10.58-6.78,4.79,12.38,8.67,24.8,12.86-2.22,26.22-3.54l-6.39,11.6q12.46-3.88,25.49-7,2.77,11.1,4.92,22.14,11.61,3.91,23.22,8.64c0-.09-14.73-1.41-18,5.71-3.47,6.78,21.48,4.78,21.61,5,.12.09-16.12,28.53-23.14,29.47-2.29,2.57-25.14-19-63.71-37-38.14-18.77-92-33.92-146-36.15-54-3-108.2,7-146.48,21.56-38.68,13.84-61.47,32.24-61.89,29.9A472.16,472.16,0,0,0,2910.71,1159.52Z" transform="translate(0)" style="fill:#04457a"/><path d="M2917,1174.65q-16.8-15.69-34.47-30.61a373.81,373.81,0,0,1,41.93,2.79q-13.16-33.13-24.51-67.14,18,27.86,35.58,56a430.74,430.74,0,0,1,12.25-42.05q2.57,25.38,6.86,50.26,12,6.7,23.37,14.07-.84-15.09-.87-30.36a100.92,100.92,0,0,1-20.12-29.12c-7.64-17.92-11.11-42.91,14.4-70.43-.93.14-4.89,59,11.92,77.13q11.83,19.17,22.91,38.7,9-4.71,18.3-9c-.08.76-9.13-73,42.53-99.13.25-.07,30.17-19.24-.61,18.67-28.35,38.79-23.09,47.3-23.73,47.12q-6.68,6.2-13,12.6l6.27,22.09a381.42,381.42,0,0,1,37.76-18.46q-.78-31-.13-62.14,7.61,18.69,14.41,37.59,9.11-8.76,19-17.11l2.19,28.55q4.13-2.62,8.35-5.18,4.22,9.23,8.1,18.54,8.37-4.9,17.15-9.42-6.77-22.22-15.1-44.17,15.06,10.53,28.64,22.06,6.27-29.07,13.95-57.94,4.46,21.21,7.9,42.5,4.79-8.91,9.91-17.71,3.57,15.36,6.45,30.77c.33.54,6.41-57.45,54.66-65.77-1.07-.43-38.11,46.92-29.34,74.53q-2,20.37-4.41,40.69a351.13,351.13,0,0,1,35-12.37c-.55.5,33.56-57,87.8-46.34-.85-.93-54.33,25-61.94,45a323.83,323.83,0,0,0-13.57,34.66q10-2.43,20.28-4.29,18.15-28.93,38.16-56.87-2.28,14.6-5,29.06,10.66-1.23,21.64-1.86-13.16,22.45-26,45.06c-.54.56,36-40.13,85.82-15.1-.21-.75-43.22-4.32-57.39,21-14.85,24.29-23,13.67-23.05,13.7a363.48,363.48,0,0,0-360.95,4.05A368.1,368.1,0,0,0,2917,1174.65Z" transform="translate(0)" style="fill:#065ea6"/><path d="M2944.79,1205.32c.44,0-50.73-48.41-95.57-43.15-.16,0,20-8.13,41.49-10.46,21.54-2.78,44.35.28,51.18,12.54-.08,0-10.45-24.93-19.1-32.62.24-.63,39.47-1.19,43.83,17,.52.61-5.57-38.77,39.7-77.68-.87,0-15.59,45.13-.09,60.89-.94,0,26.58-43.53,54.86-48.29A387.66,387.66,0,0,0,3036,1116q14-7.32,28.68-13.58-1.44,8.31-2.64,16.62a382.6,382.6,0,0,1,37.16-18.12q-9.09,13.69-16.83,27.76a375.14,375.14,0,0,1,50.3-19.44,436,436,0,0,0-45.76-55.37,257.24,257.24,0,0,1,35.25,20.72c17.33,12,33.36,27.65,35.61,36.36-.15,0,7.32-27.17,1.75-38.45.3-.35,31.74,15.39,29.11,32.75-1.16-.35,44.92-41.65,80.47-35.71-1-.66-44.65,37.16-42.31,50.71-.77-.29,40-25.66,69.87-12.82-.45-.29-30.3,24.56-20.74,32.52-.22-.08,23.11-12.07,41.88-4.46-.11-.1-16,6.13-13.86,15.48.37-.45,37.22,19.27,60.49,16,.11.06,3.46,11.48-11.85,17.71,0-.32,25.49,7,30.18,1.37l-10.46,13.63q6.43,8,12.43,16.26-14.47,1.65-28.32,4.46C3235.81,1127.86,3070.26,1122.81,2944.79,1205.32Z" transform="translate(0)" style="fill:#0878d4"/><path d="M3256,1085.9q-2.28-17.62-3.42-35.62,15.83-.48,31.14.32,8-14.67,17.31-29,7.62,1.89,15.06,4.06,3.79-9.45,8.08-18.87,7.1,7.79,13.9,15.75,9.9-4.15,20-7.82,12.33.27,24.4,1.25,11.88-3.36,23.93-6,1.17-6.79,2.47-13.61,6.55,6.09,12.78,12.37,5.76-9.88,12.14-19.61.61,5.31,1.24,10.62,3.64-4.28,7.45-8.48,13.61,9.18,26.06,19.15,12.2,0,24.34.75.32-16.93.62-33.87,9.57,5.91,18.65,12.2,16.76-8.93,34.88-16.54-8.37,17.13-15.82,34.52,10.84,11.4,20.48,23.34a386.51,386.51,0,0,1,40.67-24.22q4.72,4.61,9.24,9.32,9.74-6.52,20-12.6-1.16,8.67-2.43,17.32,16.18,1.33,32.59,4l-8,19.32q5.22-3.45,10.58-6.78,4.79,12.38,8.67,24.79,12.86-2.21,26.22-3.54l-6.39,11.61q12.46-3.9,25.49-7,2.77,11.08,4.92,22.14,11.61,3.9,23.22,8.64c0-.1-14.73-1.42-18.05,5.71-3.46,6.78,21.49,4.78,21.62,5,.12.09-16.12,28.52-23.14,29.46-2.29,2.57-25.14-19-63.71-37-38.14-18.76-92-33.92-146-36.14-54-3-108.2,7-146.48,21.55-38.68,13.84-61.47,32.25-61.89,29.91A472.24,472.24,0,0,0,3256,1085.9Z" transform="translate(0)" style="fill:#04457a"/><path d="M3262.31,1101q-16.8-15.69-34.47-30.6a371.46,371.46,0,0,1,41.93,2.79q-13.16-33.15-24.51-67.15,18,27.86,35.58,56a431.73,431.73,0,0,1,12.25-42.06q2.57,25.38,6.85,50.26,12,6.72,23.38,14.08-.84-15.09-.87-30.36a100.84,100.84,0,0,1-20.12-29.12c-7.64-17.93-11.11-42.91,14.39-70.44-.92.15-4.88,59,11.93,77.14q11.83,19.15,22.91,38.69,9-4.71,18.3-9c-.08.76-9.13-73,42.53-99.12.24-.08,30.17-19.25-.61,18.67-28.35,38.78-23.09,47.3-23.73,47.12q-6.68,6.18-13,12.59l6.27,22.1a379.11,379.11,0,0,1,37.75-18.47q-.76-31-.12-62.14,7.61,18.69,14.41,37.6,9.11-8.77,19-17.11,1.11,14.26,2.2,28.55,4.13-2.64,8.35-5.18,4.22,9.22,8.1,18.53,8.37-4.89,17.15-9.42-6.78-22.21-15.1-44.17,15.06,10.54,28.64,22.07Q3508,983.84,3515.7,955q4.46,21.22,7.9,42.5,4.79-8.9,9.91-17.71,3.57,15.38,6.45,30.78c.33.54,6.41-57.45,54.66-65.78-1.07-.43-38.11,46.92-29.34,74.53q-2,20.37-4.41,40.69a347.71,347.71,0,0,1,35-12.36c-.55.5,33.56-57,87.8-46.35-.85-.93-54.33,25-61.94,45.06a323.26,323.26,0,0,0-13.57,34.65q9.94-2.43,20.28-4.29,18.15-28.93,38.16-56.87-2.28,14.61-5,29.06c7.11-.81,14.33-1.44,21.64-1.85q-13.16,22.45-26,45.06c-.54.56,36-40.13,85.82-15.11-.21-.74-43.23-4.32-57.39,21-14.85,24.29-23,13.66-23,13.69a363.51,363.51,0,0,0-361,4A370.27,370.27,0,0,0,3262.31,1101Z" transform="translate(0)" style="fill:#065ea6"/><path d="M3290.08,1131.71c.44,0-50.73-48.41-95.57-43.16-.17.06,20-8.12,41.49-10.46,21.54-2.78,44.35.28,51.18,12.55-.08,0-10.45-24.94-19.1-32.63.24-.62,39.47-1.18,43.83,17,.52.61-5.57-38.77,39.69-77.67-.86,0-15.58,45.13-.08,60.89-.94,0,26.58-43.53,54.86-48.3a389.3,389.3,0,0,0-25.12,32.49q14-7.31,28.68-13.57-1.44,8.31-2.65,16.62a386.29,386.29,0,0,1,37.17-18.13q-9.09,13.7-16.83,27.77a375.17,375.17,0,0,1,50.3-19.45,436,436,0,0,0-45.76-55.37,256.72,256.72,0,0,1,35.25,20.73c17.33,12,33.36,27.64,35.61,36.35-.16,0,7.32-27.17,1.75-38.45.3-.34,31.74,15.4,29.11,32.76-1.16-.36,44.92-41.65,80.47-35.71-1-.66-44.65,37.16-42.31,50.7-.77-.28,40-25.65,69.87-12.82-.45-.28-30.3,24.57-20.75,32.52-.21-.07,23.12-12.07,41.89-4.46-.11-.09-16,6.14-13.86,15.48.37-.44,37.22,19.28,60.49,16,.11.06,3.46,11.48-11.85,17.71,0-.31,25.48,7,30.18,1.37l-10.46,13.64q6.43,8,12.43,16.25-14.47,1.65-28.32,4.47C3581.1,1054.24,3415.54,1049.2,3290.08,1131.71Z" transform="translate(0)" style="fill:#0878d4"/><path d="M1422.24,1237.41q-2.28-17.61-3.42-35.62,15.83-.48,31.14.32,8-14.67,17.31-29,7.62,1.89,15.07,4.06,3.78-9.45,8.07-18.86,7.1,7.79,13.9,15.75,9.9-4.17,20-7.82,12.33.26,24.4,1.24,11.88-3.36,23.93-6,1.17-6.81,2.47-13.62,6.56,6.09,12.78,12.37,5.76-9.89,12.14-19.61.62,5.31,1.24,10.62,3.64-4.28,7.46-8.48,13.61,9.18,26,19.15,12.2,0,24.34.76.32-17,.62-33.88,9.58,5.91,18.65,12.21,16.76-8.94,34.89-16.54-8.38,17.11-15.83,34.51,10.85,11.41,20.48,23.34a387.54,387.54,0,0,1,40.67-24.22q4.73,4.61,9.24,9.32,9.73-6.53,20-12.6-1.15,8.67-2.43,17.32,16.18,1.34,32.59,4-4,9.66-8,19.32,5.22-3.45,10.58-6.78,4.78,12.38,8.67,24.8,12.85-2.22,26.22-3.55l-6.39,11.61q12.46-3.9,25.49-7,2.78,11.09,4.92,22.14,11.61,3.9,23.22,8.64c0-.09-14.73-1.41-18,5.71-3.47,6.78,21.48,4.78,21.61,5,.12.09-16.12,28.53-23.14,29.47-2.29,2.56-25.14-19-63.71-37-38.14-18.77-92-33.93-146-36.15-54-3-108.2,7-146.48,21.56-38.68,13.83-61.47,32.24-61.89,29.9A474.5,474.5,0,0,0,1422.24,1237.41Z" transform="translate(0)" style="fill:#04457a"/><path d="M1428.55,1252.54q-16.8-15.69-34.47-30.6a373.81,373.81,0,0,1,41.93,2.79q-13.15-33.15-24.51-67.15,18,27.86,35.58,56a431.73,431.73,0,0,1,12.25-42.06q2.57,25.38,6.86,50.27,12,6.71,23.37,14.07-.84-15.09-.87-30.36a101.28,101.28,0,0,1-20.12-29.12c-7.64-17.93-11.11-42.91,14.4-70.44-.93.15-4.89,59,11.92,77.14q11.83,19.17,22.91,38.7,9-4.73,18.3-9c-.08.76-9.13-73,42.53-99.13.25-.08,30.17-19.25-.61,18.67-28.35,38.78-23.09,47.3-23.73,47.12q-6.68,6.19-13,12.59l6.27,22.1a379.22,379.22,0,0,1,37.76-18.46q-.78-31-.13-62.15,7.6,18.69,14.41,37.6,9.12-8.76,19-17.11l2.19,28.55q4.13-2.64,8.35-5.18,4.21,9.22,8.1,18.53,8.37-4.89,17.15-9.42-6.77-22.21-15.1-44.17,15.06,10.55,28.64,22.07,6.27-29.07,14-58,4.45,21.22,7.9,42.51,4.79-8.91,9.91-17.71,3.57,15.36,6.45,30.77c.33.54,6.41-57.45,54.66-65.78-1.07-.43-38.11,46.93-29.34,74.54q-2,20.37-4.41,40.68a351.1,351.1,0,0,1,35-12.36c-.55.5,33.56-57,87.8-46.35-.85-.93-54.33,25-61.94,45.06a322.89,322.89,0,0,0-13.57,34.66q10-2.45,20.28-4.3,18.15-28.93,38.16-56.87-2.28,14.61-5,29.07,10.67-1.23,21.64-1.86-13.15,22.46-26,45.06c-.55.56,36-40.13,85.81-15.11-.21-.74-43.22-4.32-57.39,21-14.85,24.29-23,13.66-23,13.69a363.48,363.48,0,0,0-361,4.06A368.13,368.13,0,0,0,1428.55,1252.54Z" transform="translate(0)" style="fill:#065ea6"/><path d="M1456.32,1283.22c.44,0-50.73-48.41-95.57-43.15-.16,0,20-8.13,41.49-10.47,21.54-2.78,44.35.28,51.18,12.55-.08,0-10.45-24.94-19.1-32.62.24-.63,39.47-1.19,43.83,17,.52.6-5.57-38.78,39.7-77.68-.86,0-15.59,45.13-.09,60.89-.94,0,26.58-43.53,54.86-48.29a387.53,387.53,0,0,0-25.12,32.48q14-7.31,28.68-13.57-1.44,8.31-2.64,16.62a385,385,0,0,1,37.16-18.13q-9.09,13.71-16.83,27.77a377.05,377.05,0,0,1,50.3-19.45,436,436,0,0,0-45.76-55.37,259.16,259.16,0,0,1,35.25,20.73c17.33,12,33.36,27.64,35.61,36.35-.15,0,7.32-27.16,1.75-38.44.3-.35,31.74,15.39,29.11,32.75-1.16-.35,44.92-41.65,80.47-35.71-1-.66-44.65,37.16-42.31,50.7-.77-.28,40-25.65,69.87-12.81-.45-.29-30.3,24.56-20.74,32.51-.22-.07,23.11-12.07,41.88-4.45-.11-.1-16,6.13-13.86,15.47.37-.44,37.22,19.28,60.49,16,.11.07,3.46,11.48-11.85,17.71,0-.31,25.49,7,30.18,1.38l-10.46,13.63q6.43,8,12.43,16.25-14.48,1.65-28.32,4.47C1747.34,1205.76,1581.79,1200.71,1456.32,1283.22Z" transform="translate(0)" style="fill:#0878d4"/><path d="M1165,1170.57q-2.28-17.62-3.42-35.62,15.83-.48,31.14.32,8-14.67,17.31-29,7.62,1.89,15.06,4.06,3.8-9.45,8.08-18.87,7.1,7.79,13.9,15.75,9.9-4.15,20-7.82,12.33.27,24.4,1.25,11.88-3.36,23.93-6,1.17-6.8,2.47-13.61,6.56,6.09,12.78,12.37,5.76-9.88,12.14-19.61.62,5.31,1.24,10.62,3.64-4.27,7.46-8.48,13.61,9.18,26,19.15,12.2,0,24.34.75.32-16.93.62-33.87,9.57,5.91,18.65,12.2,16.75-8.92,34.88-16.54-8.37,17.13-15.82,34.52,10.85,11.42,20.48,23.34a386.51,386.51,0,0,1,40.67-24.22q4.73,4.6,9.24,9.32,9.73-6.52,20-12.6-1.15,8.67-2.43,17.32,16.18,1.34,32.59,4-4,9.66-8,19.32,5.22-3.45,10.58-6.78,4.78,12.38,8.67,24.79,12.86-2.2,26.22-3.54l-6.39,11.61q12.46-3.9,25.49-7,2.77,11.08,4.92,22.14,11.61,3.9,23.22,8.64c0-.1-14.73-1.42-18,5.71-3.47,6.78,21.48,4.78,21.61,5,.12.09-16.12,28.52-23.14,29.47-2.29,2.56-25.14-19.05-63.71-37.05-38.14-18.77-92-33.93-146-36.15-54-3-108.2,7-146.48,21.55-38.68,13.84-61.47,32.25-61.89,29.91A473.63,473.63,0,0,0,1165,1170.57Z" transform="translate(0)" style="fill:#04457a"/><path d="M1171.32,1185.7q-16.8-15.69-34.47-30.6a373.81,373.81,0,0,1,41.93,2.79q-13.15-33.15-24.51-67.15,18,27.85,35.58,56a431.73,431.73,0,0,1,12.25-42.06q2.57,25.38,6.85,50.26,12,6.72,23.38,14.08-.84-15.09-.87-30.36a101.06,101.06,0,0,1-20.12-29.12c-7.64-17.93-11.11-42.91,14.39-70.44-.92.15-4.88,59,11.93,77.14q11.83,19.15,22.91,38.69,9-4.71,18.3-9c-.08.76-9.13-73,42.53-99.12.25-.08,30.17-19.25-.61,18.67-28.35,38.78-23.09,47.3-23.73,47.12q-6.68,6.18-13,12.59l6.27,22.1a376.87,376.87,0,0,1,37.75-18.46q-.77-31-.12-62.15,7.6,18.69,14.41,37.6,9.11-8.77,19-17.11,1.11,14.27,2.2,28.55,4.13-2.64,8.35-5.18,4.21,9.23,8.1,18.53,8.37-4.89,17.15-9.42-6.78-22.22-15.1-44.17,15.06,10.54,28.64,22.07,6.26-29.07,14-57.95,4.45,21.22,7.9,42.5,4.79-8.89,9.91-17.71,3.57,15.38,6.45,30.78c.33.54,6.41-57.45,54.66-65.78-1.07-.43-38.11,46.93-29.34,74.53q-2,20.37-4.41,40.69a347.71,347.71,0,0,1,34.95-12.36c-.55.5,33.56-57,87.8-46.35-.85-.93-54.33,25-61.94,45.06a323.26,323.26,0,0,0-13.57,34.65q9.95-2.43,20.28-4.29,18.15-28.93,38.16-56.87-2.28,14.61-5,29.06c7.11-.81,14.33-1.44,21.64-1.85q-13.15,22.45-26,45.06c-.54.56,36-40.13,85.82-15.11-.21-.74-43.23-4.32-57.39,21-14.85,24.29-23,13.66-23,13.69a363.51,363.51,0,0,0-361,4A370.27,370.27,0,0,0,1171.32,1185.7Z" transform="translate(0)" style="fill:#065ea6"/><path d="M1199.09,1216.38c.44,0-50.73-48.41-95.57-43.16-.17.06,20-8.12,41.49-10.46,21.54-2.78,44.35.28,51.18,12.55-.08,0-10.45-24.94-19.1-32.63.24-.62,39.47-1.18,43.83,17,.52.61-5.57-38.77,39.7-77.67-.87,0-15.59,45.13-.09,60.89-.94,0,26.58-43.53,54.86-48.3a389.3,389.3,0,0,0-25.12,32.49q14-7.3,28.68-13.57-1.44,8.31-2.65,16.62a386.29,386.29,0,0,1,37.17-18.13q-9.09,13.7-16.83,27.77a375.17,375.17,0,0,1,50.3-19.45,436,436,0,0,0-45.76-55.37,257.93,257.93,0,0,1,35.25,20.73c17.33,12,33.36,27.64,35.61,36.35-.15,0,7.32-27.17,1.75-38.45.3-.35,31.74,15.4,29.11,32.76-1.16-.36,44.92-41.65,80.47-35.71-1-.66-44.65,37.16-42.31,50.7-.77-.28,40-25.65,69.87-12.82-.45-.28-30.3,24.57-20.75,32.52-.21-.07,23.12-12.07,41.89-4.46-.11-.09-16,6.14-13.86,15.48.37-.45,37.22,19.28,60.49,16,.11.06,3.46,11.48-11.85,17.71,0-.31,25.48,7,30.18,1.37q-5.22,6.83-10.46,13.64,6.43,8,12.43,16.25-14.48,1.65-28.32,4.47C1490.11,1138.91,1324.56,1133.87,1199.09,1216.38Z" transform="translate(0)" style="fill:#0878d4"/><path d="M800.62,1107q-2.29-17.62-3.42-35.62,15.82-.48,31.14.31,8-14.65,17.31-29,7.62,1.9,15.06,4.07,3.79-9.46,8.08-18.87,7.1,7.78,13.9,15.75,9.9-4.16,20-7.82,12.33.26,24.39,1.25,11.9-3.37,23.94-6,1.15-6.81,2.47-13.61,6.56,6.09,12.78,12.37,5.75-9.9,12.13-19.62c.42,3.54.83,7.08,1.25,10.62q3.64-4.26,7.45-8.47,13.6,9.16,26.06,19.14,12.2,0,24.34.76.32-16.94.62-33.87,9.57,5.89,18.65,12.2,16.76-8.92,34.88-16.54-8.37,17.13-15.82,34.51,10.85,11.41,20.48,23.35a384.86,384.86,0,0,1,40.67-24.23q4.72,4.62,9.24,9.33,9.73-6.53,20-12.6-1.15,8.67-2.43,17.31,16.18,1.33,32.59,4-4,9.66-8,19.31,5.22-3.45,10.58-6.78,4.77,12.38,8.67,24.8,12.85-2.22,26.22-3.54l-6.39,11.6q12.46-3.88,25.49-7,2.77,11.09,4.92,22.13,11.61,3.91,23.22,8.64c0-.09-14.73-1.41-18.05,5.72-3.47,6.77,21.49,4.77,21.62,5,.12.08-16.12,28.52-23.14,29.46-2.29,2.57-25.14-19-63.72-37-38.13-18.77-92-33.92-146-36.15-54-3-108.2,7-146.48,21.56-38.69,13.84-61.47,32.24-61.89,29.9A473.55,473.55,0,0,0,800.62,1107Z" transform="translate(0)" style="fill:#04457a"/><path d="M806.92,1122.12q-16.78-15.69-34.46-30.61a373.78,373.78,0,0,1,41.93,2.8q-13.15-33.15-24.51-67.15,18,27.85,35.58,56a430.11,430.11,0,0,1,12.25-42.06q2.56,25.38,6.85,50.26,12,6.7,23.38,14.07-.84-15.09-.87-30.36A100.48,100.48,0,0,1,847,1045.94c-7.64-17.92-11.11-42.91,14.39-70.43-.92.14-4.88,59,11.93,77.13q11.84,19.17,22.91,38.7,9-4.71,18.29-9c-.07.76-9.12-73,42.54-99.13.24-.07,30.17-19.24-.62,18.67-28.34,38.79-23.08,47.3-23.72,47.12q-6.67,6.2-12.95,12.6l6.27,22.09a381.25,381.25,0,0,1,37.75-18.46q-.76-31-.12-62.14,7.61,18.69,14.41,37.59,9.11-8.76,19-17.11,1.11,14.28,2.2,28.55,4.13-2.62,8.35-5.18,4.21,9.23,8.1,18.54,8.37-4.9,17.14-9.42-6.77-22.21-15.09-44.17,15.06,10.55,28.64,22.06,6.26-29.07,13.94-57.94,4.47,21.21,7.91,42.5,4.79-8.91,9.91-17.71,3.57,15.38,6.45,30.77c.33.55,6.41-57.45,54.65-65.77-1.06-.43-38.1,46.92-29.33,74.53q-2,20.37-4.41,40.69a346.83,346.83,0,0,1,35-12.36c-.55.49,33.56-57,87.8-46.35-.85-.93-54.34,25-61.94,45.05a323.83,323.83,0,0,0-13.57,34.66q9.94-2.43,20.28-4.29,18.15-28.93,38.15-56.87-2.27,14.6-5,29.06,10.68-1.23,21.65-1.86-13.15,22.45-26,45.06c-.54.56,36-40.13,85.82-15.1-.21-.75-43.23-4.32-57.39,21-14.85,24.29-23,13.67-23,13.7a363.48,363.48,0,0,0-361,4A367.46,367.46,0,0,0,806.92,1122.12Z" transform="translate(0)" style="fill:#065ea6"/><path d="M834.7,1152.8c.44,0-50.73-48.42-95.57-43.16-.17.06,20-8.12,41.49-10.46,21.54-2.78,44.35.28,51.18,12.54-.08,0-10.45-24.93-19.1-32.62.24-.62,39.47-1.19,43.83,17,.52.61-5.58-38.77,39.69-77.68-.86,0-15.58,45.14-.08,60.89-.94,0,26.58-43.53,54.86-48.29a385.56,385.56,0,0,0-25.12,32.49q14-7.32,28.68-13.58-1.44,8.31-2.65,16.62a387.2,387.2,0,0,1,37.16-18.12q-9.09,13.69-16.82,27.76a375.53,375.53,0,0,1,50.29-19.44,435.08,435.08,0,0,0-45.75-55.37A257.24,257.24,0,0,1,1012,1022.1c17.33,12,33.36,27.65,35.61,36.36-.16,0,7.32-27.17,1.75-38.45.3-.35,31.74,15.39,29.11,32.75-1.16-.35,44.92-41.65,80.47-35.7-1-.66-44.65,37.15-42.31,50.7-.77-.29,40-25.66,69.87-12.82-.45-.29-30.3,24.56-20.75,32.52-.21-.08,23.12-12.07,41.89-4.46-.11-.1-16,6.13-13.87,15.48.38-.45,37.23,19.27,60.5,16,.11.06,3.46,11.48-11.85,17.71,0-.32,25.48,7,30.18,1.37l-10.46,13.63q6.43,8,12.43,16.26-14.47,1.65-28.33,4.46C1125.72,1075.33,960.16,1070.28,834.7,1152.8Z" transform="translate(0)" style="fill:#0878d4"/><polygon points="833.66 1138.73 298.89 1353.21 4226.09 1325.9 3716.15 1137.28 3520.86 1062.37 3028.97 1147.75 2651.87 1271.66 1910.64 1271.56 1747.69 1213.88 1476.75 1163.08 1065.48 1083.45 930.2 1083.45 833.66 1138.73" style="fill:#0878d4"/></g><g id="Layer_10" data-name="Layer 10"><rect width="4378.66" height="2189.33" style="fill:none"/></g></svg>