<svg xmlns="http://www.w3.org/2000/svg" xmlns:xlink="http://www.w3.org/1999/xlink" viewBox="0 0 4378.66 2189.33"><defs><linearGradient id="linear-gradient" x1="1017.18" y1="1120.17" x2="1041.44" y2="210.37" gradientUnits="userSpaceOnUse"><stop offset="0" stop-color="#fff"/><stop offset="0.13" stop-color="#ecf2f9"/><stop offset="0.39" stop-color="#bcd1e9"/><stop offset="0.75" stop-color="#6f9ccf"/><stop offset="1" stop-color="#3775bc"/></linearGradient><linearGradient id="linear-gradient-2" x1="1271.41" y1="1126.95" x2="1295.67" y2="217.15" xlink:href="#linear-gradient"/><linearGradient id="linear-gradient-3" x1="1181.86" y1="1124.57" x2="1206.13" y2="214.76" xlink:href="#linear-gradient"/><linearGradient id="linear-gradient-4" x1="1141.39" y1="1123.49" x2="1165.66" y2="213.68" xlink:href="#linear-gradient"/><linearGradient id="linear-gradient-5" x1="1396.74" y1="1130.3" x2="1421" y2="220.49" xlink:href="#linear-gradient"/><linearGradient id="linear-gradient-6" x1="1436.04" y1="1131.34" x2="1460.3" y2="221.54" xlink:href="#linear-gradient"/><linearGradient id="linear-gradient-7" x1="1457.34" y1="1131.91" x2="1481.6" y2="222.11" xlink:href="#linear-gradient"/><linearGradient id="linear-gradient-8" x1="1438.02" y1="1131.4" x2="1462.28" y2="221.59" xlink:href="#linear-gradient"/><linearGradient id="linear-gradient-9" x1="1411.72" y1="1130.7" x2="1435.98" y2="220.89" xlink:href="#linear-gradient"/><linearGradient id="linear-gradient-10" x1="1582.89" y1="1135.26" x2="1607.15" y2="225.46" xlink:href="#linear-gradient"/><linearGradient id="linear-gradient-11" x1="1770.8" y1="1140.27" x2="1795.06" y2="230.47" xlink:href="#linear-gradient"/><linearGradient id="linear-gradient-12" x1="1766.79" y1="1140.16" x2="1791.05" y2="230.36" xlink:href="#linear-gradient"/><linearGradient id="linear-gradient-13" x1="1701.39" y1="1138.53" x2="1725.65" y2="228.73" xlink:href="#linear-gradient"/><linearGradient id="linear-gradient-14" x1="1682.26" y1="1137.91" x2="1706.52" y2="228.11" xlink:href="#linear-gradient"/><linearGradient id="linear-gradient-15" x1="2102.27" y1="1149.11" x2="2126.53" y2="239.31" xlink:href="#linear-gradient"/><linearGradient id="linear-gradient-16" x1="2154.83" y1="1150.51" x2="2179.09" y2="240.71" xlink:href="#linear-gradient"/><linearGradient id="linear-gradient-17" x1="2203.23" y1="1151.8" x2="2227.49" y2="242" xlink:href="#linear-gradient"/><linearGradient id="linear-gradient-18" x1="2454.3" y1="1158.5" x2="2478.56" y2="248.69" xlink:href="#linear-gradient"/><linearGradient id="linear-gradient-19" x1="3247.24" y1="1178.02" x2="3271.51" y2="268.21" xlink:href="#linear-gradient"/></defs><title>mountains</title><g id="mountains"><polygon points="4378.66 1288.76 0 1323.67 0 876.11 876.43 728.51 988.22 633.8 1034.8 630.69 1079.83 585.66 1148.14 584.11 1196.28 596.53 1255.28 517.35 1342.22 453.69 1363.96 388.48 1446.25 313.95 1483.51 325.39 1621.7 233.21 1688.46 284.45 1752.12 287.56 1862.36 380.72 1955.52 491.33 2002.1 498.72 2075.07 407.11 2106.12 407.11 2146.49 348.11 2185.38 351.21 2197.73 325.39 2234.99 325.39 2354.55 135.4 2480.31 56.21 2618.5 144.71 2696.13 158.69 2752.02 188.19 2828.1 306.19 2902.63 337.24 2932.13 417.98 2983.37 439.72 3022.18 469.22 3070.32 467.66 3196.08 559.27 3253.53 612.06 3324.95 612.06 3373.08 692.8 3467.79 767.32 3520.58 765.77 3605.11 843.83 4097.45 951.79 4378.66 989 4378.66 1288.76" style="fill:#fff"/><polygon points="1009.31 632.13 1018.98 656.3 1036.7 675.63 1050.39 657.91 1034.8 630.69 1009.31 632.13" style="fill:url(#linear-gradient)"/><polygon points="1358.13 777.14 1342.02 738.47 1324.29 698.19 1278.37 664.36 1248.57 615.22 1193.79 594.27 1148.14 584.11 1180.9 646.63 1217.15 714.3 1304.15 787.61 1320.26 813.39 1376.65 813.39 1399.21 846.42 1416.93 835.14 1387.93 777.14 1358.13 777.14" style="fill:url(#linear-gradient-2)"/><polygon points="1208.29 765.86 1208.29 738.47 1193.79 728 1208.29 714.3 1178.48 658.72 1155.93 658.72 1152.7 670.8 1167.2 685.55 1155.93 699.8 1179.29 707.05 1168.01 718.33 1155.93 739.27 1174.45 748.14 1188.15 748.14 1190.57 763.44 1216.34 788.41 1232.46 774.72 1232.46 752.97 1219.57 765.86 1208.29 765.86" style="fill:url(#linear-gradient-3)"/><polygon points="1147.07 758.61 1134.98 750.55 1134.98 762.23 1152.7 769.08 1159.95 773.91 1167.2 769.08 1155.93 758.61 1147.07 758.61" style="fill:url(#linear-gradient-4)"/><polygon points="1433.85 505.66 1403.24 512.1 1388.74 480.68 1362.15 454.1 1350.95 427.52 1342.22 453.69 1325.58 465.88 1342.82 491.33 1373.43 552.38 1393.57 556.41 1393.57 590.24 1380.68 590.24 1380.68 606.36 1398.4 616.02 1434.66 616.02 1454.8 624.88 1463.66 613.61 1447.55 609.58 1441.1 590.24 1463.66 604.74 1453.99 575.74 1474.93 582.19 1462.05 559.63 1500.71 564.47 1500.71 549.16 1463.66 533.05 1433.85 505.66" style="fill:url(#linear-gradient-5)"/><polygon points="1449.16 427.52 1473.32 427.52 1473.32 413.02 1455.2 413.02 1437.07 398.51 1449.16 427.52" style="fill:url(#linear-gradient-6)"/><polygon points="1483.51 325.39 1446.25 313.95 1449.96 332.46 1473.32 347.76 1473.32 378.87 1479.77 398.51 1491.85 432.35 1509.58 406.57 1491.85 369.51 1483.51 325.39" style="fill:url(#linear-gradient-7)"/><polygon points="1466.88 363.07 1449.96 369.51 1455.2 391.26 1466.88 363.07" style="fill:url(#linear-gradient-8)"/><polygon points="1441.1 363.07 1441.1 339.71 1423.38 359.04 1437.07 371.13 1441.1 363.07" style="fill:url(#linear-gradient-9)"/><polygon points="1599.8 344.54 1597.38 371.13 1578.86 377.17 1569.99 388.45 1578.86 391.26 1598.19 398.51 1606.24 422.68 1613.49 432.35 1634.44 432.35 1623.16 411.81 1634.44 413.02 1634.44 391.26 1619.94 371.13 1599.8 344.54" style="fill:url(#linear-gradient-10)"/><polygon points="1862.36 380.72 1752.12 287.56 1688.46 284.45 1621.7 233.21 1628.8 259.15 1643.3 271.23 1643.3 284.93 1634.44 292.99 1643.3 305.07 1649.75 317.15 1667.47 339.71 1667.47 377.17 1689.22 359.04 1689.22 334.88 1708.55 363.07 1725.47 371.13 1737.55 418.65 1752.86 449.27 1781.86 462.96 1840.67 495.99 1852.75 495.99 1835.03 470.21 1852.75 455.71 1890.61 463.77 1920.27 496.46 1960.89 509.92 1955.52 491.33 1862.36 380.72" style="fill:url(#linear-gradient-11)"/><polygon points="1853.56 575.74 1828.58 536.27 1825.36 501.63 1758.5 459.74 1706.94 459.74 1727.89 486.32 1764.94 491.33 1753.66 508.88 1797.17 546.74 1774.61 585.41 1802.4 624.88 1824.56 624.88 1824.56 590.24 1839.06 629.72 1858.39 629.72 1848.72 609.58 1853.56 575.74" style="fill:url(#linear-gradient-12)"/><polygon points="1742.39 507.27 1725.47 501.63 1690.83 459.74 1690.83 491.33 1706.94 524.99 1706.94 561.24 1718.62 562.05 1718.62 584.6 1737.55 596.69 1737.55 544.73 1721.44 524.99 1746.41 524.99 1742.39 507.27" style="fill:url(#linear-gradient-13)"/><polygon points="1670.69 404.15 1702.11 443.63 1731.91 443.63 1690.83 408.99 1690.83 366.69 1670.69 404.15" style="fill:url(#linear-gradient-14)"/><polygon points="2106.12 407.11 2086.09 407.11 2111.8 470.53 2075.07 407.11 2056.97 429.42 2085.97 466.84 2047.33 441.94 2038.16 453.45 2093.87 501.63 2112.32 493.73 2123.39 505.33 2115.49 512.71 2137.1 553.3 2151.86 550.13 2138.68 519.56 2172.42 550.13 2200.88 551.19 2146.06 504.27 2106.12 407.11" style="fill:url(#linear-gradient-15)"/><polygon points="2185.38 351.21 2146.49 348.11 2150.28 401.48 2171.36 416.24 2182.96 416.24 2170.31 390.41 2173.47 370.38 2177.69 393.31 2188.47 404.11 2204.57 399.9 2188.47 383.55 2185.38 351.21" style="fill:url(#linear-gradient-16)"/><polygon points="2197.73 325.39 2208.26 357.2 2217.75 348.24 2252.02 354.56 2234.99 325.39 2197.73 325.39" style="fill:url(#linear-gradient-17)"/><polygon points="2505.51 252.89 2473.22 245.35 2466.77 292.71 2488.29 348.24 2490.45 427.25 2466.77 435.86 2463.54 518.74 2444.16 515.51 2461.38 405.73 2438.78 444.47 2419.41 416.24 2406.49 439.09 2362.36 376.67 2370.97 422.56 2352.68 438.01 2429.09 553.3 2429.09 582.24 2473.22 642.52 2513.05 656.51 2513.05 734 2538.88 700.64 2565.79 653.28 2552.87 586.01 2527.04 531.66 2557.18 459.74 2593.77 459.74 2593.77 438.01 2536.73 341.29 2505.51 252.89" style="fill:url(#linear-gradient-18)"/><path d="M3605.11,843.83l-86.54-79.74-52.79,1.55-94.71-74.52-48.13-80.74h-71.42l-57.45-52.79L3068.3,466l-48.13,1.56L2981.36,438l-51.24-21.74-29.5-80.74-74.53-31.05-76.08-118L2694.12,157l-78.68-14.51-124.85-85,13.52,42.07-13.52,104.25,86.26,135.82,53.34,40.95v51.13l77.58,97,70.31,63-84.86-38L2635,470.48,2649.58,628l9.7-48.46L2715,628l41.22,46.1,29.09,77.58,36.37,26.67V868.1l-19.4-48.49-58.18-53.34L2695.65,873l63-7.28-2.42,97L2804.75,999V960.23l12.12-55.77,31.52,80,63,12.12-21.83-41.21,19.4-26.67,70.31,63-4.85-48.49L3069,967.5l65.46,82.43V989.32l-89.71-126.07-24.24-114L3127.2,868.1l53.34,19.39,82.43,63,29.1-29.09,38.79,46.06,75.16,43.64,26.67-24.24,36.37,48.49,50.91,14.54,14.55-24.24,46.06,2.42,23.9,6.05,435.67-94.94ZM2710.19,420.88l-63.49-34.7-12.82-39.68-17.1-22.79,25,3.25,14.05,33.58,54.33,44Zm64.11-12.11-46.4-58v-58l46.4,82.42Z" transform="translate(0)" style="fill:url(#linear-gradient-19)"/></g><g id="Layer_10" data-name="Layer 10"><rect width="4378.66" height="2189.33" style="fill:none"/></g></svg>