<svg id="Layer_1" data-name="Layer 1" xmlns="http://www.w3.org/2000/svg" viewBox="0 0 2000 500"><defs><style>.cls-1{fill:#603813;}.cls-2{fill:#999;}.cls-3{fill:#736357;}.cls-4{fill:gray;}.cls-5{fill:#333;}.cls-6{fill:#4d4d4d;}.cls-7{fill:none;}</style></defs><title>skateboard</title><path class="cls-1" d="M103.35,205.44H818.7a14.43,14.43,0,0,0,4.83-.83l95.56-34a14.4,14.4,0,0,0,6.82-22l-4.83-6.63a14.42,14.42,0,0,0-16.39-5.12l-91.13,31.76a14.48,14.48,0,0,1-4.74.81H117.56a14.52,14.52,0,0,1-5.36-1L24.69,137.21a14.42,14.42,0,0,0-18.29,7l-4.91,10A14.41,14.41,0,0,0,9.23,174l88.93,30.49A14.38,14.38,0,0,0,103.35,205.44Z" transform="translate(0)"/><polygon class="cls-2" points="229.01 233.68 220.64 269.24 184.04 286.49 142.21 243.61 131.23 205.44 147.74 205.69 153.19 235.25 178.29 250.41 196.07 217.47 229.01 233.68"/><path class="cls-3" d="M238.05,204.92s.89,26.15-4.86,29.28-31.37-2.09-37.12-6.27-28.76-24.05-51.77-14.12-20.91,11.5-25.1,6.27-6.45-14.64-6.45-14.64Z" transform="translate(0)"/><polygon class="cls-2" points="688.12 233.68 696.48 269.24 733.09 286.49 774.91 243.61 785.89 205.44 769.39 205.69 763.93 235.25 738.84 250.41 721.06 217.47 688.12 233.68"/><path class="cls-3" d="M679.08,204.92s-.9,26.15,4.85,29.28,31.38-2.09,37.13-6.27,28.76-24.05,51.76-14.12,20.92,11.5,25.1,6.27,6.45-14.64,6.45-14.64Z" transform="translate(0)"/><circle class="cls-4" cx="767.33" cy="273.16" r="47.84"/><circle class="cls-5" cx="767.33" cy="273.16" r="18.56"/><circle class="cls-6" cx="767.33" cy="273.16" r="15.42"/><circle class="cls-4" cx="156.61" cy="273.16" r="47.84"/><circle class="cls-5" cx="156.61" cy="273.16" r="18.56"/><circle class="cls-6" cx="156.61" cy="273.16" r="15.42"/><path class="cls-5" d="M904.69,136.8l-91.13,31.76a14.48,14.48,0,0,1-4.74.81H117.56a14.52,14.52,0,0,1-5.36-1L24.69,137.21a14.37,14.37,0,0,0-10.44-.11l101.37,37.17,699.76-1.39,97-36.57A14.37,14.37,0,0,0,904.69,136.8Z" transform="translate(0)"/><rect class="cls-7" width="2000" height="500"/></svg>