<svg id="Logo_FIXED" data-name="Logo FIXED" xmlns="http://www.w3.org/2000/svg" viewBox="0 0 203.14 203.14"><defs><style>.cls-1{fill:hsla(200, 80%, 30%, 1);}</style></defs><title>Insta_Logo_Blue</title><path class="cls-1" d="M200,116.74c27.12,0,30.34.1,41.05.59,27.53,1.25,40.38,14.31,41.64,41.64.49,10.7.58,13.92.58,41s-.1,30.33-.58,41c-1.27,27.3-14.09,40.38-41.64,41.64-10.71.49-13.91.59-41.05.59s-30.34-.1-41-.59c-27.6-1.27-40.38-14.38-41.64-41.65-.49-10.7-.59-13.91-.59-41s.11-30.33.59-41c1.26-27.32,14.09-40.38,41.64-41.64C169.67,116.84,172.88,116.74,200,116.74Zm0-18.31c-27.58,0-31,.12-41.87.61-36.89,1.69-57.39,22.16-59.08,59.08-.5,10.84-.62,14.3-.62,41.88s.12,31.05.61,41.88c1.69,36.89,22.16,57.39,59.08,59.08,10.84.49,14.3.61,41.88.61s31.05-.12,41.88-.61c36.85-1.69,57.4-22.16,59.07-59.08.5-10.83.62-14.3.62-41.88s-.12-31-.61-41.87c-1.66-36.85-22.15-57.39-59.07-59.08C231.05,98.55,227.58,98.43,200,98.43Zm0,49.41A52.16,52.16,0,1,0,252.16,200,52.17,52.17,0,0,0,200,147.84Zm0,86A33.86,33.86,0,1,1,233.86,200,33.85,33.85,0,0,1,200,233.86ZM254.22,133.6a12.19,12.19,0,1,0,12.18,12.19A12.2,12.2,0,0,0,254.22,133.6Z" transform="translate(-98.43 -98.43)"/></svg>