<svg id="Logo_FIXED" data-name="Logo FIXED" xmlns="http://www.w3.org/2000/svg" viewBox="0 0 203.7 203.7"><defs><style>.cls-1{fill:hsla(200, 80%, 30%, 1);}</style></defs><title>linkedin_Logo_Blue</title><path class="cls-1" d="M286.56,97.87H112.88a15,15,0,0,0-15,15V286.56a15,15,0,0,0,15,15H286.56a15,15,0,0,0,15-15V112.88A15,15,0,0,0,286.56,97.87ZM158.71,271.29H128V174h30.74ZM143.34,161a17.85,17.85,0,1,1,17.84-17.84A17.85,17.85,0,0,1,143.34,161Zm97.54,110.29-.3-54.49s0-13.11-6.26-16.46a19.42,19.42,0,0,0-12.24-2s-7.43.44-12.24,8.89c-2.65,9-2.47,24.33-2.47,24.33v39.77H176.92V174H206.2v14s8.89-16.6,30.45-16.31,28.26,14.57,28.26,14.57,6.41,7.57,6.27,27.24,0,57.84,0,57.84Z" transform="translate(-97.87 -97.87)"/></svg>