<?xml version="1.0" encoding="utf-8"?>
<!-- Generator: Adobe Illustrator 23.0.2, SVG Export Plug-In . SVG Version: 6.00 Build 0)  -->
<svg version="1.1" id="Logo_FIXED" xmlns="http://www.w3.org/2000/svg" xmlns:xlink="http://www.w3.org/1999/xlink" x="0px" y="0px"
	 viewBox="0 0 400 400" style="enable-background:new 0 0 400 400;" xml:space="preserve">
<style type="text/css">
	.st0{fill:hsla(200, 80%, 30%, 1);}
	.st1{display:none;fill:hsla(200, 80%, 30%, 1);}
</style>
<title>Twitter_Logo_Blue</title>
<path class="st0" d="M153.6,301.6c94.3,0,145.9-78.2,145.9-145.9c0-2.2,0-4.4-0.1-6.6c10-7.3,18.7-16.3,25.6-26.5
	c-9.4,4.1-19.3,6.9-29.5,8.1c10.7-6.4,18.7-16.5,22.5-28.4c-10.1,6-21.1,10.2-32.6,12.4c-19.4-20.7-51.9-21.7-72.6-2.2
	c-13.3,12.5-19,31.2-14.8,49c-41.2-2.1-79.7-21.5-105.7-53.6c-13.6,23.4-6.7,53.4,15.9,68.5c-8.2-0.2-16.1-2.4-23.3-6.4
	c0,0.2,0,0.4,0,0.6c0,24.4,17.2,45.4,41.2,50.3c-7.6,2.1-15.5,2.4-23.2,0.9c6.7,20.9,26,35.2,47.9,35.6c-18.2,14.3-40.6,22-63.7,22
	c-4.1,0-8.2-0.3-12.2-0.7C98.5,293.6,125.7,301.6,153.6,301.6"/>
<path class="st1" d="M286.6,97.9H112.9c-8.3,0-15,6.7-15,15v173.7c0,8.3,6.7,15,15,15h173.7c8.3,0,15-6.7,15-15V112.9
	C301.6,104.6,294.9,97.9,286.6,97.9z M158.7,271.3H128V174h30.7V271.3z M143.3,161c-9.9,0-17.8-8-17.8-17.8c0-9.9,8-17.8,17.8-17.8
	c9.9,0,17.8,8,17.8,17.8C161.2,153,153.2,161,143.3,161z M240.9,271.3l-0.3-54.5c0,0,0-13.1-6.3-16.5c-6.3-3.4-12.2-2-12.2-2
	s-7.4,0.4-12.2,8.9c-2.7,9-2.5,24.3-2.5,24.3v39.8h-30.4V174h29.3v14c0,0,8.9-16.6,30.4-16.3c21.6,0.3,28.3,14.6,28.3,14.6
	s6.4,7.6,6.3,27.2s0,57.8,0,57.8H240.9z"/>
<path class="st1" d="M200,116.7c27.1,0,30.3,0.1,41.1,0.6c27.5,1.3,40.4,14.3,41.6,41.6c0.5,10.7,0.6,13.9,0.6,41
	c0,27.1-0.1,30.3-0.6,41c-1.3,27.3-14.1,40.4-41.6,41.6c-10.7,0.5-13.9,0.6-41.1,0.6c-27.1,0-30.3-0.1-41-0.6
	c-27.6-1.3-40.4-14.4-41.6-41.6c-0.5-10.7-0.6-13.9-0.6-41c0-27.1,0.1-30.3,0.6-41c1.3-27.3,14.1-40.4,41.6-41.6
	C169.7,116.8,172.9,116.7,200,116.7z M200,98.4c-27.6,0-31,0.1-41.9,0.6c-36.9,1.7-57.4,22.2-59.1,59.1c-0.5,10.8-0.6,14.3-0.6,41.9
	s0.1,31,0.6,41.9c1.7,36.9,22.2,57.4,59.1,59.1c10.8,0.5,14.3,0.6,41.9,0.6s31-0.1,41.9-0.6c36.9-1.7,57.4-22.2,59.1-59.1
	c0.5-10.8,0.6-14.3,0.6-41.9s-0.1-31-0.6-41.9c-1.7-36.9-22.2-57.4-59.1-59.1C231,98.5,227.6,98.4,200,98.4z M200,147.8
	c-28.8,0-52.2,23.4-52.2,52.2s23.4,52.2,52.2,52.2s52.2-23.4,52.2-52.2C252.2,171.2,228.8,147.8,200,147.8z M200,233.9
	c-18.7,0-33.9-15.2-33.9-33.9c0-18.7,15.2-33.9,33.9-33.9s33.9,15.2,33.9,33.9C233.9,218.7,218.7,233.9,200,233.9z M254.2,133.6
	c-6.7,0-12.2,5.5-12.2,12.2c0,6.7,5.5,12.2,12.2,12.2c6.7,0,12.2-5.5,12.2-12.2C266.4,139.1,260.9,133.6,254.2,133.6z"/>
</svg>
